<!DOCTYPE svg PUBLIC "-//W3C//DTD SVG 20010904//EN" "http://www.w3.org/TR/2001/REC-SVG-20010904/DTD/svg10.dtd">
<svg version="1.0" xmlns="http://www.w3.org/2000/svg" width="300px" height="300px" viewBox="0 0 3000 3000" preserveAspectRatio="xMidYMid meet">
<g id="layer1" fill="#a67ab0" stroke="none">
 <path d="M1178 2075 c-22 -29 -22 -35 -4 -35 7 0 16 8 20 18 3 9 9 23 12 30 10 21 -10 12 -28 -13z"/>
 <path d="M1814 2088 c3 -7 9 -21 12 -30 4 -10 13 -18 20 -18 19 0 17 10 -5 38 -21 24 -36 30 -27 10z"/>
 <path d="M1160 1983 c1 -12 40 -56 45 -51 8 8 -20 58 -32 58 -7 0 -13 -3 -13 -7z"/>
 <path d="M1823 1963 c-17 -35 -8 -42 16 -12 24 28 26 39 9 39 -7 0 -19 -12 -25 -27z"/>
 <path d="M1230 1910 c0 -9 31 -30 44 -30 13 0 5 28 -10 34 -23 9 -34 7 -34 -4z"/>
 <path d="M1760 1904 c0 -9 5 -14 12 -12 18 6 21 28 4 28 -9 0 -16 -7 -16 -16z"/>
 <path d="M1234 1096 c-10 -8 -16 -17 -12 -21 11 -11 48 5 48 21 0 18 -11 18 -36 0z"/>
 <path d="M1730 1096 c0 -16 37 -32 48 -21 7 7 -25 35 -40 35 -4 0 -8 -6 -8 -14z"/>
 <path d="M1168 1035 c-22 -29 -22 -35 -4 -35 7 0 16 8 20 18 3 9 9 23 12 30 10 21 -10 12 -28 -13z"/>
 <path d="M1804 1048 c3 -7 9 -21 12 -30 4 -10 13 -18 20 -18 19 0 17 10 -5 38 -21 24 -36 30 -27 10z"/>
 <path d="M1150 943 c1 -12 40 -56 45 -51 8 8 -20 58 -32 58 -7 0 -13 -3 -13 -7z"/>
 <path d="M1813 923 c-17 -35 -8 -42 16 -12 24 28 26 39 9 39 -7 0 -19 -12 -25 -27z"/>
 </g>
<g id="layer2" fill="#b09d9b" stroke="none">
 <path d="M1740 1900 c0 -5 13 -31 29 -57 38 -62 70 -158 78 -233 4 -44 10 -60 21 -60 37 0 -18 216 -78 310 -30 47 -50 63 -50 40z"/>
 <path d="M1267 1858 c-10 -18 -26 -46 -36 -63 -27 -43 -35 -75 -19 -75 7 0 22 21 32 48 11 26 30 60 43 75 26 32 29 47 10 47 -7 0 -21 -15 -30 -32z"/>
 <path d="M1700 1867 c0 -8 8 -21 18 -30 9 -8 26 -38 37 -66 11 -28 25 -51 32 -51 7 0 13 2 13 4 0 14 -25 66 -52 108 -31 48 -48 60 -48 35z"/>
 <path d="M1180 1670 c0 -5 7 -10 15 -10 8 0 15 5 15 10 0 6 -7 10 -15 10 -8 0 -15 -4 -15 -10z"/>
 <path d="M1790 1670 c0 -5 7 -10 15 -10 8 0 15 5 15 10 0 6 -7 10 -15 10 -8 0 -15 -4 -15 -10z"/>
 <path d="M1170 1630 c0 -5 7 -10 15 -10 8 0 15 5 15 10 0 6 -7 10 -15 10 -8 0 -15 -4 -15 -10z"/>
 <path d="M1800 1630 c0 -5 7 -10 15 -10 8 0 15 5 15 10 0 6 -7 10 -15 10 -8 0 -15 -4 -15 -10z"/>
 <path d="M1160 1575 c0 -8 7 -15 15 -15 8 0 15 7 15 15 0 8 -7 15 -15 15 -8 0 -15 -7 -15 -15z"/>
 <path d="M1810 1575 c0 -8 7 -15 15 -15 8 0 15 7 15 15 0 8 -7 15 -15 15 -8 0 -15 -7 -15 -15z"/>
 <path d="M1850 1421 c0 -34 -3 -38 -20 -34 -14 4 -20 0 -20 -11 0 -9 7 -16 15 -16 8 0 15 -7 15 -15 0 -8 -9 -15 -20 -15 -11 0 -20 -4 -20 -10 0 -5 7 -10 15 -10 8 0 15 -4 15 -10 0 -5 -9 -10 -20 -10 -11 0 -20 -4 -20 -10 0 -5 7 -10 15 -10 13 0 14 -4 5 -20 -6 -11 -17 -20 -25 -20 -8 0 -15 -5 -15 -10 0 -6 -11 -33 -25 -62 -30 -62 -29 -58 -6 -58 43 0 123 175 137 299 6 53 4 61 -10 61 -12 0 -16 -10 -16 -39z"/>
 <path d="M1160 1375 c0 -8 7 -15 15 -15 8 0 15 7 15 15 0 8 -7 15 -15 15 -8 0 -15 -7 -15 -15z"/>
 <path d="M1170 1320 c0 -5 7 -10 15 -10 8 0 15 5 15 10 0 6 -7 10 -15 10 -8 0 -15 -4 -15 -10z"/>
 <path d="M1180 1280 c0 -5 7 -10 15 -10 8 0 15 5 15 10 0 6 -7 10 -15 10 -8 0 -15 -4 -15 -10z"/>
 <path d="M1206 1208 c14 -46 59 -116 69 -107 3 3 -6 29 -20 57 -14 29 -25 56 -25 62 0 5 -7 10 -16 10 -11 0 -14 -6 -8 -22z"/>
 </g>
<g id="layer3" fill="#f03f46" stroke="none">
 <path d="M1067 823 c-4 -3 -7 -10 -7 -15 0 -4 144 -8 320 -8 278 0 320 2 320 15 0 13 -41 15 -313 15 -173 0 -317 -3 -320 -7z"/>
 <path d="M1805 715 c-32 -52 -55 -98 -52 -101 3 -3 31 38 62 91 32 52 55 98 52 101 -3 3 -31 -38 -62 -91z"/>
 <path d="M1090 774 c0 -5 7 -19 15 -30 8 -10 15 -14 15 -8 0 5 -7 19 -15 30 -8 10 -15 14 -15 8z"/>
 <path d="M1130 704 c0 -5 7 -19 15 -30 8 -10 15 -14 15 -8 0 5 -7 19 -15 30 -8 10 -15 14 -15 8z"/>
 <path d="M1170 634 c0 -5 7 -19 15 -30 8 -10 15 -14 15 -8 0 5 -7 19 -15 30 -8 10 -15 14 -15 8z"/>
 <path d="M1690 520 c-24 -39 -40 -73 -37 -76 3 -3 24 26 47 66 24 39 40 73 37 76 -3 3 -24 -26 -47 -66z"/>
 <path d="M1210 564 c0 -5 7 -19 15 -30 8 -10 15 -14 15 -8 0 5 -7 19 -15 30 -8 10 -15 14 -15 8z"/>
 <path d="M1250 494 c0 -5 7 -19 15 -30 8 -10 15 -14 15 -8 0 5 -7 19 -15 30 -8 10 -15 14 -15 8z"/>
 <path d="M1290 424 c0 -5 7 -19 15 -30 8 -10 15 -14 15 -8 0 5 -7 19 -15 30 -8 10 -15 14 -15 8z"/>
 <path d="M1560 300 c-24 -39 -40 -73 -37 -76 3 -3 24 26 47 66 24 39 40 73 37 76 -3 3 -24 -26 -47 -66z"/>
 <path d="M1330 354 c0 -5 7 -19 15 -30 8 -10 15 -14 15 -8 0 5 -7 19 -15 30 -8 10 -15 14 -15 8z"/>
 <path d="M1370 284 c0 -29 105 -174 126 -174 14 0 1 30 -16 35 -11 3 -38 38 -60 76 -38 63 -50 79 -50 63z"/>
 <path d="M1420 125 c0 -8 5 -15 10 -15 6 0 10 7 10 15 0 8 -4 15 -10 15 -5 0 -10 -7 -10 -15z"/>
 </g>
<g id="layer4" fill="#0d004c" stroke="none">
 <path d="M1200 2091 c-60 -60 -46 -129 37 -182 77 -48 143 -64 273 -64 130 0 196 16 273 64 83 53 97 122 37 182 l-28 29 -282 0 -282 0 -28 -29z"/>
 <path d="M1364 1136 c-184 -42 -263 -149 -174 -237 l28 -29 282 0 282 0 28 29 c39 38 47 75 26 117 -19 40 -89 88 -161 110 -71 22 -236 27 -311 10z"/>
 </g>
<g id="layer5" fill="#8dc73f" stroke="none">
 <path d="M1275 1855 c-65 -87 -115 -250 -115 -380 0 -36 7 -101 16 -143 17 -85 75 -219 97 -228 8 -3 49 2 90 10 96 20 178 20 274 0 41 -8 82 -13 90 -10 22 9 80 143 97 228 20 98 20 188 0 286 -16 78 -66 197 -102 241 -19 24 -21 24 -90 13 -94 -16 -172 -15 -257 3 -38 8 -71 15 -71 15 -1 0 -14 -16 -29 -35z"/>
 </g>
<g id="layer6" fill="#ed1c24" stroke="none">
 <path d="M955 880 c-6 -10 392 -718 421 -749 8 -9 36 -14 84 -14 62 0 75 3 95 24 21 21 366 594 416 692 11 21 17 42 14 47 -9 14 -1022 13 -1030 0z"/>
 </g>
<g id="layer7" fill="#f8941d" stroke="none">
 <path d="M1045 2727 c-3 -6 -4 -149 -3 -317 l3 -305 485 0 485 0 0 315 0 315 -483 3 c-383 2 -484 0 -487 -11z"/>
 </g>
<g id="layer8" fill="#bd8cbf" stroke="none">
 <path d="M0 1500 l0 -1500 1500 0 1500 0 0 1500 0 1500 -1500 0 -1500 0 0 -1500z m2000 920 l0 -300 -105 0 c-87 0 -105 -3 -105 -15 0 -8 5 -15 11 -15 21 0 38 -34 38 -75 0 -40 -17 -75 -37 -75 -6 0 -15 -7 -20 -15 -4 -9 -21 -19 -38 -24 -38 -10 -41 -32 -9 -78 14 -21 38 -76 53 -123 24 -76 27 -100 27 -225 0 -149 -9 -193 -64 -319 -19 -46 -22 -61 -12 -64 7 -2 21 -13 29 -23 9 -11 21 -19 26 -19 18 0 35 -36 35 -75 0 -41 -17 -75 -38 -75 -6 0 -11 -7 -11 -15 0 -12 17 -15 95 -15 l95 0 -19 -38 c-38 -73 -392 -667 -407 -682 -10 -10 -36 -15 -84 -15 -37 0 -70 2 -73 5 -2 3 -97 167 -210 365 l-206 360 124 3 c102 2 125 5 125 17 0 8 -5 15 -11 15 -21 0 -38 34 -38 75 0 41 17 75 38 75 6 0 14 7 17 15 3 8 14 17 25 20 23 7 24 32 4 59 -8 11 -27 58 -42 105 -25 77 -28 101 -28 226 0 160 20 245 82 347 34 57 36 78 7 78 -8 0 -22 9 -31 20 -10 11 -22 20 -27 20 -18 0 -35 36 -35 75 0 41 17 75 38 75 6 0 11 7 11 15 0 12 -16 15 -85 15 l-85 0 0 300 0 300 470 0 470 0 0 -300z"/>
 </g>

</svg>