<!DOCTYPE svg PUBLIC "-//W3C//DTD SVG 20010904//EN" "http://www.w3.org/TR/2001/REC-SVG-20010904/DTD/svg10.dtd">
<svg version="1.0" xmlns="http://www.w3.org/2000/svg" width="300px" height="300px" viewBox="0 0 3000 3000" preserveAspectRatio="xMidYMid meet">
<g id="layer1" fill="#f5c3be" stroke="none">
 <path d="M526 2301 c-8 -12 21 -34 34 -26 8 5 8 11 -1 21 -13 16 -25 18 -33 5z"/>
 <path d="M62 2028 c-19 -19 -14 -71 11 -108 13 -19 22 -40 20 -47 -5 -15 14 -26 22 -13 4 6 1 17 -5 25 -7 8 -9 15 -5 15 4 0 0 12 -10 26 -10 15 -15 41 -14 64 4 44 -2 55 -19 38z"/>
 <path d="M155 2020 c-13 -14 -21 -17 -31 -9 -8 7 -14 7 -19 -1 -6 -10 -5 -11 14 -14 5 0 13 -4 16 -8 4 -4 15 -3 25 2 10 5 20 7 23 4 3 -3 10 3 16 14 19 35 -14 45 -44 12z"/>
 <path d="M98 1815 c-4 -26 -6 -32 -18 -57 -7 -15 -10 -35 -6 -44 9 -23 24 -7 27 31 2 17 7 36 13 43 6 8 5 17 -2 24 -7 7 -13 8 -14 3z"/>
 <path d="M505 1739 c-7 -10 5 -16 27 -15 10 1 18 6 18 11 0 12 -38 16 -45 4z"/>
 <path d="M1375 1680 c-7 -11 71 -53 84 -45 5 2 15 -2 22 -11 17 -20 85 -55 93 -47 7 8 -13 33 -26 33 -6 0 -24 10 -41 22 -18 13 -34 23 -37 24 -3 0 -22 8 -44 17 -45 20 -43 20 -51 7z"/>
 <path d="M75 1650 c-4 -6 -4 -14 -1 -17 3 -3 1 -12 -5 -19 -6 -7 -8 -18 -4 -24 9 -14 28 -1 21 15 -2 7 1 18 7 24 8 8 8 14 0 22 -8 8 -13 8 -18 -1z"/>
 <path d="M315 1651 c-7 -12 12 -24 25 -16 11 7 4 25 -10 25 -5 0 -11 -4 -15 -9z"/>
 <path d="M245 1627 c-22 -17 -11 -41 13 -28 16 9 24 11 38 11 4 0 1 7 -6 15 -15 18 -21 19 -45 2z"/>
 <path d="M66 1432 c-3 -5 5 -19 18 -31 15 -15 26 -19 31 -12 6 10 0 15 -16 13 -4 -1 -6 6 -5 15 1 18 -19 29 -28 15z"/>
 <path d="M2775 1390 c-4 -6 -3 -16 3 -22 6 -6 12 -6 17 2 4 6 3 16 -3 22 -6 6 -12 6 -17 -2z"/>
 <path d="M2916 1243 c-9 -9 -7 -161 2 -167 10 -6 9 -36 -2 -54 -4 -6 -4 -17 -1 -22 9 -14 28 -1 21 15 -2 7 0 17 6 23 6 6 7 16 3 22 -4 7 -7 50 -6 95 2 76 -6 105 -23 88z"/>
 <path d="M2597 1083 c-12 -11 -8 -22 12 -33 11 -5 22 -6 25 -1 7 11 -28 43 -37 34z"/>
 <path d="M2846 951 c-3 -5 0 -14 8 -20 10 -8 16 -8 25 2 6 8 8 17 4 20 -9 10 -31 9 -37 -2z"/>
 <path d="M2901 916 c-9 -10 -9 -16 -1 -21 17 -10 37 12 24 25 -8 8 -15 6 -23 -4z"/>
 </g>
<g id="layer2" fill="#efd8d3" stroke="none">
 <path d="M574 2296 c-9 -24 12 -44 28 -28 10 10 8 16 -5 29 -15 15 -17 15 -23 -1z"/>
 <path d="M515 2290 c-3 -6 -10 -8 -15 -5 -5 3 -11 1 -14 -4 -4 -5 -2 -12 3 -15 5 -4 13 -2 16 4 5 8 11 8 20 0 8 -7 16 -7 19 -2 3 6 -1 15 -8 21 -10 8 -16 9 -21 1z"/>
 <path d="M1021 2276 c-7 -8 -8 -17 -3 -20 6 -3 15 1 21 8 7 8 8 17 3 20 -6 3 -15 -1 -21 -8z"/>
 <path d="M1256 2191 c-9 -15 23 -36 35 -24 8 8 5 14 -9 22 -12 6 -23 7 -26 2z"/>
 <path d="M1456 2121 c-9 -15 23 -36 35 -24 8 8 5 14 -9 22 -12 6 -23 7 -26 2z"/>
 <path d="M90 2041 c-13 -25 2 -36 30 -21 17 9 19 14 9 26 -16 19 -26 18 -39 -5z"/>
 <path d="M195 2030 c-3 -5 -3 -15 0 -20 7 -11 -30 -8 -41 3 -4 4 -14 1 -22 -6 -8 -6 -17 -11 -19 -9 -1 1 -3 0 -3 -3 0 -3 0 -8 0 -11 0 -4 7 -1 15 6 8 7 16 10 16 6 1 -3 3 -10 4 -16 1 -5 3 -13 4 -17 0 -3 10 2 20 11 11 10 24 15 29 12 5 -3 17 3 26 13 17 18 17 20 -3 30 -13 7 -22 8 -26 1z"/>
 <path d="M1736 1992 c-4 -4 -12 -7 -17 -7 -5 0 -9 -4 -8 -10 1 -5 6 -9 11 -7 6 2 18 -4 28 -13 15 -13 19 -13 29 -2 8 11 8 17 -1 24 -24 18 -35 22 -42 15z"/>
 <path d="M1944 1865 c-9 -23 10 -40 25 -22 9 11 8 17 -4 27 -12 10 -16 9 -21 -5z"/>
 <path d="M1046 1827 c-16 -12 -16 -14 -3 -26 13 -10 17 -9 26 8 14 24 0 35 -23 18z"/>
 <path d="M970 1815 c-10 -12 -9 -16 5 -21 19 -8 40 9 31 25 -10 15 -21 14 -36 -4z"/>
 <path d="M864 1805 c-10 -26 13 -42 32 -23 15 15 15 17 -5 27 -17 10 -22 9 -27 -4z"/>
 <path d="M1095 1811 c-7 -12 12 -24 25 -16 11 7 4 25 -10 25 -5 0 -11 -4 -15 -9z"/>
 <path d="M99 1796 c-1 -3 -2 -9 -3 -13 -1 -5 -5 -13 -9 -20 -4 -6 -3 -14 3 -18 5 -3 11 -4 11 -1 1 3 2 9 3 14 1 4 5 12 9 19 4 6 3 14 -3 18 -5 3 -11 4 -11 1z"/>
 <path d="M2084 1789 c-3 -6 -1 -16 5 -22 6 -6 11 -7 11 -3 0 5 7 3 15 -4 11 -9 19 -10 27 -2 7 7 1 15 -20 26 -21 11 -33 13 -38 5z"/>
 <path d="M691 1777 c-6 -8 -8 -17 -5 -20 10 -9 45 13 39 24 -9 13 -21 11 -34 -4z"/>
 <path d="M1125 1770 c-11 -17 5 -32 21 -19 7 6 11 15 8 20 -7 12 -21 11 -29 -1z"/>
 <path d="M500 1741 c-6 -12 -6 -22 -1 -26 6 -3 15 3 21 14 6 12 6 22 1 26 -6 3 -15 -3 -21 -14z"/>
 <path d="M575 1751 c-7 -12 12 -24 25 -16 11 7 4 25 -10 25 -5 0 -11 -4 -15 -9z"/>
 <path d="M1305 1711 c-7 -12 12 -24 25 -16 11 7 4 25 -10 25 -5 0 -11 -4 -15 -9z"/>
 <path d="M2236 1711 c-8 -12 21 -34 34 -26 8 5 8 11 -1 21 -13 16 -25 18 -33 5z"/>
 <path d="M1355 1690 c-6 -9 -4 -11 20 -14 6 -1 20 -7 32 -14 13 -7 24 -8 28 -3 3 6 -4 15 -15 21 -11 6 -20 7 -20 3 0 -4 -5 -2 -12 5 -15 15 -25 15 -33 2z"/>
 <path d="M345 1666 c-11 -8 -14 -16 -8 -19 6 -4 18 0 28 7 11 8 14 16 8 19 -6 4 -18 0 -28 -7z"/>
 <path d="M2316 1671 c-9 -15 23 -36 35 -24 8 8 5 14 -9 22 -12 6 -23 7 -26 2z"/>
 <path d="M287 1650 c-8 -12 -20 -20 -28 -18 -7 2 -13 -6 -13 -19 0 -22 3 -25 22 -22 4 1 14 2 22 3 8 0 15 10 15 21 1 11 4 25 8 32 13 21 -11 24 -26 3z"/>
 <path d="M1455 1651 c-3 -6 3 -15 14 -21 12 -6 22 -6 26 -1 3 6 -3 15 -14 21 -12 6 -22 6 -26 1z"/>
 <path d="M1576 1582 c-3 -6 1 -15 8 -21 8 -7 17 -8 20 -3 3 6 -1 15 -8 21 -8 7 -17 8 -20 3z"/>
 <path d="M2471 1546 c-7 -8 -8 -17 -3 -20 6 -3 15 1 21 8 7 8 8 17 3 20 -6 3 -15 -1 -21 -8z"/>
 <path d="M1678 1515 c-4 -4 -2 -19 3 -34 6 -14 11 -28 12 -31 2 -6 19 -1 29 8 4 4 -3 20 -15 35 -12 16 -25 25 -29 22z"/>
 <path d="M2584 1499 c-4 -7 0 -17 8 -23 8 -6 16 -14 16 -18 4 -18 15 -11 18 9 4 26 -30 51 -42 32z"/>
 <path d="M112 1467 c-7 -8 -10 -16 -7 -19 3 -3 -2 -11 -12 -19 -9 -8 -14 -9 -10 -2 4 6 3 14 -2 17 -21 13 -19 -13 3 -33 18 -17 25 -19 34 -9 6 7 10 15 11 18 0 3 3 13 7 23 9 24 -9 42 -24 24z"/>
 <path d="M1745 1460 c-20 -22 -14 -50 10 -46 8 1 14 5 13 8 -2 3 3 12 10 21 13 16 9 37 -7 37 -4 0 -16 -9 -26 -20z"/>
 <path d="M2646 1472 c-3 -5 3 -17 13 -26 11 -10 22 -13 25 -8 3 5 -3 17 -13 26 -11 10 -22 13 -25 8z"/>
 <path d="M1849 1419 c-8 -48 -6 -60 10 -69 25 -13 33 -2 19 24 -7 11 -12 24 -13 28 0 7 -15 23 -16 17z"/>
 <path d="M1985 1340 c-10 -17 22 -47 35 -34 7 7 4 16 -9 28 -14 12 -21 14 -26 6z"/>
 <path d="M2205 1241 c-6 -11 29 -33 39 -24 7 7 -12 33 -25 33 -4 0 -10 -4 -14 -9z"/>
 <path d="M2305 1201 c-6 -11 29 -33 39 -24 7 7 -12 33 -25 33 -4 0 -10 -4 -14 -9z"/>
 <path d="M2435 1141 c-3 -6 4 -15 15 -21 11 -6 20 -8 20 -4 0 3 7 1 15 -6 8 -7 15 -9 15 -5 0 4 6 2 14 -4 9 -8 16 -8 20 -2 4 5 2 12 -4 16 -5 3 -10 3 -10 -1 0 -4 -9 1 -20 11 -11 10 -20 14 -20 10 0 -5 -5 -4 -12 3 -14 14 -25 15 -33 3z"/>
 <path d="M2555 1091 c-7 -12 12 -24 25 -16 11 7 4 25 -10 25 -5 0 -11 -4 -15 -9z"/>
 <path d="M2915 1080 c-4 -6 -3 -16 3 -22 6 -6 12 -6 17 2 4 6 3 16 -3 22 -6 6 -12 6 -17 -2z"/>
 <path d="M2656 1041 c-6 -9 32 -38 56 -43 7 -2 13 4 13 12 0 8 -4 15 -10 15 -5 1 -20 6 -32 13 -12 7 -24 8 -27 3z"/>
 <path d="M2756 981 c-8 -12 21 -34 34 -26 8 5 8 11 -1 21 -13 16 -25 18 -33 5z"/>
 <path d="M2835 961 c-7 -12 12 -24 25 -16 11 7 4 25 -10 25 -5 0 -11 -4 -15 -9z"/>
 <path d="M2885 930 c-3 -5 -2 -10 2 -12 13 -7 33 -3 36 6 3 12 -31 17 -38 6z"/>
 </g>
<g id="layer3" fill="#87593b" stroke="none">
 <path d="M759 2383 c-1 -4 -1 -11 -1 -14 1 -4 -14 -10 -32 -13 -35 -7 -61 -28 -49 -39 9 -10 83 3 116 20 27 14 28 39 1 29 -8 -3 -13 0 -11 6 1 6 -4 13 -10 15 -7 3 -14 1 -14 -4z"/>
 <path d="M847 2383 c-10 -10 24 -43 44 -43 28 0 31 17 7 34 -24 17 -41 20 -51 9z"/>
 <path d="M615 2347 c-12 -10 -14 -16 -7 -21 15 -9 54 12 47 25 -8 12 -18 11 -40 -4z"/>
 <path d="M971 2331 c-9 -17 -8 -22 9 -31 21 -11 22 -11 23 22 2 29 -19 34 -32 9z"/>
 <path d="M1015 2331 c-7 -12 12 -24 25 -16 11 7 4 25 -10 25 -5 0 -11 -4 -15 -9z"/>
 <path d="M566 2311 c-9 -10 -13 -21 -9 -24 3 -4 -3 -7 -15 -7 -11 0 -24 -5 -27 -10 -5 -8 -12 -7 -22 2 -12 10 -18 8 -33 -12 -24 -32 -9 -49 23 -27 14 9 33 14 43 12 12 -3 34 8 57 29 36 32 37 35 19 45 -15 8 -23 6 -36 -8z"/>
 <path d="M1085 2311 c-7 -12 12 -24 25 -16 11 7 4 25 -10 25 -5 0 -11 -4 -15 -9z"/>
 <path d="M1155 2290 c-9 -14 45 -34 58 -21 7 7 1 14 -17 21 -33 12 -33 12 -41 0z"/>
 <path d="M1035 2281 c-6 -11 29 -33 39 -24 7 7 -12 33 -25 33 -4 0 -10 -4 -14 -9z"/>
 <path d="M1236 2261 c-9 -15 23 -36 35 -24 8 8 5 14 -9 22 -12 6 -23 7 -26 2z"/>
 <path d="M335 2241 c-7 -12 12 -24 25 -16 11 7 4 25 -10 25 -5 0 -11 -4 -15 -9z"/>
 <path d="M1145 2231 c-7 -12 12 -24 25 -16 11 7 4 25 -10 25 -5 0 -11 -4 -15 -9z"/>
 <path d="M258 2192 c-35 -36 -61 -89 -48 -97 12 -8 52 56 45 73 -3 7 -1 11 4 8 4 -3 16 3 25 13 10 11 13 22 8 25 -5 3 -20 -7 -34 -22z"/>
 <path d="M1196 2211 c-3 -5 1 -14 8 -20 16 -13 32 2 21 19 -8 12 -22 13 -29 1z"/>
 <path d="M1345 2200 c-9 -14 45 -34 58 -21 7 7 1 14 -17 21 -33 12 -33 12 -41 0z"/>
 <path d="M1285 2180 c-3 -5 -3 -11 2 -12 4 0 13 -2 18 -3 6 -1 23 -7 39 -14 20 -8 33 -8 39 -2 11 11 -38 35 -53 26 -5 -3 -11 -1 -15 5 -8 13 -22 13 -30 0z"/>
 <path d="M1425 2181 c-6 -11 13 -26 22 -17 3 3 12 1 19 -5 7 -6 18 -8 24 -4 14 9 1 28 -16 21 -7 -3 -16 -1 -19 4 -8 13 -22 13 -30 1z"/>
 <path d="M285 2136 c-21 -17 -25 -25 -16 -31 8 -4 23 2 38 18 33 32 15 43 -22 13z"/>
 <path d="M1525 2151 c-7 -12 12 -24 25 -16 11 7 4 25 -10 25 -5 0 -11 -4 -15 -9z"/>
 <path d="M1415 2141 c-7 -13 32 -34 47 -25 7 5 5 11 -7 21 -22 15 -32 16 -40 4z"/>
 <path d="M1625 2121 c-12 -20 81 -59 99 -41 6 6 3 12 -10 16 -10 4 -34 13 -51 20 -18 7 -35 9 -38 5z"/>
 <path d="M1525 2091 c-3 -6 4 -15 15 -21 11 -6 20 -8 20 -4 0 3 7 1 15 -6 8 -6 19 -9 25 -5 14 9 1 28 -15 21 -8 -3 -19 2 -25 10 -14 16 -26 18 -35 5z"/>
 <path d="M120 2078 c-14 -6 -33 -12 -43 -13 -24 -2 -41 -21 -33 -34 9 -14 53 -14 61 -1 4 7 13 7 26 0 26 -15 38 -5 35 27 -4 32 -12 35 -46 21z"/>
 <path d="M191 2056 c-14 -17 -7 -36 14 -36 21 0 26 15 12 34 -12 16 -14 16 -26 2z"/>
 <path d="M1775 1971 c-6 -11 29 -33 39 -24 7 7 -12 33 -25 33 -4 0 -10 -4 -14 -9z"/>
 <path d="M1856 1963 c-3 -3 0 -13 7 -22 11 -14 10 -14 -6 -2 -12 10 -21 11 -28 4 -7 -7 4 -18 33 -36 47 -28 75 -25 39 5 -13 10 -18 18 -13 18 6 0 14 -5 17 -10 4 -6 11 -8 16 -4 5 3 7 10 4 15 -9 14 -62 39 -69 32z"/>
 <path d="M1946 1901 c-4 -5 -2 -12 4 -16 6 -4 8 -10 5 -15 -3 -4 2 -13 9 -19 9 -8 16 -8 20 -2 4 5 2 12 -4 16 -6 4 -8 10 -5 15 3 4 -2 13 -9 19 -9 8 -16 8 -20 2z"/>
 <path d="M2019 1875 c-1 -3 -2 -8 -3 -12 -1 -5 -5 -13 -9 -20 -5 -8 3 -18 22 -28 35 -18 51 -3 20 18 -13 10 -17 17 -10 22 6 3 9 11 6 16 -7 10 -24 12 -26 4z"/>
 <path d="M2076 1861 c-3 -5 10 -21 28 -35 39 -29 58 -20 23 11 -31 28 -45 35 -51 24z"/>
 <path d="M935 1801 c-7 -12 12 -24 25 -16 11 7 4 25 -10 25 -5 0 -11 -4 -15 -9z"/>
 <path d="M2075 1801 c-6 -11 29 -33 39 -24 7 7 -12 33 -25 33 -4 0 -10 -4 -14 -9z"/>
 <path d="M755 1786 c-25 -18 -6 -26 36 -17 19 4 46 4 59 -1 30 -11 50 6 24 20 -29 14 -98 13 -119 -2z"/>
 <path d="M660 1763 c-25 -8 -56 -16 -70 -17 -39 -2 -25 -20 17 -23 41 -2 127 33 117 48 -6 11 -8 11 -64 -8z"/>
 <path d="M2146 1761 c-6 -9 77 -61 98 -61 6 0 20 -7 30 -15 20 -15 41 -11 30 6 -5 9 -137 79 -148 79 -3 0 -7 -4 -10 -9z"/>
 <path d="M2265 1750 c-9 -14 45 -34 58 -21 7 7 1 14 -17 21 -33 12 -33 12 -41 0z"/>
 <path d="M1155 1739 c-7 -10 5 -16 27 -15 10 1 18 6 18 11 0 12 -38 16 -45 4z"/>
 <path d="M2345 1731 c-5 -10 2 -16 44 -39 15 -8 28 -9 34 -3 6 6 -6 17 -31 30 -23 12 -43 17 -47 12z"/>
 <path d="M1255 1721 c-7 -12 12 -24 25 -16 11 7 4 25 -10 25 -5 0 -11 -4 -15 -9z"/>
 <path d="M407 1684 c-11 -11 3 -24 27 -24 12 0 27 -5 32 -10 8 -8 15 -6 24 4 10 13 8 17 -15 26 -30 11 -59 13 -68 4z"/>
 <path d="M2345 1660 c-7 -11 65 -61 77 -54 12 8 2 19 -37 42 -19 12 -37 17 -40 12z"/>
 <path d="M2445 1661 c-8 -13 52 -54 66 -45 8 5 6 11 -7 21 -35 26 -53 33 -59 24z"/>
 <path d="M276 1605 c-18 -15 -24 -25 -17 -30 13 -7 61 20 61 35 0 19 -16 17 -44 -5z"/>
 <path d="M2466 1581 c-3 -5 4 -15 17 -23 12 -8 34 -22 49 -32 46 -30 41 1 -6 33 -49 34 -52 35 -60 22z"/>
 <path d="M2586 1571 c-9 -15 23 -36 35 -24 8 8 5 14 -9 22 -12 6 -23 7 -26 2z"/>
 <path d="M174 1538 c-11 -18 14 -33 31 -18 8 7 13 15 10 18 -10 10 -35 10 -41 0z"/>
 <path d="M1605 1539 c-4 -5 1 -19 11 -30 16 -18 18 -18 36 -2 19 17 19 20 3 23 -5 1 -18 6 -27 11 -11 6 -19 5 -23 -2z"/>
 <path d="M126 1512 c-7 -12 -1 -47 9 -47 12 0 16 43 6 50 -5 3 -12 2 -15 -3z"/>
 <path d="M2575 1511 c-6 -11 29 -33 39 -24 7 7 -12 33 -25 33 -4 0 -10 -4 -14 -9z"/>
 <path d="M2665 1461 c-6 -11 29 -33 39 -24 7 7 -12 33 -25 33 -4 0 -10 -4 -14 -9z"/>
 <path d="M1686 1451 c-9 -14 44 -45 56 -33 6 6 2 15 -13 26 -27 18 -36 20 -43 7z"/>
 <path d="M121 1426 c-9 -10 -9 -16 -1 -21 17 -10 37 12 24 25 -8 8 -15 6 -23 -4z"/>
 <path d="M1756 1411 c-9 -15 23 -36 36 -23 5 5 7 15 4 21 -9 13 -33 14 -40 2z"/>
 <path d="M1816 1381 c-9 -15 23 -36 35 -24 8 8 5 14 -9 22 -12 6 -23 7 -26 2z"/>
 <path d="M2806 1372 c-7 -12 50 -66 62 -58 16 9 7 41 -10 38 -9 -1 -18 4 -22 13 -6 16 -22 20 -30 7z"/>
 <path d="M2897 1343 c-4 -3 -2 -12 5 -20 8 -11 7 -12 -5 -8 -24 10 -30 -13 -6 -25 31 -17 56 8 40 39 -12 21 -23 26 -34 14z"/>
 <path d="M2015 1311 c-7 -12 12 -24 25 -16 11 7 4 25 -10 25 -5 0 -11 -4 -15 -9z"/>
 <path d="M2085 1290 c-9 -15 44 -45 57 -32 7 7 1 15 -20 26 -18 9 -33 12 -37 6z"/>
 <path d="M2165 1251 c-7 -12 12 -24 25 -16 11 7 4 25 -10 25 -5 0 -11 -4 -15 -9z"/>
 <path d="M2241 1226 c-9 -10 -9 -16 -1 -21 17 -10 37 12 24 25 -8 8 -15 6 -23 -4z"/>
 <path d="M2335 1181 c-7 -12 12 -24 25 -16 11 7 4 25 -10 25 -5 0 -11 -4 -15 -9z"/>
 <path d="M2385 1161 c-7 -12 12 -24 25 -16 11 7 4 25 -10 25 -5 0 -11 -4 -15 -9z"/>
 <path d="M2465 1120 c-9 -14 45 -34 58 -21 7 7 1 14 -17 21 -33 12 -33 12 -41 0z"/>
 <path d="M2585 1070 c-3 -5 5 -15 17 -23 67 -41 101 -57 109 -51 12 7 6 29 -7 29 -5 1 -32 13 -61 28 -29 15 -55 23 -58 17z"/>
 <path d="M2726 991 c-7 -10 32 -47 40 -38 4 3 22 -5 40 -20 20 -15 40 -23 50 -19 16 6 16 8 0 25 -9 10 -22 18 -29 19 -30 2 -47 9 -65 25 -21 19 -28 21 -36 8z"/>
 <path d="M2877 914 c-3 -4 -2 -16 4 -26 8 -15 14 -17 22 -9 8 8 7 15 -4 26 -8 9 -18 13 -22 9z"/>
 <path d="M1366 772 c-3 -6 1 -15 8 -21 8 -7 17 -8 20 -3 3 6 -1 15 -8 21 -8 7 -17 8 -20 3z"/>
 <path d="M2811 736 c-7 -8 -8 -17 -3 -20 6 -3 15 1 21 8 7 8 8 17 3 20 -6 3 -15 -1 -21 -8z"/>
 <path d="M1445 731 c-3 -6 3 -15 14 -21 12 -6 22 -6 26 -1 3 6 -3 15 -14 21 -12 6 -22 6 -26 1z"/>
 <path d="M1525 691 c-3 -6 3 -15 14 -21 12 -6 22 -6 26 -1 3 6 -3 15 -14 21 -12 6 -22 6 -26 1z"/>
 <path d="M1705 601 c-3 -6 3 -15 14 -21 12 -6 22 -6 26 -1 3 6 -3 15 -14 21 -12 6 -22 6 -26 1z"/>
 <path d="M1785 561 c-3 -6 3 -15 14 -21 12 -6 22 -6 26 -1 3 6 -3 15 -14 21 -12 6 -22 6 -26 1z"/>
 <path d="M1865 521 c-3 -6 3 -15 14 -21 12 -6 22 -6 26 -1 3 6 -3 15 -14 21 -12 6 -22 6 -26 1z"/>
 </g>
<g id="layer4" fill="#eaa49b" stroke="none">
 <path d="M825 2391 c-7 -12 3 -18 35 -21 39 -3 43 -1 30 15 -14 17 -56 20 -65 6z"/>
 <path d="M705 2381 c-7 -12 12 -24 25 -16 11 7 4 25 -10 25 -5 0 -11 -4 -15 -9z"/>
 <path d="M615 2355 c-59 -30 -80 -49 -71 -64 5 -7 18 -3 39 13 18 13 49 31 70 40 21 8 36 20 32 26 -9 14 -14 13 -70 -15z"/>
 <path d="M904 2369 c-9 -16 12 -33 31 -25 14 5 15 9 5 21 -15 18 -26 19 -36 4z"/>
 <path d="M965 2350 c-7 -11 25 -26 73 -33 17 -3 35 -8 40 -11 4 -3 19 -7 33 -10 13 -2 43 -11 66 -20 42 -15 65 -8 40 12 -13 10 -52 24 -77 27 -8 1 -28 7 -43 13 -15 7 -31 11 -35 10 -4 -1 -20 4 -35 10 -35 15 -54 15 -62 2z"/>
 <path d="M505 2281 c-7 -12 12 -24 25 -16 11 7 4 25 -10 25 -5 0 -11 -4 -15 -9z"/>
 <path d="M411 2269 c-18 -7 -22 -12 -13 -21 14 -14 67 6 57 22 -7 12 -12 12 -44 -1z"/>
 <path d="M1246 2261 c-9 -14 44 -45 56 -33 6 6 2 15 -13 26 -27 18 -36 20 -43 7z"/>
 <path d="M345 2250 c-3 -6 -10 -8 -15 -5 -21 13 -93 -44 -111 -87 l-12 -30 -14 26 c-7 14 -20 26 -27 26 -13 0 -66 -71 -66 -89 0 -5 -8 -12 -17 -15 -11 -4 -13 -10 -6 -17 6 -6 28 -5 63 4 55 14 79 35 112 96 16 29 79 75 103 76 5 0 11 4 13 10 5 14 -15 18 -23 5z"/>
 <path d="M1316 2221 c-10 -15 56 -43 129 -55 17 -2 64 -16 105 -30 41 -15 76 -27 77 -27 7 0 80 -31 96 -40 23 -13 42 -2 27 16 -12 14 -71 37 -102 40 -9 1 -22 6 -30 12 -13 11 -111 45 -138 48 -8 1 -22 5 -30 7 -8 3 -35 11 -59 18 -23 6 -49 14 -56 16 -7 3 -16 1 -19 -5z"/>
 <path d="M27 2053 c-10 -9 -8 -43 2 -43 5 0 14 7 21 15 17 21 -4 48 -23 28z"/>
 <path d="M120 2035 c-14 -17 -7 -31 20 -38 20 -5 49 27 33 36 -26 13 -43 14 -53 2z"/>
 <path d="M1798 2024 c-15 -14 22 -63 57 -74 19 -6 59 -29 87 -51 53 -40 72 -46 83 -30 7 12 -54 43 -68 34 -5 -3 -7 -1 -4 4 8 13 -17 35 -68 58 -22 9 -49 29 -60 42 -11 13 -23 21 -27 17z"/>
 <path d="M2066 1872 c-6 -10 70 -63 78 -54 12 12 5 23 -26 42 -37 22 -44 24 -52 12z"/>
 <path d="M2175 1791 c-6 -11 6 -20 32 -26 32 -8 177 -61 200 -73 24 -13 41 0 20 15 -33 24 -196 85 -208 77 -4 -2 -10 0 -14 6 -8 13 -22 13 -30 1z"/>
 <path d="M1455 1641 c-6 -11 29 -33 39 -24 7 7 -12 33 -25 33 -4 0 -10 -4 -14 -9z"/>
 <path d="M2486 1641 c-7 -11 62 -53 75 -45 14 8 3 21 -33 38 -37 19 -35 19 -42 7z"/>
 <path d="M2566 1591 c-3 -5 5 -16 19 -25 30 -20 125 -115 141 -142 10 -16 14 -17 25 -6 12 11 0 27 -73 98 -85 82 -101 93 -112 75z"/>
 <path d="M105 1410 c-10 -17 12 -37 25 -24 8 8 6 15 -4 23 -10 9 -16 9 -21 1z"/>
 <path d="M2786 1381 c-7 -10 18 -34 27 -25 3 3 15 0 28 -6 12 -7 36 -14 53 -17 39 -6 42 -9 27 -27 -17 -20 -4 -41 14 -26 28 23 6 82 -28 79 -12 -1 -39 6 -59 15 -42 18 -55 20 -62 7z"/>
 <path d="M545 1171 c-3 -6 3 -15 14 -21 12 -6 22 -6 26 -1 3 6 -3 15 -14 21 -12 6 -22 6 -26 1z"/>
 <path d="M625 1131 c-3 -6 3 -15 14 -21 12 -6 22 -6 26 -1 3 6 -3 15 -14 21 -12 6 -22 6 -26 1z"/>
 <path d="M725 1081 c-6 -11 29 -33 39 -24 7 7 -12 33 -25 33 -4 0 -10 -4 -14 -9z"/>
 <path d="M2575 1081 c-7 -12 12 -24 25 -16 11 7 4 25 -10 25 -5 0 -11 -4 -15 -9z"/>
 <path d="M816 1042 c-3 -6 1 -15 8 -21 8 -7 17 -8 20 -3 3 6 -1 15 -8 21 -8 7 -17 8 -20 3z"/>
 <path d="M885 1000 c-3 -5 8 -16 24 -25 36 -18 51 -3 19 19 -26 18 -35 20 -43 6z"/>
 <path d="M966 961 c-4 -5 -2 -12 4 -16 5 -3 10 -3 10 1 0 3 7 1 15 -6 34 -28 149 -80 158 -71 6 6 -22 25 -72 50 -44 23 -81 38 -81 35 0 -4 -6 -1 -14 5 -9 8 -16 8 -20 2z"/>
 <path d="M1196 851 c-9 -15 23 -36 35 -24 8 8 5 14 -9 22 -12 6 -23 7 -26 2z"/>
 <path d="M2885 850 c-4 -6 -3 -16 3 -22 6 -6 12 -6 17 2 4 6 3 16 -3 22 -6 6 -12 6 -17 -2z"/>
 <path d="M1255 820 c-9 -15 44 -45 57 -32 7 7 1 15 -20 26 -18 9 -33 12 -37 6z"/>
 <path d="M1335 780 c-5 -9 50 -50 67 -50 24 0 12 21 -22 39 -22 11 -42 16 -45 11z"/>
 <path d="M1435 730 c-9 -15 44 -45 57 -32 7 7 1 15 -20 26 -18 9 -33 12 -37 6z"/>
 <path d="M1515 690 c-9 -15 44 -45 57 -32 7 7 1 15 -20 26 -18 9 -33 12 -37 6z"/>
 <path d="M1595 650 c-9 -15 44 -45 57 -32 7 7 1 15 -20 26 -18 9 -33 12 -37 6z"/>
 <path d="M1696 601 c-9 -15 23 -36 35 -24 8 8 5 14 -9 22 -12 6 -23 7 -26 2z"/>
 <path d="M1776 561 c-9 -15 23 -36 35 -24 8 8 5 14 -9 22 -12 6 -23 7 -26 2z"/>
 <path d="M1855 521 c-8 -14 30 -37 62 -36 31 0 39 20 8 20 -11 0 -30 6 -42 13 -13 7 -24 8 -28 3z"/>
 <path d="M1986 502 c-3 -6 1 -15 8 -21 8 -7 17 -8 20 -3 3 6 -1 15 -8 21 -8 7 -17 8 -20 3z"/>
 </g>
<g id="layer5" fill="#744d2c" stroke="none">
 <path d="M775 2380 c-3 -5 0 -13 9 -16 21 -8 71 -1 71 11 0 14 -72 19 -80 5z"/>
 <path d="M699 2378 c-6 -22 -5 -39 3 -44 13 -8 40 25 32 37 -5 8 -33 13 -35 7z"/>
 <path d="M656 2361 c-4 -5 -2 -12 4 -16 6 -4 8 -11 4 -16 -3 -5 -10 -7 -15 -3 -13 7 -41 -15 -33 -27 3 -5 15 -4 27 3 12 7 26 12 32 13 13 0 12 48 -2 52 -6 2 -14 0 -17 -6z"/>
 <path d="M934 2348 c-11 -18 26 -40 44 -26 12 10 11 14 -4 25 -22 16 -31 16 -40 1z"/>
 <path d="M593 2328 c-4 -7 -8 -17 -8 -23 0 -5 -6 -10 -12 -10 -7 0 -13 -3 -13 -7 0 -5 0 -11 0 -14 0 -4 6 -2 13 4 6 6 17 11 22 11 6 1 10 4 10 9 0 4 4 12 8 19 4 6 3 14 -2 17 -5 4 -13 1 -18 -6z"/>
 <path d="M1045 2320 c-7 -11 35 -31 48 -23 11 6 -12 33 -29 33 -7 0 -16 -5 -19 -10z"/>
 <path d="M996 2312 c-3 -6 1 -15 8 -21 8 -7 17 -8 20 -3 3 6 -1 15 -8 21 -8 7 -17 8 -20 3z"/>
 <path d="M1115 2300 c-6 -10 8 -19 42 -25 10 -2 19 -4 21 -5 1 -2 5 -3 10 -4 4 -1 17 -7 29 -14 12 -7 24 -8 27 -3 8 12 -20 34 -33 27 -5 -4 -12 -2 -16 4 -4 6 -10 8 -15 5 -4 -3 -13 2 -20 10 -14 17 -36 20 -45 5z"/>
 <path d="M412 2259 c-13 -5 -20 -14 -17 -20 4 -6 13 -8 21 -5 7 3 16 1 20 -5 4 -6 11 -6 20 2 11 9 11 15 3 25 -13 16 -16 16 -47 3z"/>
 <path d="M1115 2241 c-7 -12 12 -24 25 -16 11 7 4 25 -10 25 -5 0 -11 -4 -15 -9z"/>
 <path d="M1255 2240 c-9 -14 75 -54 87 -42 7 7 -3 17 -30 31 -47 24 -49 24 -57 11z"/>
 <path d="M295 2227 c-12 -10 -14 -16 -7 -21 15 -9 54 12 47 25 -8 12 -18 11 -40 -4z"/>
 <path d="M1166 2231 c-7 -11 22 -36 31 -27 3 3 14 -1 23 -9 9 -8 30 -16 46 -18 16 -2 35 -6 41 -10 7 -4 14 -3 18 3 3 5 4 11 1 11 -14 3 -23 6 -50 18 -16 6 -36 13 -45 14 -9 2 -26 8 -38 15 -12 7 -24 8 -27 3z"/>
 <path d="M371 2207 c-6 -8 -8 -17 -5 -20 10 -9 45 13 39 24 -9 13 -21 11 -34 -4z"/>
 <path d="M1366 2191 c-4 -5 -2 -12 4 -16 6 -4 8 -10 5 -15 -8 -13 23 -33 41 -26 9 4 14 9 11 13 -4 3 -2 12 4 19 7 8 7 14 -1 19 -14 9 -32 -4 -24 -17 4 -6 1 -9 -7 -6 -8 3 -14 10 -14 16 0 16 -12 25 -19 13z"/>
 <path d="M245 2180 c-4 -6 -3 -16 3 -22 6 -6 12 -6 17 2 4 6 3 16 -3 22 -6 6 -12 6 -17 -2z"/>
 <path d="M1456 2171 c-4 -5 -2 -12 4 -16 5 -3 10 -4 10 -1 0 3 12 -1 27 -9 15 -8 30 -12 35 -9 13 9 -13 35 -31 32 -9 -1 -21 1 -28 5 -6 4 -14 3 -17 -2z"/>
 <path d="M316 2162 c-3 -6 1 -15 8 -21 8 -7 17 -8 20 -3 3 6 -1 15 -8 21 -8 7 -17 8 -20 3z"/>
 <path d="M1555 2140 c-9 -14 66 -43 79 -30 6 6 -3 15 -27 25 -43 18 -44 18 -52 5z"/>
 <path d="M1465 2120 c-8 -14 55 -44 67 -32 7 7 0 16 -20 26 -36 19 -39 19 -47 6z"/>
 <path d="M244 2108 c-4 -5 -13 -7 -21 -4 -20 8 -67 -24 -54 -37 7 -7 19 -4 36 7 15 10 29 15 32 12 4 -3 12 -1 19 4 6 6 16 9 22 8 5 -2 9 1 9 7 -2 12 -36 14 -43 3z"/>
 <path d="M1555 2081 c-7 -12 12 -24 25 -16 11 7 4 25 -10 25 -5 0 -11 -4 -15 -9z"/>
 <path d="M1716 2082 c-3 -5 17 -31 45 -58 27 -27 47 -54 45 -61 -8 -20 16 -32 44 -21 24 9 24 10 6 23 -10 8 -23 12 -29 8 -6 -3 -7 -1 -3 5 4 6 -10 30 -30 52 -41 45 -70 65 -78 52z"/>
 <path d="M1605 2060 c-3 -5 8 -16 25 -25 16 -8 30 -13 30 -11 0 3 25 -11 56 -29 52 -32 83 -38 68 -14 -6 11 -85 54 -99 54 -6 0 -21 8 -35 18 -28 19 -36 21 -45 7z"/>
 <path d="M155 2040 c-8 -12 20 -24 35 -15 6 3 8 11 5 16 -8 12 -32 12 -40 -1z"/>
 <path d="M1885 1940 c-4 -6 -10 -8 -15 -5 -5 3 -11 1 -14 -4 -4 -5 -2 -12 3 -15 5 -4 12 -2 16 4 4 6 10 8 15 5 5 -3 11 -1 14 4 4 5 2 12 -3 15 -5 4 -12 2 -16 -4z"/>
 <path d="M1911 1911 c-12 -22 6 -42 42 -46 36 -4 37 -4 35 -16 -5 -21 21 -20 32 0 9 18 7 23 -15 31 -13 5 -32 7 -42 3 -12 -5 -15 -2 -11 9 6 15 -8 38 -24 38 -4 0 -12 -9 -17 -19z"/>
 <path d="M2055 1861 c-7 -12 12 -24 25 -16 11 7 4 25 -10 25 -5 0 -11 -4 -15 -9z"/>
 <path d="M2056 1822 c-3 -6 1 -15 8 -21 8 -7 17 -8 20 -3 3 6 -1 15 -8 21 -8 7 -17 8 -20 3z"/>
 <path d="M998 1814 c-4 -3 -12 -6 -20 -7 -29 -5 -10 -22 24 -22 28 0 42 -7 53 -23 10 -14 24 -21 38 -18 22 3 27 20 7 22 -5 1 -14 2 -20 3 -5 0 -7 8 -4 16 8 21 -61 47 -78 29z"/>
 <path d="M892 1794 c-11 -8 -25 -13 -29 -12 -4 2 -10 -1 -13 -6 -9 -17 41 -13 62 4 27 21 9 34 -20 14z"/>
 <path d="M2106 1792 c-3 -6 1 -15 8 -21 8 -7 17 -8 20 -3 3 6 -1 15 -8 21 -8 7 -17 8 -20 3z"/>
 <path d="M2156 1791 c-6 -10 17 -33 30 -30 5 1 22 -3 38 -10 36 -14 59 1 27 18 -12 7 -27 11 -34 9 -6 -1 -22 3 -34 10 -12 7 -24 8 -27 3z"/>
 <path d="M715 1771 c-7 -12 12 -24 25 -16 11 7 4 25 -10 25 -5 0 -11 -4 -15 -9z"/>
 <path d="M585 1741 c-7 -12 12 -24 25 -16 11 7 4 25 -10 25 -5 0 -11 -4 -15 -9z"/>
 <path d="M1215 1731 c-7 -12 12 -24 25 -16 11 7 4 25 -10 25 -5 0 -11 -4 -15 -9z"/>
 <path d="M2325 1731 c-7 -12 12 -24 25 -16 11 7 4 25 -10 25 -5 0 -11 -4 -15 -9z"/>
 <path d="M481 1686 c-8 -10 -8 -16 3 -25 10 -9 16 -8 26 3 12 15 6 36 -9 36 -5 0 -14 -6 -20 -14z"/>
 <path d="M2406 1691 c-3 -4 5 -18 18 -30 29 -27 47 -10 20 20 -19 21 -30 24 -38 10z"/>
 <path d="M2305 1681 c-7 -13 32 -34 47 -25 7 5 5 11 -7 21 -22 15 -32 16 -40 4z"/>
 <path d="M395 1671 c-7 -12 12 -24 25 -16 11 7 4 25 -10 25 -5 0 -11 -4 -15 -9z"/>
 <path d="M446 1672 c-3 -6 1 -15 8 -21 8 -7 17 -8 20 -3 3 6 -1 15 -8 21 -8 7 -17 8 -20 3z"/>
 <path d="M339 1653 c-1 -4 -1 -12 0 -17 1 -5 -5 -4 -13 4 -9 7 -16 11 -17 9 -10 -50 -1 -58 30 -25 15 15 19 26 12 31 -6 3 -12 3 -12 -2z"/>
 <path d="M2416 1622 c-5 -9 15 -31 41 -46 26 -15 21 14 -6 33 -16 12 -32 17 -35 13z"/>
 <path d="M2495 1620 c-3 -5 12 -18 34 -29 22 -12 43 -25 46 -31 7 -11 25 -4 25 10 0 9 -80 60 -93 60 -3 0 -8 -4 -12 -10z"/>
 <path d="M224 1578 c-11 -18 14 -33 31 -18 8 7 13 15 10 18 -10 10 -35 10 -41 0z"/>
 <path d="M2607 1553 c-4 -4 5 -20 20 -36 24 -25 25 -28 6 -18 -14 7 -24 8 -28 1 -7 -11 54 -52 67 -44 5 3 17 -5 28 -18 14 -18 21 -20 31 -11 9 9 -2 25 -49 72 -63 64 -65 65 -75 54z"/>
 <path d="M141 1536 c-14 -17 -19 -94 -6 -98 6 -2 10 9 11 25 1 15 9 35 18 46 14 15 14 20 3 30 -11 9 -17 8 -26 -3z"/>
 <path d="M2556 1532 c-3 -6 1 -15 8 -21 8 -7 17 -8 20 -3 3 6 -1 15 -8 21 -8 7 -17 8 -20 3z"/>
 <path d="M1655 1480 c-10 -16 26 -53 39 -40 7 7 4 17 -11 31 -14 15 -23 18 -28 9z"/>
 <path d="M1705 1430 c-3 -5 8 -16 24 -25 30 -15 52 -6 28 12 -20 16 -46 23 -52 13z"/>
 <path d="M1785 1391 c-7 -12 12 -24 25 -16 11 7 4 25 -10 25 -5 0 -11 -4 -15 -9z"/>
 <path d="M1845 1361 c-7 -12 12 -24 25 -16 11 7 4 25 -10 25 -5 0 -11 -4 -15 -9z"/>
 <path d="M2826 1361 c-8 -12 21 -34 34 -26 8 5 8 11 -1 21 -13 16 -25 18 -33 5z"/>
 <path d="M2884 1339 c-2 -4 0 -10 6 -14 5 -3 10 -3 10 1 0 3 6 1 14 -5 10 -9 16 -9 21 -1 4 6 4 14 1 18 -9 9 -46 10 -52 1z"/>
 <path d="M2065 1291 c-7 -12 12 -24 25 -16 11 7 4 25 -10 25 -5 0 -11 -4 -15 -9z"/>
 <path d="M2135 1261 c-7 -12 12 -24 25 -16 11 7 4 25 -10 25 -5 0 -11 -4 -15 -9z"/>
 <path d="M2185 1240 c-5 -8 44 -41 60 -40 3 0 22 -7 42 -15 23 -10 40 -12 46 -6 6 6 -4 15 -28 25 -21 9 -40 14 -43 11 -3 -2 -16 5 -30 15 -28 22 -38 25 -47 10z"/>
 <path d="M515 1191 c-6 -11 29 -33 39 -24 7 7 -12 33 -25 33 -4 0 -10 -4 -14 -9z"/>
 <path d="M595 1151 c-6 -11 29 -33 39 -24 7 7 -12 33 -25 33 -4 0 -10 -4 -14 -9z"/>
 <path d="M2395 1150 c-7 -12 52 -43 67 -34 7 4 2 13 -13 25 -27 21 -45 24 -54 9z"/>
 <path d="M675 1110 c-3 -5 8 -16 24 -25 36 -18 51 -3 19 19 -26 18 -35 20 -43 6z"/>
 <path d="M2515 1101 c-7 -12 12 -24 25 -16 11 7 4 25 -10 25 -5 0 -11 -4 -15 -9z"/>
 <path d="M2566 1082 c-3 -6 1 -15 8 -21 8 -7 17 -8 20 -3 3 6 -1 15 -8 21 -8 7 -17 8 -20 3z"/>
 <path d="M755 1070 c-3 -5 8 -16 24 -25 36 -18 51 -3 19 19 -26 18 -35 20 -43 6z"/>
 <path d="M835 1030 c-3 -5 8 -16 24 -25 36 -18 51 -3 19 19 -26 18 -35 20 -43 6z"/>
 <path d="M935 980 c-3 -5 8 -16 24 -25 36 -18 51 -3 19 19 -26 18 -35 20 -43 6z"/>
 <path d="M2755 960 c-8 -12 20 -24 35 -15 6 3 8 11 5 16 -8 12 -32 12 -40 -1z"/>
 <path d="M1025 941 c-3 -6 3 -15 14 -21 12 -6 22 -6 26 -1 3 6 -3 15 -14 21 -12 6 -22 6 -26 1z"/>
 <path d="M2816 932 c-3 -5 0 -17 7 -26 12 -16 14 -16 26 -3 10 13 9 17 -8 26 -11 6 -22 7 -25 3z"/>
 <path d="M1105 901 c-3 -6 3 -15 14 -21 12 -6 22 -6 26 -1 3 6 -3 15 -14 21 -12 6 -22 6 -26 1z"/>
 <path d="M1185 860 c-3 -5 8 -16 24 -25 18 -9 32 -11 36 -5 3 5 -8 16 -24 25 -18 9 -32 11 -36 5z"/>
 <path d="M1265 820 c-3 -5 17 -21 44 -35 29 -14 52 -21 56 -15 3 5 -17 21 -44 35 -29 14 -52 21 -56 15z"/>
 <path d="M2841 766 c-7 -8 -8 -17 -3 -20 6 -3 15 1 21 8 7 8 8 17 3 20 -6 3 -15 -1 -21 -8z"/>
 <path d="M1385 760 c-3 -5 8 -16 24 -25 18 -9 32 -11 36 -5 3 5 -8 16 -24 25 -18 9 -32 11 -36 5z"/>
 <path d="M1485 711 c-3 -6 3 -15 14 -21 12 -6 22 -6 26 -1 3 6 -3 15 -14 21 -12 6 -22 6 -26 1z"/>
 <path d="M1565 670 c-3 -5 8 -16 24 -25 18 -9 32 -11 36 -5 3 5 -8 16 -24 25 -18 9 -32 11 -36 5z"/>
 <path d="M1645 630 c-3 -5 8 -16 24 -25 18 -9 32 -11 36 -5 3 5 -8 16 -24 25 -18 9 -32 11 -36 5z"/>
 <path d="M1745 581 c-3 -6 3 -15 14 -21 12 -6 22 -6 26 -1 3 6 -3 15 -14 21 -12 6 -22 6 -26 1z"/>
 <path d="M1825 541 c-3 -6 3 -15 14 -21 12 -6 22 -6 26 -1 3 6 -3 15 -14 21 -12 6 -22 6 -26 1z"/>
 <path d="M1895 511 c-7 -12 12 -24 25 -16 11 7 4 25 -10 25 -5 0 -11 -4 -15 -9z"/>
 <path d="M2085 500 c-3 -5 -2 -10 2 -12 13 -7 33 -3 36 6 3 12 -31 17 -38 6z"/>
 </g>
<g id="layer6" fill="#68421d" stroke="none">
 <path d="M735 2376 c-14 -10 -15 -15 -6 -21 8 -4 19 -1 28 8 20 19 1 30 -22 13z"/>
 <path d="M681 2366 c-6 -7 -7 -17 -3 -22 4 -4 0 -3 -9 3 -23 18 -86 -21 -69 -42 13 -16 34 -10 25 6 -4 5 -2 9 4 9 5 0 13 -4 16 -10 4 -6 16 -3 31 6 13 9 22 19 19 22 -2 3 0 11 6 18 6 7 6 14 1 18 -6 3 -15 0 -21 -8z"/>
 <path d="M805 2370 c-11 -18 5 -29 35 -25 36 4 52 13 45 26 -8 12 -72 12 -80 -1z"/>
 <path d="M956 2341 c-11 -17 35 -41 56 -30 22 12 13 33 -9 25 -9 -4 -21 -2 -28 4 -9 7 -15 7 -19 1z"/>
 <path d="M1039 2323 c-1 -4 -1 -11 0 -15 0 -5 -3 -7 -8 -5 -20 5 -14 -19 7 -28 12 -5 22 -13 22 -18 0 -9 48 -30 73 -31 16 0 25 18 10 20 -34 4 -98 49 -89 63 4 5 2 12 -4 16 -5 3 -11 3 -11 -2z"/>
 <path d="M1105 2300 c-3 -5 -4 -11 -1 -11 16 -4 26 -7 31 -9 3 -1 10 -4 15 -5 6 -1 12 -4 15 -5 3 -1 8 -3 13 -4 4 -1 21 -10 39 -19 19 -10 34 -13 38 -7 3 5 -8 16 -25 25 -16 8 -30 13 -30 9 0 -4 -7 -1 -15 6 -8 7 -15 9 -15 5 0 -4 -7 -2 -15 5 -8 7 -15 9 -15 5 0 -4 -6 -2 -14 4 -10 8 -16 9 -21 1z"/>
 <path d="M535 2281 c-7 -12 12 -24 25 -16 11 7 4 25 -10 25 -5 0 -11 -4 -15 -9z"/>
 <path d="M495 2270 c-3 -5 -12 -7 -20 -3 -9 3 -21 1 -28 -4 -6 -5 -21 -9 -32 -8 -11 0 -28 -3 -38 -8 -18 -8 -18 -10 -2 -27 17 -19 18 -19 63 5 35 19 49 22 59 13 18 -14 38 4 30 26 -7 18 -23 21 -32 6z"/>
 <path d="M302 2220 c-46 -28 -94 -107 -81 -132 12 -22 33 -14 24 10 -8 21 39 88 75 107 17 9 28 20 25 25 -8 13 -4 13 -43 -10z"/>
 <path d="M1265 2230 c-3 -6 1 -13 10 -16 8 -4 14 -12 13 -19 -2 -8 2 -13 7 -12 6 1 9 6 7 10 -1 5 2 6 7 3 5 -4 12 -2 16 3 3 6 -8 17 -24 26 -19 9 -32 11 -36 5z"/>
 <path d="M1196 2221 c-4 -5 -2 -12 4 -16 5 -3 10 -3 10 1 0 3 7 1 15 -6 8 -7 15 -9 15 -5 0 4 6 2 14 -4 10 -8 16 -9 21 -1 3 5 4 11 1 11 -16 4 -26 7 -31 9 -3 1 -8 3 -12 4 -5 1 -13 5 -20 9 -6 4 -14 3 -17 -2z"/>
 <path d="M1326 2191 c-11 -13 -14 -21 -7 -26 11 -6 15 1 11 20 -1 6 2 6 7 2 4 -5 8 -14 8 -20 0 -19 28 -14 31 6 4 28 -30 40 -50 18z"/>
 <path d="M1390 2171 c-6 -12 -6 -22 -1 -26 6 -3 15 3 21 14 6 12 6 22 1 26 -6 3 -15 -3 -21 -14z"/>
 <path d="M325 2170 c-11 -17 5 -32 21 -19 7 6 11 15 8 20 -7 12 -21 11 -29 -1z"/>
 <path d="M1446 2171 c-4 -5 -2 -12 4 -16 5 -3 10 -3 10 1 0 3 7 1 15 -6 8 -7 15 -9 15 -5 0 4 6 2 14 -4 10 -8 16 -9 21 -1 3 5 4 11 1 11 -16 4 -26 7 -31 9 -3 1 -8 3 -12 4 -5 1 -13 5 -20 9 -6 4 -14 3 -17 -2z"/>
 <path d="M1415 2150 c-3 -5 8 -16 24 -25 18 -9 32 -11 36 -5 3 5 -8 16 -24 25 -18 9 -32 11 -36 5z"/>
 <path d="M1545 2140 c-3 -5 -4 -11 -1 -11 3 -1 9 -2 14 -3 4 -1 17 -7 30 -14 12 -7 22 -10 22 -7 0 3 11 -2 25 -11 14 -9 28 -14 32 -10 3 3 21 -5 39 -19 18 -14 35 -21 38 -16 6 10 -25 41 -46 45 -7 2 -21 6 -30 10 -9 4 -22 9 -30 10 -7 1 -23 8 -35 14 -13 7 -23 10 -23 6 0 -3 -6 -1 -14 5 -10 8 -16 9 -21 1z"/>
 <path d="M1505 2110 c-3 -5 8 -16 24 -25 18 -9 32 -11 36 -5 3 5 -8 16 -24 25 -18 9 -32 11 -36 5z"/>
 <path d="M149 2074 c-19 -23 1 -37 24 -17 17 14 19 14 9 1 -8 -9 -9 -19 -4 -22 12 -7 28 13 28 33 -1 18 -43 22 -57 5z"/>
 <path d="M1596 2071 c-4 -5 -2 -12 4 -16 5 -3 10 -3 10 0 0 4 14 -3 31 -16 21 -15 34 -18 41 -11 7 7 1 15 -21 26 -17 9 -31 14 -31 10 0 -4 -6 -1 -14 5 -9 8 -16 8 -20 2z"/>
 <path d="M65 2051 c-7 -12 12 -24 25 -16 11 7 4 25 -10 25 -5 0 -11 -4 -15 -9z"/>
 <path d="M1787 1989 c-9 -6 -15 -15 -12 -20 4 -5 11 -7 16 -3 6 3 21 -6 34 -20 15 -16 30 -23 40 -20 10 4 15 2 13 -6 -3 -14 40 -22 48 -9 5 9 -37 39 -60 43 -9 1 -26 12 -38 23 -18 17 -27 19 -41 12z"/>
 <path d="M1935 1901 c-7 -13 37 -57 65 -64 28 -7 33 7 10 28 -11 10 -20 14 -20 10 0 -5 -11 2 -24 14 -15 14 -26 19 -31 12z"/>
 <path d="M2037 1873 c-4 -3 -2 -12 3 -19 6 -6 9 -16 8 -22 -2 -5 1 -12 6 -13 14 -6 15 40 1 51 -7 5 -15 7 -18 3z"/>
 <path d="M2106 1833 c-3 -4 1 -14 9 -23 9 -10 15 -23 13 -30 -2 -7 39 -34 92 -61 118 -60 118 -60 125 -49 3 6 -14 20 -39 32 -25 12 -43 25 -40 30 3 5 12 4 20 -3 8 -6 14 -8 14 -4 0 4 7 2 15 -5 8 -7 15 -10 15 -6 0 3 18 -5 40 -19 21 -13 42 -20 45 -15 6 10 -34 40 -62 45 -10 2 -19 4 -20 5 -2 2 -6 3 -10 4 -5 1 -14 5 -20 9 -7 5 -13 6 -13 3 0 -3 -12 1 -27 9 -28 15 -48 11 -37 -7 4 -7 2 -8 -5 -4 -6 4 -9 11 -6 16 3 4 -2 13 -9 19 -10 8 -16 9 -21 1 -9 -15 -25 -12 -19 4 6 15 -49 60 -60 49z"/>
 <path d="M1036 1813 c-4 -5 -12 -8 -17 -8 -5 0 -9 -4 -9 -10 0 -5 4 -10 10 -10 5 0 17 -10 25 -23 22 -30 37 -19 23 16 -16 36 -23 44 -32 35z"/>
 <path d="M815 1791 c-3 -6 3 -15 14 -21 12 -6 22 -6 26 -1 3 6 -3 15 -14 21 -12 6 -22 6 -26 1z"/>
 <path d="M765 1780 c-4 -6 -10 -8 -15 -5 -5 3 -11 1 -14 -4 -4 -5 -2 -12 3 -15 5 -4 12 -2 16 4 4 6 10 8 15 5 5 -3 11 -1 14 4 4 5 2 12 -3 15 -5 4 -12 2 -16 -4z"/>
 <path d="M1095 1750 c-7 -12 20 -24 34 -16 5 4 12 2 16 -4 4 -6 11 -8 16 -4 5 3 7 10 3 15 -3 5 -9 7 -14 4 -5 -3 -11 -1 -15 5 -8 13 -32 13 -40 0z"/>
 <path d="M655 1740 c-4 -6 -10 -8 -15 -5 -5 3 -11 1 -14 -4 -4 -5 -2 -12 3 -15 5 -4 12 -2 16 4 4 6 10 8 15 5 5 -3 11 -1 14 4 4 5 2 12 -3 15 -5 4 -12 2 -16 -4z"/>
 <path d="M1196 1742 c-3 -6 1 -15 8 -21 8 -7 17 -8 20 -3 3 6 -1 15 -8 21 -8 7 -17 8 -20 3z"/>
 <path d="M505 1720 c-14 -16 -15 -22 -5 -35 7 -8 17 -12 22 -9 5 3 7 8 4 11 -3 3 -1 14 4 24 14 26 -4 32 -25 9z"/>
 <path d="M1286 1711 c-4 -5 -2 -12 4 -16 5 -3 10 -4 10 -1 0 3 16 -4 36 -15 24 -13 40 -17 47 -10 6 6 -2 15 -23 26 -17 9 -34 14 -38 11 -3 -3 -11 -1 -18 5 -8 6 -14 6 -18 0z"/>
 <path d="M375 1670 c-3 -5 -2 -11 2 -13 12 -7 47 -2 53 7 7 11 -48 17 -55 6z"/>
 <path d="M1425 1650 c-9 -15 44 -45 57 -32 7 7 1 15 -20 26 -18 9 -33 12 -37 6z"/>
 <path d="M1505 1610 c-9 -15 44 -45 57 -32 7 7 1 15 -20 26 -18 9 -33 12 -37 6z"/>
 <path d="M2526 1601 c-3 -5 5 -16 19 -25 24 -16 45 -6 22 11 -24 19 -36 23 -41 14z"/>
 <path d="M2496 1571 c-7 -11 55 -52 68 -44 5 3 0 12 -10 20 -34 26 -53 33 -58 24z"/>
 <path d="M210 1555 c-19 -23 -1 -39 21 -19 10 9 16 21 13 25 -8 13 -20 11 -34 -6z"/>
 <path d="M1585 1561 c-10 -17 15 -45 29 -31 7 7 5 15 -6 26 -11 11 -18 13 -23 5z"/>
 <path d="M2586 1562 c-3 -6 1 -15 8 -21 8 -7 17 -8 20 -3 3 6 -1 15 -8 21 -8 7 -17 8 -20 3z"/>
 <path d="M151 1516 c-14 -15 -19 -26 -12 -31 10 -6 15 0 13 16 -1 4 7 5 17 2 24 -6 35 11 18 26 -11 8 -19 5 -36 -13z"/>
 <path d="M1616 1511 c-7 -10 58 -73 67 -65 7 8 -31 61 -49 68 -7 3 -16 2 -18 -3z"/>
 <path d="M2636 1512 c-7 -12 52 -74 64 -67 6 4 -3 21 -22 41 -36 38 -35 37 -42 26z"/>
 <path d="M1711 1456 c-7 -8 -8 -17 -3 -20 6 -3 15 1 21 8 7 8 8 17 3 20 -6 3 -15 -1 -21 -8z"/>
 <path d="M130 1421 c-6 -12 -6 -22 -1 -26 6 -3 15 3 21 14 6 12 6 22 1 26 -6 3 -15 -3 -21 -14z"/>
 <path d="M1735 1410 c-3 -5 12 -18 34 -30 23 -11 42 -16 46 -10 3 5 -12 18 -34 30 -23 11 -42 16 -46 10z"/>
 <path d="M155 1370 c-3 -5 12 -18 34 -30 50 -25 65 -9 19 20 -37 23 -44 24 -53 10z"/>
 <path d="M1835 1360 c-7 -11 25 -29 62 -34 15 -2 40 -8 55 -14 15 -6 38 -13 50 -15 13 -1 33 -8 46 -15 12 -7 22 -10 22 -7 0 3 11 -2 24 -10 15 -10 26 -12 30 -6 4 5 -3 15 -14 21 -11 6 -20 8 -20 4 0 -4 -8 1 -19 10 -10 9 -22 16 -27 15 -5 -1 -25 5 -45 14 -20 9 -50 19 -65 21 -16 3 -44 10 -61 15 -19 5 -35 6 -38 1z"/>
 <path d="M2867 1344 c-15 -15 -6 -35 20 -45 17 -6 30 -6 36 0 7 7 2 13 -14 19 -13 5 -23 13 -21 18 4 11 -12 17 -21 8z"/>
 <path d="M255 1320 c-3 -5 8 -16 24 -25 36 -18 51 -3 19 19 -26 18 -35 20 -43 6z"/>
 <path d="M335 1280 c-3 -5 8 -16 24 -25 36 -18 51 -3 19 19 -26 18 -35 20 -43 6z"/>
 <path d="M2155 1250 c-3 -5 8 -16 24 -25 18 -9 32 -11 36 -5 3 5 -8 16 -24 25 -18 9 -32 11 -36 5z"/>
 <path d="M415 1240 c-8 -13 95 -64 107 -52 6 6 -10 19 -41 36 -57 29 -58 30 -66 16z"/>
 <path d="M2246 1211 c-4 -5 -2 -12 4 -16 5 -3 10 -3 10 1 0 3 6 2 13 -3 16 -12 37 -11 37 2 0 6 -8 10 -17 10 -10 0 -23 4 -30 8 -6 4 -14 3 -17 -2z"/>
 <path d="M545 1180 c-9 -14 44 -45 56 -33 7 7 1 15 -20 26 -17 8 -33 11 -36 7z"/>
 <path d="M2325 1180 c-3 -5 -4 -11 -1 -11 3 -1 9 -2 14 -3 4 -1 17 -7 29 -14 12 -7 24 -8 27 -3 7 11 -22 36 -31 28 -3 -4 -12 -2 -19 4 -8 7 -14 7 -19 -1z"/>
 <path d="M625 1140 c-9 -14 44 -45 56 -33 7 7 1 15 -20 26 -17 8 -33 11 -36 7z"/>
 <path d="M2405 1141 c-3 -6 4 -15 15 -21 11 -6 20 -8 20 -4 0 3 7 1 15 -6 8 -7 15 -9 15 -5 0 4 6 2 14 -4 10 -8 16 -9 21 -1 3 5 4 11 1 11 -16 4 -26 7 -31 9 -3 1 -8 3 -12 4 -5 1 -18 7 -30 14 -13 7 -24 8 -28 3z"/>
 <path d="M2535 1091 c-6 -11 29 -33 39 -24 7 7 -12 33 -25 33 -4 0 -10 -4 -14 -9z"/>
 <path d="M805 1051 c-3 -6 3 -15 14 -21 12 -6 22 -6 26 -1 3 6 -3 15 -14 21 -12 6 -22 6 -26 1z"/>
 <path d="M2605 1050 c-3 -5 8 -16 24 -25 18 -9 32 -11 36 -5 3 5 -8 16 -24 25 -18 9 -32 11 -36 5z"/>
 <path d="M885 1010 c-3 -5 8 -16 24 -25 18 -9 32 -11 36 -5 3 5 -8 16 -24 25 -18 9 -32 11 -36 5z"/>
 <path d="M2674 1009 c-2 -4 9 -15 25 -24 29 -14 49 -7 37 14 -8 12 -55 20 -62 10z"/>
 <path d="M985 961 c-3 -6 3 -15 14 -21 12 -6 22 -6 26 -1 3 6 -3 15 -14 21 -12 6 -22 6 -26 1z"/>
 <path d="M2849 946 c-1 -3 -2 -12 -3 -18 0 -7 -7 -13 -13 -13 -23 0 -19 -18 4 -21 29 -5 49 28 28 46 -8 7 -16 10 -16 6z"/>
 <path d="M1065 921 c-3 -6 3 -15 14 -21 12 -6 22 -6 26 -1 3 6 -3 15 -14 21 -12 6 -22 6 -26 1z"/>
 <path d="M1145 881 c-3 -6 3 -15 14 -21 12 -6 22 -6 26 -1 3 6 -3 15 -14 21 -12 6 -22 6 -26 1z"/>
 <path d="M2876 842 c-3 -6 1 -15 8 -21 8 -7 17 -8 20 -3 3 6 -1 15 -8 21 -8 7 -17 8 -20 3z"/>
 <path d="M1915 510 c-3 -5 -1 -11 5 -15 5 -3 10 -3 10 1 0 3 6 1 14 -5 9 -8 16 -8 20 -2 7 10 -10 24 -31 27 -7 1 -15 -2 -18 -6z"/>
 <path d="M2205 510 c-8 -12 20 -24 35 -15 6 3 8 11 5 16 -8 12 -32 12 -40 -1z"/>
 <path d="M2015 500 c-3 -5 0 -13 9 -16 21 -8 61 -1 61 11 0 14 -62 19 -70 5z"/>
 </g>
<g id="layer7" fill="#ede4df" stroke="none">
 <path d="M803 2358 c-35 -9 -50 -25 -37 -38 14 -13 49 -16 47 -4 -2 9 9 9 39 3 22 -6 43 -7 46 -4 3 3 13 -2 22 -10 10 -9 32 -17 50 -20 18 -2 40 -11 49 -19 10 -9 21 -16 25 -16 4 0 31 -16 60 -35 29 -19 60 -35 68 -35 7 0 18 -4 23 -9 16 -14 137 -50 185 -55 25 -2 52 -7 61 -11 10 -3 20 -1 24 5 8 13 -58 43 -130 61 -28 6 -59 16 -70 21 -12 5 -27 10 -35 12 -8 2 -32 10 -52 20 -21 9 -43 16 -50 16 -14 0 -143 75 -173 101 -24 20 -107 30 -152 17z"/>
 <path d="M700 2330 c-8 -5 -16 -14 -16 -20 -1 -5 -2 -13 -3 -17 0 -3 -10 2 -21 12 -19 17 -21 17 -47 -1 -16 -10 -30 -17 -33 -17 -3 1 -20 -7 -37 -18 -18 -11 -37 -18 -42 -15 -5 3 -14 0 -20 -8 -6 -7 -22 -11 -35 -9 -17 4 -37 -7 -74 -41 -29 -25 -61 -50 -72 -56 -11 -6 -18 -15 -15 -20 3 -6 0 -7 -7 -5 -8 3 -29 -10 -47 -29 -30 -31 -33 -37 -20 -52 12 -16 12 -17 -2 -12 -9 4 -26 0 -37 -7 -17 -13 -22 -12 -36 4 -16 18 -42 21 -64 7 -16 -10 -6 -27 12 -20 17 6 31 -12 16 -21 -6 -4 -7 -11 -4 -17 5 -7 2 -9 -8 -5 -9 3 -19 3 -22 0 -9 -9 34 -84 44 -78 6 4 4 18 -5 36 -12 22 -12 29 -3 27 7 -2 12 2 11 9 -2 8 11 11 40 10 23 -1 43 3 45 8 2 6 14 16 27 22 13 7 27 22 30 33 5 15 12 19 25 15 20 -6 36 10 20 20 -18 11 -11 22 22 31 23 7 33 16 33 29 0 13 7 20 20 20 14 0 19 6 17 20 -2 11 -1 17 4 13 4 -4 13 -3 21 3 7 6 13 8 13 3 0 -4 11 3 25 16 14 13 25 20 25 17 0 -4 17 0 37 8 20 9 43 13 50 11 7 -3 25 5 40 18 37 30 58 37 72 23 8 -8 14 -8 23 1 7 7 8 12 3 12 -5 0 1 7 13 16 32 22 16 45 -18 24z"/>
 <path d="M1474 2099 c-7 -12 16 -39 37 -43 8 -1 46 -17 84 -35 39 -19 78 -33 87 -33 10 0 17 -4 15 -11 -3 -14 45 -15 50 -1 6 18 -44 49 -152 93 -111 45 -111 45 -121 30z"/>
 <path d="M1765 1957 c-12 -10 -14 -16 -7 -21 7 -4 12 -4 12 0 0 3 7 1 15 -6 8 -7 15 -10 15 -6 0 11 64 -25 80 -45 13 -17 18 -18 34 -6 17 12 12 17 -52 55 -39 23 -72 42 -74 42 -2 0 -12 -6 -23 -13z"/>
 <path d="M104 1857 c-7 -20 -2 -47 11 -50 14 -3 19 43 6 56 -7 7 -12 6 -17 -6z"/>
 <path d="M1019 1866 c-1 -3 -2 -10 -3 -15 -2 -16 -17 -26 -44 -28 -15 -2 -31 -3 -37 -4 -5 -1 -22 1 -37 4 -15 3 -30 2 -32 -2 -3 -4 -24 -8 -46 -9 -23 -1 -50 -7 -61 -12 -10 -6 -19 -8 -19 -4 0 3 -6 2 -12 -3 -7 -5 -30 -11 -51 -12 -20 -1 -47 -5 -60 -10 -12 -5 -25 -8 -28 -7 -3 0 -13 -5 -22 -13 -18 -15 -13 -36 6 -24 7 4 28 8 48 9 20 1 47 8 60 15 27 15 47 18 133 23 47 3 61 8 66 22 6 16 7 16 13 0 5 -12 11 -14 24 -8 10 5 24 7 31 5 7 -3 18 0 25 6 7 5 22 8 34 5 12 -3 30 -1 41 5 18 10 20 8 18 -20 -1 -29 2 -32 47 -46 27 -8 56 -13 65 -11 25 5 21 31 -4 33 -12 1 -36 17 -53 36 -17 19 -37 35 -44 35 -7 1 -20 2 -30 3 -10 0 -16 5 -12 10 3 5 1 12 -5 16 -5 3 -11 4 -11 1z"/>
 <path d="M1965 1850 c-3 -5 10 -17 29 -27 37 -17 44 -27 26 -38 -20 -12 1 -25 22 -14 17 9 23 8 29 -4 5 -8 19 -13 33 -12 15 2 33 -6 47 -21 12 -13 30 -24 38 -24 9 0 22 -9 29 -21 8 -13 19 -18 31 -14 12 3 21 0 24 -10 4 -8 15 -14 26 -12 33 5 34 14 7 33 -15 9 -29 14 -33 11 -3 -3 -20 4 -37 17 -37 28 -96 59 -96 50 0 -3 -17 8 -37 24 -34 26 -114 72 -127 72 -3 0 -8 -4 -11 -10z"/>
 <path d="M99 1786 c-1 -3 -2 -9 -3 -13 -1 -5 -5 -13 -9 -20 -4 -6 -3 -14 3 -18 5 -3 11 -4 11 -1 1 3 2 9 3 14 1 4 5 12 9 19 4 6 3 14 -3 18 -5 3 -11 4 -11 1z"/>
 <path d="M494 1749 c-11 -18 6 -29 27 -18 12 6 18 13 15 17 -11 10 -36 11 -42 1z"/>
 <path d="M1205 1741 c-8 -13 42 -34 63 -26 19 7 5 22 -29 30 -16 4 -30 2 -34 -4z"/>
 <path d="M85 1707 c-9 -22 -2 -62 10 -60 6 1 11 14 13 29 4 32 -14 56 -23 31z"/>
 <path d="M464 1709 c-3 -6 -15 -9 -25 -6 -11 3 -37 -4 -59 -14 -23 -11 -45 -17 -51 -14 -5 4 -26 -4 -47 -17 -20 -12 -39 -22 -42 -20 -3 1 -5 -2 -5 -7 0 -11 -13 -26 -23 -26 -12 -1 -79 -69 -92 -94 -8 -16 -9 -26 -1 -34 8 -8 14 -2 21 20 8 22 17 30 33 29 32 -3 118 70 110 92 -6 15 -5 15 11 3 15 -13 20 -11 42 12 14 15 36 27 49 27 13 0 26 4 30 10 4 6 15 6 32 -1 22 -8 30 -6 46 10 20 20 16 41 -8 41 -8 0 -17 -5 -21 -11z"/>
 <path d="M1346 1701 c-4 -5 -2 -12 4 -16 5 -3 10 -3 10 1 0 3 6 1 14 -5 10 -8 16 -9 21 -1 3 5 4 11 1 11 -3 1 -9 2 -13 3 -5 1 -13 5 -20 9 -6 4 -14 3 -17 -2z"/>
 <path d="M1425 1671 c-3 -6 3 -15 14 -21 12 -6 22 -6 26 -1 3 6 -3 15 -14 21 -12 6 -22 6 -26 1z"/>
 <path d="M2335 1650 c-3 -5 6 -15 19 -22 14 -7 25 -16 25 -20 1 -5 4 -8 9 -9 4 0 11 -7 15 -15 4 -8 14 -14 21 -14 8 0 19 -7 26 -15 7 -8 17 -12 23 -8 6 3 7 1 3 -5 -12 -20 4 -35 21 -21 12 10 16 10 23 -2 5 -8 14 -15 20 -15 5 -1 14 -2 19 -3 4 0 20 -13 34 -27 14 -14 30 -23 35 -20 13 8 36 -20 28 -33 -4 -5 -2 -12 3 -16 5 -3 14 2 19 10 8 15 10 15 21 1 8 -9 20 -16 28 -16 12 0 13 -3 4 -14 -13 -16 0 -30 32 -32 35 -3 38 -4 35 -18 -2 -8 1 -14 5 -13 5 1 14 -9 22 -22 7 -14 19 -25 26 -27 34 -5 45 -10 56 -24 10 -13 12 -13 18 2 8 20 -2 41 -16 32 -5 -3 -8 -1 -7 4 5 16 -209 175 -223 167 -4 -3 -13 2 -20 11 -7 8 -26 22 -43 29 -17 8 -83 48 -146 90 -63 41 -118 75 -122 75 -4 0 -9 -4 -13 -10z"/>
 <path d="M1485 1640 c-9 -15 111 -84 127 -73 13 7 2 16 -64 52 -32 17 -60 26 -63 21z"/>
 <path d="M65 1578 c-9 -23 -1 -138 10 -141 14 -3 19 139 5 148 -5 3 -12 0 -15 -7z"/>
 <path d="M1617 1562 c-17 -18 -15 -21 31 -68 62 -62 109 -97 121 -89 5 3 13 1 16 -5 5 -8 11 -7 21 1 12 9 13 9 9 -3 -9 -24 20 -42 45 -28 21 11 20 14 -34 67 -30 30 -59 52 -64 49 -5 -3 -17 3 -27 14 -11 13 -25 18 -37 14 -10 -3 -19 -1 -19 5 -1 6 -2 17 -3 24 -1 6 -7 11 -14 10 -7 -2 -11 2 -9 8 4 20 -19 20 -36 1z"/>
 <path d="M104 1448 c-22 -35 -8 -56 22 -33 18 13 18 15 3 30 -14 14 -18 14 -25 3z"/>
 <path d="M1906 1381 c-4 -6 -11 -9 -16 -6 -5 3 -12 0 -15 -6 -11 -16 15 -37 55 -45 57 -10 64 -10 65 6 2 24 -6 32 -20 20 -10 -8 -19 -5 -38 16 -16 17 -27 22 -31 15z"/>
 <path d="M2014 1319 c-3 -5 10 -15 28 -23 131 -56 158 -65 172 -60 9 3 16 1 16 -5 0 -15 59 -44 76 -37 7 3 16 0 20 -6 13 -20 116 -60 127 -49 8 8 7 15 -1 23 -7 7 -12 9 -12 6 0 -4 -25 4 -55 17 -30 14 -58 25 -63 26 -19 4 -38 13 -54 26 -9 8 -28 16 -42 17 -14 2 -35 15 -47 30 -16 21 -24 24 -35 16 -7 -7 -18 -9 -23 -5 -24 14 -101 32 -107 24z"/>
 <path d="M2465 1130 c-3 -5 -1 -11 5 -15 5 -3 10 -3 10 1 0 3 7 1 15 -6 8 -7 15 -9 15 -5 0 5 9 0 19 -9 11 -10 22 -13 25 -8 3 5 -1 15 -9 22 -8 7 -15 9 -15 5 0 -4 -7 -1 -16 6 -20 16 -42 20 -49 9z"/>
 <path d="M2625 1071 c-9 -15 8 -34 34 -38 22 -3 36 11 25 28 -4 7 -9 8 -17 0 -7 -7 -14 -5 -22 6 -9 12 -14 13 -20 4z"/>
 <path d="M2914 1056 c-4 -10 -2 -22 4 -28 8 -8 13 -7 18 6 4 10 2 22 -4 28 -8 8 -13 7 -18 -6z"/>
 <path d="M2715 1021 c-8 -14 1 -28 25 -41 29 -15 32 4 6 29 -15 15 -26 19 -31 12z"/>
 <path d="M2906 1003 c-3 -3 -6 -14 -6 -24 0 -19 -14 -19 -47 -1 -13 7 -24 8 -28 2 -3 -5 -12 -7 -19 -4 -28 11 -25 -15 3 -35 18 -13 32 -17 36 -11 3 5 11 10 17 10 7 0 7 -4 -1 -14 -9 -10 -8 -16 3 -25 11 -10 17 -8 25 6 6 10 11 14 11 9 0 -5 7 -3 15 4 8 7 15 27 15 46 0 32 -11 50 -24 37z"/>
 </g>
<g id="layer8" fill="#593913" stroke="none">
 <path d="M944 1695 c-25 -25 -71 -34 -112 -21 -25 8 -93 -27 -91 -47 5 -41 0 -45 -40 -34 -30 8 -43 8 -55 -2 -18 -15 -21 -56 -6 -66 6 -3 10 -20 10 -36 l0 -30 -27 20 c-15 13 -34 19 -44 16 -11 -4 -31 3 -50 17 l-31 23 -19 -24 c-10 -13 -19 -38 -19 -57 0 -18 -4 -35 -9 -39 -8 -4 -9 -46 -1 -65 1 -3 2 -21 3 -40 l2 -35 105 0 c94 0 108 -2 138 -24 22 -15 30 -27 24 -33 -11 -11 13 -68 28 -68 5 0 22 -12 39 -26 29 -24 36 -25 94 -19 50 6 68 13 96 38 19 18 31 27 27 20 -3 -6 -2 -14 4 -18 5 -3 10 -45 10 -94 0 -97 8 -113 58 -116 18 -1 38 8 60 28 33 32 41 64 20 86 -11 11 -7 12 19 6 19 -4 34 -2 38 5 5 8 11 4 19 -12 10 -19 9 -29 -4 -53 -16 -30 -14 -75 5 -77 6 0 15 -14 22 -30 10 -23 17 -27 35 -23 19 4 26 -1 38 -27 13 -28 22 -34 59 -40 42 -7 46 -6 77 30 26 29 32 44 29 70 -2 18 -8 39 -14 46 -7 9 -7 16 1 24 9 9 8 17 -1 36 -8 13 -10 29 -7 35 4 5 -3 15 -14 21 -17 9 -19 14 -9 26 10 13 6 18 -13 15 -5 0 -8 6 -8 15 0 15 3 14 28 -1 15 -10 31 -24 35 -32 15 -26 57 -35 82 -19 22 14 23 13 30 -17 4 -18 8 -47 9 -66 1 -21 8 -38 20 -45 10 -6 30 -21 44 -33 14 -13 37 -23 52 -23 19 0 33 -8 45 -27 10 -16 32 -40 49 -55 26 -22 38 -26 71 -22 30 3 35 2 20 -5 -12 -5 -26 -16 -33 -24 -18 -21 -21 -89 -6 -107 52 -61 54 -62 97 -55 23 4 47 13 53 21 6 8 16 14 21 14 6 0 17 10 25 22 14 21 14 21 37 -15 15 -25 30 -37 45 -37 26 0 46 17 46 40 0 9 9 25 20 35 11 10 20 24 20 32 0 7 8 13 18 13 11 0 27 9 37 20 17 19 17 21 0 40 -20 23 -45 26 -63 8 -18 -18 -45 -19 -64 -2 -10 10 -25 13 -36 9 -17 -5 -19 -2 -15 15 4 15 14 20 39 20 19 0 43 4 54 10 11 5 29 14 40 20 29 14 37 12 43 -10 6 -25 49 -27 68 -4 16 20 3 44 -36 63 -25 12 -26 15 -12 29 25 25 47 1 71 -75 6 -19 2 -25 -18 -33 -20 -7 -26 -17 -28 -42 0 -18 -2 -45 -3 -60 -1 -15 5 -38 14 -50 8 -13 14 -33 13 -45 -3 -17 4 -26 25 -34 24 -9 30 -7 45 11 13 16 15 27 8 40 -13 24 12 44 47 37 48 -9 121 83 79 99 -19 7 -14 48 7 72 20 22 22 58 5 69 -7 4 -13 15 -13 23 0 8 -6 14 -13 12 -8 -1 -23 9 -34 23 -13 17 -26 24 -38 20 -11 -3 -20 0 -23 9 -5 11 -18 15 -51 12 -24 -2 -50 -7 -57 -11 -7 -5 -10 -4 -5 3 3 6 -3 16 -14 22 -11 6 -18 16 -14 21 3 6 -3 13 -15 16 -11 3 -19 9 -16 13 13 20 -28 32 -98 28 -69 -3 -73 -2 -63 14 8 14 6 22 -12 40 -27 28 -55 16 -60 -25 -3 -22 -10 -28 -40 -33 -51 -9 -75 -23 -68 -39 3 -8 1 -17 -5 -20 -5 -4 -7 -10 -4 -15 3 -5 1 -11 -4 -15 -6 -3 -8 -12 -4 -20 4 -12 -3 -15 -31 -15 -40 0 -41 2 -23 31 10 18 8 23 -17 45 l-29 25 -27 -26 c-24 -23 -28 -24 -40 -10 -8 10 -13 35 -11 59 3 48 -14 69 -50 64 -17 -2 -23 2 -24 19 -1 12 4 24 12 27 7 3 10 13 6 23 -3 10 5 2 18 -17 15 -21 35 -36 49 -38 14 -2 33 -11 42 -19 36 -32 96 6 71 46 -8 13 -8 22 -1 29 6 6 7 22 3 39 -5 15 -9 30 -10 33 -5 25 -29 51 -44 48 -10 -2 -25 3 -34 10 -25 21 -75 6 -92 -29 -19 -35 -25 -36 -59 -4 -15 14 -47 30 -71 36 -44 11 -55 22 -35 34 16 10 0 26 -20 20 -10 -3 -21 -1 -25 5 -3 5 -15 10 -27 10 -14 0 -18 5 -14 15 3 9 -3 19 -15 26 -16 8 -18 14 -9 24 13 16 -1 28 -23 19 -8 -3 -18 -1 -22 5 -3 6 -22 11 -42 11 -28 0 -45 9 -80 41 -27 25 -50 38 -61 35 -9 -3 -33 -6 -52 -7 -19 -2 -47 -11 -62 -22 -29 -19 -39 -9 -13 13 19 16 19 49 0 56 -9 4 -14 14 -13 23 2 10 -3 15 -13 13 -9 -1 -22 5 -29 13 -18 21 -37 19 -66 -10z m66 -230 c-12 -14 15 -71 39 -84 11 -6 37 -11 57 -11 30 0 35 -3 26 -12 -17 -17 -15 -55 4 -66 11 -6 3 -9 -27 -10 -23 -1 -45 -4 -47 -7 -3 -3 -10 5 -16 17 -6 11 -18 24 -26 28 -65 32 -69 33 -85 20 -10 -8 -19 -9 -27 -2 -14 10 -87 10 -104 -1 -12 -7 -41 9 -32 19 4 4 1 16 -7 28 -14 19 -13 22 6 37 12 9 22 27 23 40 0 13 7 25 14 25 6 1 13 2 15 4 1 1 13 3 27 5 41 5 60 -4 60 -30 0 -15 9 -29 21 -36 18 -9 25 -7 42 10 18 18 19 23 7 45 -11 21 -11 28 1 42 12 14 14 13 25 -17 6 -19 8 -38 4 -44z m295 -107 c6 -18 15 -32 20 -31 13 2 26 -33 19 -51 -3 -8 -19 -16 -36 -20 -18 -4 -32 -14 -35 -26 -8 -30 -26 -24 -62 21 l-33 40 22 24 c16 17 20 30 15 45 -7 21 -4 22 24 18 18 -3 34 -1 37 4 10 16 20 8 29 -24z m-286 -127 c8 -5 9 -11 3 -15 -5 -3 -15 1 -22 9 -14 16 -3 20 19 6z"/>
 <path d="M319 1525 c-3 0 -8 -51 -10 -86 -1 -40 17 -83 31 -74 5 3 18 1 28 -4 22 -12 39 -1 65 41 21 34 22 67 2 74 -11 5 -13 10 -5 19 14 17 0 27 -18 13 -11 -10 -16 -9 -24 5 -7 14 -43 20 -69 12z"/>
 <path d="M1874 1139 c-13 -15 -16 -24 -8 -36 18 -29 41 -38 58 -24 22 18 20 58 -3 71 -26 13 -25 13 -47 -11z"/>
 <path d="M2654 799 c-13 -15 -16 -24 -8 -36 18 -29 41 -38 58 -24 22 18 20 58 -3 71 -26 13 -25 13 -47 -11z"/>
 <path d="M1617 792 c-32 -35 -11 -77 35 -70 31 4 32 54 2 74 -18 13 -23 12 -37 -4z"/>
 </g>
<g id="layer9" fill="#633c17" stroke="none">
 <path d="M713 2370 c-54 -11 -100 -35 -113 -59 -11 -21 3 -40 15 -20 12 18 94 49 131 49 40 0 77 17 69 31 -7 11 -43 10 -102 -1z"/>
 <path d="M975 2331 c-3 -6 16 -22 42 -37 27 -15 55 -33 63 -40 8 -6 87 -35 175 -63 222 -71 429 -161 574 -250 84 -52 183 -106 394 -216 75 -40 145 -79 155 -89 10 -9 21 -16 25 -16 4 0 51 -29 106 -65 122 -78 178 -108 185 -96 8 13 -83 94 -166 148 -40 26 -92 62 -116 80 -26 20 -81 44 -144 64 -72 23 -112 41 -138 65 -39 36 -78 54 -114 54 -12 0 -53 20 -90 45 -38 25 -73 45 -77 45 -5 0 -38 29 -73 64 -36 36 -79 69 -98 75 -18 5 -78 25 -133 44 -55 19 -119 38 -142 42 -23 3 -81 27 -128 51 -47 24 -131 58 -187 74 -116 35 -105 33 -113 21z"/>
 <path d="M381 2245 c-69 -17 -97 -38 -144 -108 -21 -31 -44 -57 -52 -57 -19 0 -40 -29 -28 -41 11 -11 68 14 80 36 12 20 102 85 118 85 9 0 20 11 25 25 5 13 23 31 40 40 17 9 28 20 25 25 -4 6 -7 10 -8 9 -1 -1 -26 -7 -56 -14z"/>
 <path d="M903 1792 c-12 -9 -32 -11 -59 -7 -43 6 -146 -16 -170 -36 -9 -7 -42 -11 -78 -10 -56 1 -66 -1 -80 -20 -8 -12 -13 -26 -11 -29 10 -15 -26 -34 -43 -24 -32 20 -94 4 -133 -33 -20 -19 -40 -33 -45 -31 -5 2 -10 -1 -11 -5 -4 -15 -88 -77 -105 -77 -21 0 -35 -24 -39 -65 -2 -16 -6 -34 -9 -40 -15 -24 -2 -40 44 -56 26 -10 56 -25 65 -33 10 -9 24 -16 33 -16 8 0 27 -9 41 -20 14 -11 32 -20 40 -20 8 0 26 -9 40 -20 14 -11 30 -20 35 -20 6 0 86 -38 179 -84 892 -447 1297 -645 1325 -649 18 -3 35 -6 38 -7 3 -1 44 -2 91 -2 118 -1 266 15 309 33 48 21 90 39 125 54 71 31 92 40 205 87 14 5 38 16 53 24 16 8 34 14 41 14 18 0 83 65 101 100 9 17 13 30 9 30 -4 0 -1 7 6 15 11 13 10 21 -7 43 -11 15 -29 27 -39 27 -10 0 -19 6 -19 14 0 8 -15 19 -35 24 -19 5 -42 14 -50 21 -32 27 -218 126 -272 145 -31 11 -67 26 -80 35 -12 8 -53 26 -90 40 -36 14 -113 45 -171 70 -58 25 -146 56 -197 70 -51 14 -101 33 -111 42 -11 10 -19 14 -19 10 0 -3 -18 3 -40 14 -40 20 -49 33 -30 45 6 4 8 10 5 15 -4 6 -14 4 -25 -3 -23 -14 -55 0 -55 24 0 8 -5 14 -12 14 -11 0 -37 31 -59 70 -6 10 -24 23 -41 27 -17 4 -36 15 -43 23 -7 8 -20 15 -29 15 -10 0 -32 11 -51 25 -19 14 -39 25 -46 25 -6 0 -24 7 -40 15 -15 8 -62 22 -104 31 -41 9 -82 19 -90 22 -8 3 -20 4 -27 3 -6 -1 -14 3 -18 8 -3 6 -13 7 -22 4 -11 -4 -14 -2 -9 5 10 17 -22 29 -91 34 -42 3 -67 0 -80 -10z m122 -126 c41 -39 42 -43 15 -71 l-21 -22 25 -17 c26 -17 43 -18 38 -2 -6 17 18 32 55 34 21 2 46 5 55 8 22 7 109 -72 101 -92 -7 -19 18 -27 50 -15 19 8 28 6 37 -5 7 -7 18 -14 26 -14 7 0 14 -10 16 -22 2 -13 11 -24 21 -26 11 -2 37 -22 60 -43 24 -24 46 -38 55 -34 25 9 50 -5 72 -41 14 -21 30 -34 43 -35 21 0 21 -1 -2 -10 -18 -7 -21 -12 -12 -23 7 -8 8 -17 3 -20 -12 -7 -8 -41 6 -59 7 -8 22 -12 37 -9 23 4 25 2 25 -35 0 -21 -6 -45 -12 -51 -10 -10 -8 -14 10 -18 12 -4 22 -10 22 -15 0 -16 79 -59 122 -65 24 -4 48 -14 54 -22 13 -17 38 -7 27 11 -6 11 -8 50 -3 62 1 3 4 10 5 15 1 6 4 12 5 15 1 3 3 9 4 14 2 20 19 22 160 27 129 5 145 3 140 -10 -4 -9 0 -18 10 -22 9 -3 13 -10 10 -16 -3 -5 3 -12 14 -15 23 -6 27 -49 5 -57 -8 -3 -12 -10 -9 -15 3 -5 -1 -12 -9 -15 -23 -9 -2 -42 35 -54 16 -6 30 -18 30 -26 0 -23 -33 -20 -48 4 -13 22 -32 25 -60 11 -53 -27 -72 -32 -103 -29 -30 3 -34 0 -40 -30 -4 -18 -3 -35 2 -37 4 -3 6 -12 3 -20 -7 -18 19 -30 44 -20 16 6 16 7 -2 21 -11 8 -14 14 -8 14 14 0 82 -65 82 -78 0 -5 -9 -17 -20 -27 -11 -10 -20 -27 -20 -37 0 -34 -43 -18 -63 24 l-19 38 -46 -39 c-54 -45 -111 -61 -131 -37 -7 9 -11 23 -7 31 3 9 -2 23 -12 33 -22 22 -14 65 13 70 31 6 40 19 25 38 -10 11 -24 14 -46 11 -25 -4 -39 1 -68 25 -21 17 -35 36 -32 43 7 19 -13 31 -54 34 -51 4 -66 22 -50 60 16 40 8 58 -32 69 -21 5 -34 16 -37 28 -6 35 -21 45 -45 29 -21 -14 -66 -10 -66 6 0 4 -20 22 -45 39 -52 36 -57 32 -52 -50 3 -39 8 -55 18 -55 24 0 44 -35 31 -55 -7 -11 -7 -21 -1 -27 6 -6 12 -25 14 -44 4 -26 -1 -39 -21 -60 -22 -23 -32 -26 -63 -22 -38 6 -54 20 -46 40 5 15 -31 37 -50 29 -19 -7 -25 4 -30 55 -2 22 -6 44 -9 47 -3 3 -1 11 5 18 6 8 8 21 4 31 -5 10 -8 21 -7 25 3 15 -39 30 -52 19 -6 -6 -21 -8 -32 -5 -23 6 -52 -20 -34 -31 35 -22 -16 -92 -66 -90 l-29 2 -3 88 c-2 49 -7 94 -13 101 -7 8 -6 14 1 19 8 5 7 11 -2 22 -10 12 -9 15 7 13 35 -4 39 0 21 19 -23 25 -5 37 66 45 55 5 57 4 82 -29 14 -18 26 -40 26 -49 0 -30 18 -25 45 14 28 40 48 50 60 30 14 -22 31 10 29 52 -1 29 -9 48 -23 59 -12 10 -21 23 -21 31 0 8 -7 23 -15 34 -13 17 -17 17 -27 4 -7 -8 -29 -15 -48 -15 -33 0 -35 -2 -33 -29 3 -35 -12 -56 -38 -56 -23 0 -26 32 -4 50 23 19 8 30 -43 30 -26 0 -52 4 -59 8 -16 10 -34 60 -24 67 11 6 -12 88 -26 92 -5 2 -20 -8 -33 -22 -21 -22 -22 -27 -10 -50 10 -18 11 -28 3 -36 -17 -17 -35 0 -30 27 2 14 -1 28 -7 31 -15 10 -96 11 -102 2 -3 -5 -11 -6 -19 -3 -14 6 -41 -33 -31 -44 3 -3 -1 -14 -11 -24 -15 -17 -17 -17 -35 -1 -14 12 -21 14 -30 5 -13 -13 5 -42 26 -42 6 0 16 -8 23 -19 9 -14 8 -24 -2 -44 -15 -30 -5 -43 23 -31 9 4 20 8 25 9 4 2 8 3 10 5 9 7 94 6 105 -2 8 -7 17 -6 27 2 12 10 21 10 38 2 12 -5 30 -13 40 -16 28 -9 19 -52 -11 -48 -25 4 -41 -23 -23 -41 37 -37 -11 -82 -96 -92 -59 -6 -65 -5 -95 20 -18 16 -33 32 -33 37 0 5 -6 13 -14 17 -9 6 -10 11 -2 15 14 9 -15 56 -34 56 -7 0 -16 7 -19 16 -4 9 -9 14 -13 11 -3 -4 -13 -2 -23 3 -10 5 -20 7 -23 4 -3 -4 -40 -8 -82 -9 l-76 -4 2 27 c2 15 0 32 -4 39 -4 6 -3 15 3 18 8 5 7 12 -2 23 -11 13 -10 15 4 9 19 -7 34 8 18 18 -13 8 -13 55 0 75 8 12 14 11 40 -9 18 -13 38 -20 47 -16 10 3 27 -4 43 -20 21 -20 29 -23 37 -13 17 22 22 79 6 85 -7 3 -13 16 -13 29 0 29 33 33 69 8 28 -20 39 -10 43 35 3 41 36 66 70 55 42 -14 92 -4 116 21 30 32 36 32 77 -9z m-611 -206 c21 -16 20 -26 -4 -60 -18 -26 -23 -27 -49 -17 -29 11 -39 33 -33 72 2 16 10 20 37 20 19 -1 41 -7 49 -15z m1376 -114 c6 -8 17 -13 25 -10 11 5 27 -9 31 -26 0 -3 4 -17 8 -33 5 -17 4 -32 -3 -41 -8 -10 -9 -16 -1 -21 5 -3 10 -15 10 -26 0 -23 -45 -27 -54 -4 -3 8 -16 15 -29 15 -13 0 -31 8 -39 18 -19 22 -29 60 -17 68 5 3 4 14 -2 26 -9 18 -8 24 7 35 23 17 49 17 64 -1z m315 -211 c0 -28 -29 -25 -33 3 -3 19 0 23 15 20 10 -2 18 -12 18 -23z m-187 -23 c2 -14 -2 -22 -12 -22 -19 0 -29 17 -22 36 8 22 30 12 34 -14z m-58 -86 c0 -20 -28 -28 -52 -15 -19 10 -19 12 -3 29 14 15 22 17 36 9 11 -5 19 -16 19 -23z m-195 -51 c0 -11 -8 -21 -17 -23 -14 -3 -18 3 -18 23 0 20 4 26 18 23 9 -2 17 -12 17 -23z m792 2 c11 -9 22 -15 25 -12 8 9 88 -71 88 -88 0 -9 -9 -21 -21 -27 -11 -6 -18 -17 -16 -23 2 -7 -3 -17 -11 -23 -13 -10 -12 -14 11 -29 15 -9 27 -22 27 -27 0 -20 -54 -52 -81 -50 -37 4 -74 -31 -60 -56 12 -23 -1 -45 -22 -36 -20 7 -22 25 -5 42 10 10 8 14 -9 18 -23 6 -30 18 -28 49 1 11 2 34 3 52 2 39 34 53 63 28 20 -19 24 -14 31 30 2 15 -3 21 -24 23 -22 3 -29 10 -34 38 -3 19 -15 39 -25 45 -17 8 -26 48 -15 60 12 12 86 2 103 -14z m241 -205 c2 -14 -2 -22 -12 -22 -19 0 -29 17 -22 36 8 22 30 12 34 -14z m-1038 -13 c0 -12 -7 -19 -20 -19 -19 0 -28 28 -14 43 11 11 34 -5 34 -24z m625 -9 c0 -8 -10 -16 -22 -18 -18 -3 -23 2 -23 18 0 16 5 21 23 18 12 -2 22 -10 22 -18z"/>
 <path d="M737 1283 c-13 -12 -7 -24 16 -32 31 -12 41 -2 21 20 -18 20 -27 23 -37 12z"/>
 <path d="M1254 1136 c-4 -10 -2 -22 4 -28 8 -8 13 -7 18 6 4 10 2 22 -4 28 -8 8 -13 7 -18 -6z"/>
 <path d="M2855 1340 c-3 -4 7 -15 21 -25 27 -18 58 -13 52 7 -5 14 -66 29 -73 18z"/>
 </g>
<g id="layer10" fill="#fefefe" stroke="none">
 <path d="M786 2342 c-3 -6 -15 -8 -26 -5 -11 3 -27 0 -35 -7 -8 -6 -22 -9 -33 -6 -22 7 -85 -21 -77 -35 4 -5 5 -9 3 -9 -2 0 -33 -11 -70 -24 -36 -13 -69 -22 -72 -19 -3 3 -12 0 -21 -7 -8 -7 -15 -9 -15 -6 0 11 -61 -34 -96 -70 -18 -18 -34 -30 -38 -27 -9 10 -47 -29 -42 -43 7 -17 -5 -26 -20 -13 -17 14 -29 -7 -15 -25 9 -11 8 -14 -6 -12 -11 0 -18 -5 -17 -16 3 -33 -76 -35 -100 -3 -12 16 -16 17 -30 6 -21 -18 -20 -44 3 -89 29 -57 34 -101 17 -156 -8 -27 -13 -61 -10 -76 3 -14 1 -44 -5 -66 -18 -67 -17 -192 1 -211 15 -14 18 -13 34 18 10 19 18 39 19 44 0 6 4 21 9 34 6 16 11 20 19 12 13 -13 104 67 99 87 -2 8 4 12 15 10 11 -2 17 2 15 11 -2 9 4 12 16 9 10 -3 30 1 43 8 13 7 34 13 47 14 35 0 112 38 112 55 0 17 9 19 29 6 8 -5 24 -3 41 5 15 8 54 19 86 25 80 15 76 14 99 22 11 3 54 9 95 11 41 3 98 10 127 16 48 10 54 10 82 -11 16 -12 32 -28 35 -35 3 -8 11 -11 19 -8 7 2 27 -2 43 -11 16 -8 37 -15 47 -15 11 0 33 -6 50 -14 18 -7 52 -19 77 -26 84 -22 213 -91 258 -136 24 -24 49 -41 55 -37 5 3 7 1 3 -5 -7 -12 42 -54 54 -47 5 3 21 -10 36 -27 15 -18 31 -32 36 -30 5 1 7 -2 3 -7 -3 -6 4 -15 15 -21 16 -9 22 -8 26 4 5 12 10 10 28 -11 13 -14 31 -27 42 -28 10 -1 28 -6 38 -10 10 -5 28 -9 40 -9 12 -1 27 -5 33 -9 12 -8 115 -44 143 -51 9 -2 32 -14 52 -26 21 -12 41 -19 47 -16 5 3 14 0 20 -8 7 -8 24 -17 39 -21 15 -3 61 -22 102 -41 41 -20 93 -43 115 -53 67 -31 107 -51 170 -86 112 -64 132 -73 149 -63 16 9 17 8 20 -14 0 -7 12 -13 26 -13 22 0 25 5 33 55 4 30 7 114 5 185 l-3 130 -25 1 c-14 1 -44 19 -70 44 -52 48 -125 101 -145 104 -8 1 -22 9 -32 18 -10 9 -22 17 -28 18 -5 1 -40 22 -76 46 -37 24 -70 44 -75 44 -4 0 -16 7 -26 17 -10 9 -27 21 -37 27 -10 6 -48 28 -85 49 -36 21 -71 35 -77 32 -6 -4 -17 2 -25 14 -8 12 -20 21 -26 21 -5 0 -22 9 -37 19 -15 11 -39 23 -54 26 -15 4 -27 11 -27 16 0 5 -26 22 -58 38 -32 16 -64 36 -71 45 -8 9 -20 16 -27 16 -8 0 -73 34 -146 75 -123 70 -145 79 -174 76 -6 -1 -19 8 -29 19 -10 11 -23 20 -29 20 -7 0 -29 9 -51 20 -57 29 -106 44 -138 42 -16 -2 -40 6 -54 18 -16 12 -34 18 -48 14 -15 -4 -24 0 -28 10 -4 9 -17 16 -30 16 -13 0 -27 3 -31 8 -4 4 -11 7 -15 7 -4 0 -41 20 -81 44 -40 24 -78 44 -84 45 -7 1 -26 12 -43 24 -21 15 -34 19 -38 12 -6 -10 -23 -9 -91 7 -12 2 -25 0 -28 -5z"/>
 </g>
<g id="layer11" fill="#f9b0aa" stroke="none">
 <path d="M0 1500 l0 -1500 1500 0 1500 0 0 1500 0 1500 -1500 0 -1500 0 0 -1500z m890 865 c7 -8 16 -12 21 -9 5 3 18 -1 30 -9 11 -8 28 -13 37 -10 10 2 31 -1 47 -8 17 -7 33 -12 37 -11 4 1 20 -3 35 -10 15 -6 33 -12 38 -12 35 -5 75 -19 86 -32 6 -8 20 -14 30 -14 10 0 26 -8 36 -18 10 -10 47 -26 83 -36 36 -10 72 -21 80 -24 8 -2 22 -6 30 -7 21 -2 123 -36 135 -45 6 -4 32 -13 58 -20 37 -10 61 -26 105 -72 33 -34 79 -70 110 -84 28 -14 52 -29 52 -34 0 -13 86 -51 124 -55 42 -4 66 -15 66 -29 0 -16 45 -58 53 -50 3 3 12 2 19 -2 7 -5 18 -9 23 -9 14 0 114 -35 153 -52 18 -9 48 -31 66 -49 19 -19 41 -34 49 -34 8 0 17 -7 21 -15 3 -8 12 -12 21 -9 8 3 15 1 15 -4 0 -6 15 -18 34 -27 39 -19 151 -133 151 -155 0 -22 131 -85 170 -81 16 1 21 -4 20 -21 0 -13 -3 -27 -6 -33 -4 -5 -3 -62 0 -125 4 -63 3 -128 -1 -145 -4 -16 -8 -43 -8 -59 0 -21 -4 -27 -15 -23 -18 8 -30 -10 -18 -26 17 -22 13 -66 -8 -104 -31 -56 -39 -64 -89 -85 -93 -40 -116 -50 -145 -63 -16 -7 -82 -34 -145 -61 -63 -26 -119 -51 -125 -54 -5 -4 -32 -11 -60 -15 -27 -5 -56 -9 -64 -11 -8 -1 -37 -4 -65 -5 -28 -1 -56 -6 -63 -11 -7 -5 -14 -5 -18 2 -3 6 -10 8 -14 6 -10 -7 -73 -8 -142 -3 -38 2 -65 10 -84 25 -15 12 -34 22 -42 22 -8 0 -26 9 -40 20 -14 11 -32 20 -40 20 -8 0 -26 9 -40 20 -14 11 -33 20 -43 20 -10 0 -29 9 -43 20 -14 11 -32 20 -40 20 -8 0 -26 9 -40 20 -14 11 -32 20 -40 20 -8 0 -26 9 -40 20 -14 11 -32 20 -40 20 -8 0 -31 11 -51 25 -20 14 -43 25 -50 25 -7 0 -25 9 -39 20 -14 11 -30 20 -37 20 -7 0 -23 9 -37 20 -14 11 -31 20 -38 20 -14 0 -995 492 -1043 523 l-33 22 6 110 c3 61 7 133 9 160 1 28 7 70 14 93 15 49 9 92 -19 138 -13 21 -19 48 -17 79 1 39 5 48 25 56 12 5 23 16 23 26 0 10 11 32 24 48 l24 30 11 -27 c17 -44 29 -41 56 12 23 46 55 72 90 75 6 0 16 4 23 8 6 5 17 5 22 2 6 -4 18 -1 26 6 8 6 34 13 58 13 25 1 51 8 60 15 9 8 16 10 16 5 0 -5 8 1 18 13 38 47 97 69 217 80 33 2 62 7 64 9 10 10 50 3 61 -11z"/>
 <path d="M1061 1816 c-7 -8 -8 -17 -3 -20 6 -3 15 1 21 8 7 8 8 17 3 20 -6 3 -15 -1 -21 -8z"/>
 <path d="M506 1731 c-10 -11 -13 -22 -8 -25 5 -3 17 3 26 13 10 11 13 22 8 25 -5 3 -17 -3 -26 -13z"/>
 <path d="M295 1651 c-7 -12 12 -24 25 -16 11 7 4 25 -10 25 -5 0 -11 -4 -15 -9z"/>
 </g>

</svg>