<!DOCTYPE svg PUBLIC "-//W3C//DTD SVG 20010904//EN" "http://www.w3.org/TR/2001/REC-SVG-20010904/DTD/svg10.dtd">
<svg version="1.0" xmlns="http://www.w3.org/2000/svg" width="300px" height="300px" viewBox="0 0 3000 3000" preserveAspectRatio="xMidYMid meet">
<g id="layer1" fill="#00809e" stroke="none">
 <path d="M2620 1706 c0 -9 7 -16 16 -16 17 0 14 22 -4 28 -7 2 -12 -3 -12 -12z"/>
 <path d="M2630 1635 c0 -8 7 -15 15 -15 8 0 15 7 15 15 0 8 -7 15 -15 15 -8 0 -15 -7 -15 -15z"/>
 <path d="M2610 1230 c0 -5 7 -10 15 -10 8 0 15 5 15 10 0 6 -7 10 -15 10 -8 0 -15 -4 -15 -10z"/>
 <path d="M2600 1179 c0 -18 2 -19 15 -9 8 7 15 16 15 21 0 5 -7 9 -15 9 -9 0 -15 -9 -15 -21z"/>
 <path d="M2560 1070 c0 -5 7 -10 15 -10 8 0 15 5 15 10 0 6 -7 10 -15 10 -8 0 -15 -4 -15 -10z"/>
 <path d="M2520 990 c-24 -48 -26 -72 -5 -63 16 5 55 72 55 93 0 25 -31 6 -50 -30z"/>
 <path d="M2470 875 c0 -8 -4 -15 -10 -15 -5 0 -10 -7 -10 -15 0 -8 5 -15 10 -15 6 0 10 6 10 14 0 8 7 16 15 20 8 3 15 10 15 16 0 5 -7 10 -15 10 -8 0 -15 -7 -15 -15z"/>
 <path d="M2420 805 c0 -8 5 -15 10 -15 6 0 10 7 10 15 0 8 -4 15 -10 15 -5 0 -10 -7 -10 -15z"/>
 <path d="M2383 765 c-3 -9 -3 -18 0 -21 9 -9 27 6 27 22 0 19 -19 18 -27 -1z"/>
 <path d="M2225 609 c-4 -6 -4 -13 -1 -16 8 -8 36 5 36 17 0 13 -27 13 -35 -1z"/>
 </g>
<g id="layer2" fill="#0a8a96" stroke="none">
 <path d="M2622 1673 c5 -25 28 -28 28 -4 0 12 -6 21 -16 21 -9 0 -14 -7 -12 -17z"/>
 <path d="M2630 1601 c0 -24 18 -37 31 -24 13 13 1 43 -17 43 -8 0 -14 -9 -14 -19z"/>
 <path d="M2637 1404 c-15 -15 -7 -45 11 -42 9 2 17 12 17 22 0 20 -16 31 -28 20z"/>
 <path d="M2627 1324 c-14 -14 -7 -35 11 -32 9 2 17 10 17 17 0 16 -18 25 -28 15z"/>
 <path d="M2615 1260 c-3 -5 -4 -14 0 -19 3 -5 0 -13 -6 -16 -5 -4 -8 -12 -6 -19 3 -7 -3 -30 -14 -52 -10 -21 -18 -47 -19 -56 0 -9 -4 -20 -10 -23 -12 -7 -14 -55 -2 -55 17 0 77 144 67 160 -3 5 0 12 6 15 5 4 8 13 5 21 -3 7 -1 16 4 19 6 4 10 13 10 21 0 16 -26 19 -35 4z"/>
 <path d="M2468 889 c-21 -33 -38 -64 -38 -69 0 -18 22 -10 27 10 3 11 9 20 14 20 5 0 9 5 9 10 0 6 11 23 25 38 14 15 24 31 22 36 -8 24 -25 11 -59 -45z"/>
 <path d="M2397 793 c-12 -11 -8 -23 8 -23 8 0 15 7 15 15 0 16 -12 20 -23 8z"/>
 <path d="M2352 737 c-27 -29 -28 -37 -2 -37 18 0 40 26 40 49 0 18 -15 13 -38 -12z"/>
 <path d="M2267 652 c-20 -22 -22 -42 -4 -42 19 0 37 21 37 42 0 23 -12 23 -33 0z"/>
 <path d="M2203 603 c-21 -8 -15 -33 7 -33 13 0 20 7 20 20 0 20 -5 23 -27 13z"/>
 </g>
<g id="layer3" fill="#d9eeee" stroke="none">
 <path d="M983 2533 c-27 -10 -12 -29 22 -29 37 0 42 5 23 24 -13 13 -24 14 -45 5z"/>
 <path d="M2040 2500 c0 -5 7 -10 15 -10 8 0 15 5 15 10 0 6 -7 10 -15 10 -8 0 -15 -4 -15 -10z"/>
 <path d="M2100 2470 c0 -5 7 -10 15 -10 8 0 15 5 15 10 0 6 -7 10 -15 10 -8 0 -15 -4 -15 -10z"/>
 <path d="M2050 2440 c0 -5 7 -10 15 -10 8 0 15 5 15 10 0 6 -7 10 -15 10 -8 0 -15 -4 -15 -10z"/>
 <path d="M2110 2365 c0 -33 4 -45 15 -45 11 0 15 12 15 45 0 33 -4 45 -15 45 -11 0 -15 -12 -15 -45z"/>
 <path d="M1122 2389 c2 -7 10 -15 17 -17 8 -3 12 1 9 9 -2 7 -10 15 -17 17 -8 3 -12 -1 -9 -9z"/>
 <path d="M1092 2339 c2 -7 10 -15 17 -17 8 -3 12 1 9 9 -2 7 -10 15 -17 17 -8 3 -12 -1 -9 -9z"/>
 <path d="M2100 2268 c0 -6 -9 -31 -21 -54 -15 -32 -28 -44 -50 -49 -16 -4 -29 -13 -29 -21 0 -11 7 -13 28 -8 37 9 58 29 82 78 24 50 25 66 5 66 -8 0 -15 -5 -15 -12z"/>
 <path d="M2000 2205 c0 -8 5 -15 10 -15 6 0 10 7 10 15 0 8 -4 15 -10 15 -5 0 -10 -7 -10 -15z"/>
 <path d="M1910 2185 c0 -8 7 -15 15 -15 8 0 15 7 15 15 0 8 -7 15 -15 15 -8 0 -15 -7 -15 -15z"/>
 <path d="M1750 2175 c0 -8 5 -15 10 -15 6 0 10 7 10 15 0 8 -4 15 -10 15 -5 0 -10 -7 -10 -15z"/>
 <path d="M1950 2135 c0 -8 7 -15 15 -15 8 0 15 7 15 15 0 8 -7 15 -15 15 -8 0 -15 -7 -15 -15z"/>
 <path d="M1180 2125 c0 -8 7 -15 15 -15 8 0 15 7 15 15 0 8 -7 15 -15 15 -8 0 -15 -7 -15 -15z"/>
 <path d="M1860 2125 c0 -9 9 -15 25 -15 16 0 25 6 25 15 0 9 -9 15 -25 15 -16 0 -25 -6 -25 -15z"/>
 <path d="M1695 2077 c-42 -43 -85 -106 -85 -124 0 -1 7 -3 15 -3 8 0 15 5 15 11 0 19 89 127 110 134 21 7 28 35 8 35 -6 0 -35 -24 -63 -53z"/>
 <path d="M2433 2116 c-13 -6 -23 -16 -23 -23 0 -16 26 -17 36 -2 4 8 13 4 25 -12 14 -18 21 -21 30 -12 8 8 7 17 -7 37 -21 28 -28 29 -61 12z"/>
 <path d="M2307 2067 c-31 -18 -90 -55 -130 -83 -65 -47 -357 -179 -440 -199 -15 -4 -27 -13 -27 -21 0 -8 2 -14 4 -14 11 0 107 37 241 92 144 60 185 82 305 168 30 22 72 45 93 52 20 6 37 17 37 25 0 20 -20 15 -83 -20z"/>
 <path d="M2355 2031 c-22 -10 -49 -26 -60 -34 -35 -27 -9 -29 40 -2 26 14 54 25 61 25 8 0 14 7 14 15 0 19 -6 19 -55 -4z"/>
 <path d="M1240 1995 c0 -16 6 -25 15 -25 9 0 15 9 15 25 0 16 -6 25 -15 25 -9 0 -15 -9 -15 -25z"/>
 <path d="M1560 1990 c0 -5 7 -10 15 -10 8 0 15 5 15 10 0 6 -7 10 -15 10 -8 0 -15 -4 -15 -10z"/>
 <path d="M1540 1920 c0 -5 7 -10 15 -10 8 0 15 5 15 10 0 6 -7 10 -15 10 -8 0 -15 -4 -15 -10z"/>
 <path d="M1600 1920 c0 -5 7 -10 15 -10 8 0 15 5 15 10 0 6 -7 10 -15 10 -8 0 -15 -4 -15 -10z"/>
 <path d="M1038 1913 c-10 -2 -18 -11 -18 -20 0 -10 6 -13 16 -9 9 3 20 6 25 6 5 0 9 7 9 15 0 15 -2 16 -32 8z"/>
 <path d="M980 1885 c0 -8 5 -15 10 -15 6 0 10 7 10 15 0 8 -4 15 -10 15 -5 0 -10 -7 -10 -15z"/>
 <path d="M399 1863 c-10 -28 -6 -53 10 -53 9 0 21 33 21 63 0 26 -19 20 -31 -10z"/>
 <path d="M1590 1875 c0 -8 7 -15 15 -15 8 0 15 7 15 15 0 8 -7 15 -15 15 -8 0 -15 -7 -15 -15z"/>
 <path d="M880 1865 c0 -8 5 -15 10 -15 6 0 10 7 10 15 0 8 -4 15 -10 15 -5 0 -10 -7 -10 -15z"/>
 <path d="M1110 1865 c0 -8 5 -15 10 -15 6 0 10 7 10 15 0 8 -4 15 -10 15 -5 0 -10 -7 -10 -15z"/>
 <path d="M1530 1865 c0 -8 7 -15 15 -15 8 0 15 7 15 15 0 8 -7 15 -15 15 -8 0 -15 -7 -15 -15z"/>
 <path d="M560 1855 c0 -8 5 -15 10 -15 6 0 10 7 10 15 0 8 -4 15 -10 15 -5 0 -10 -7 -10 -15z"/>
 <path d="M790 1855 c0 -8 5 -15 10 -15 6 0 10 7 10 15 0 8 -4 15 -10 15 -5 0 -10 -7 -10 -15z"/>
 <path d="M2040 1835 c0 -8 5 -15 10 -15 6 0 10 7 10 15 0 8 -4 15 -10 15 -5 0 -10 -7 -10 -15z"/>
 <path d="M440 1815 c0 -8 5 -15 10 -15 6 0 10 7 10 15 0 8 -4 15 -10 15 -5 0 -10 -7 -10 -15z"/>
 <path d="M500 1805 c0 -8 5 -15 10 -15 6 0 10 7 10 15 0 8 -4 15 -10 15 -5 0 -10 -7 -10 -15z"/>
 <path d="M860 1805 c0 -8 5 -15 10 -15 6 0 10 7 10 15 0 8 -4 15 -10 15 -5 0 -10 -7 -10 -15z"/>
 <path d="M600 1795 c0 -8 9 -15 20 -15 11 0 20 7 20 15 0 8 -9 15 -20 15 -11 0 -20 -7 -20 -15z"/>
 <path d="M730 1795 c0 -8 9 -15 20 -15 11 0 20 7 20 15 0 8 -9 15 -20 15 -11 0 -20 -7 -20 -15z"/>
 <path d="M1900 1775 c0 -8 5 -15 10 -15 6 0 10 7 10 15 0 8 -4 15 -10 15 -5 0 -10 -7 -10 -15z"/>
 <path d="M1530 1770 c0 -5 7 -10 15 -10 8 0 15 5 15 10 0 6 -7 10 -15 10 -8 0 -15 -4 -15 -10z"/>
 <path d="M1592 1768 c6 -18 28 -21 28 -4 0 9 -7 16 -16 16 -9 0 -14 -5 -12 -12z"/>
 <path d="M1660 1755 c0 -8 7 -15 15 -15 8 0 15 7 15 15 0 8 -7 15 -15 15 -8 0 -15 -7 -15 -15z"/>
 <path d="M2594 1756 c-10 -26 0 -51 21 -51 16 0 20 7 20 30 0 33 -30 49 -41 21z"/>
 <path d="M1740 1715 c0 -8 5 -15 10 -15 6 0 10 7 10 15 0 8 -4 15 -10 15 -5 0 -10 -7 -10 -15z"/>
 <path d="M1700 1705 c0 -8 5 -15 10 -15 6 0 10 7 10 15 0 8 -4 15 -10 15 -5 0 -10 -7 -10 -15z"/>
 <path d="M1640 1695 c0 -8 7 -15 15 -15 8 0 15 7 15 15 0 8 -7 15 -15 15 -8 0 -15 -7 -15 -15z"/>
 <path d="M2478 1644 c-131 -204 -143 -219 -185 -239 -49 -23 -59 -49 -15 -40 l27 6 -30 -25 c-37 -32 -27 -43 24 -27 54 16 118 83 186 192 46 75 56 99 58 141 1 31 -2 52 -10 55 -6 2 -31 -26 -55 -63z"/>
 <path d="M920 1345 c0 -8 5 -15 10 -15 6 0 10 7 10 15 0 8 -4 15 -10 15 -5 0 -10 -7 -10 -15z"/>
 <path d="M1000 1345 c0 -8 7 -15 15 -15 8 0 15 7 15 15 0 8 -7 15 -15 15 -8 0 -15 -7 -15 -15z"/>
 <path d="M840 1335 c0 -8 5 -15 10 -15 6 0 10 7 10 15 0 8 -4 15 -10 15 -5 0 -10 -7 -10 -15z"/>
 <path d="M790 1325 c0 -8 5 -15 10 -15 6 0 10 7 10 15 0 8 -4 15 -10 15 -5 0 -10 -7 -10 -15z"/>
 <path d="M720 1305 c0 -8 5 -15 10 -15 6 0 10 7 10 15 0 8 -4 15 -10 15 -5 0 -10 -7 -10 -15z"/>
 <path d="M2160 1295 c0 -8 5 -15 10 -15 6 0 10 7 10 15 0 8 -4 15 -10 15 -5 0 -10 -7 -10 -15z"/>
 <path d="M870 1285 c0 -8 7 -15 15 -15 8 0 15 7 15 15 0 8 -7 15 -15 15 -8 0 -15 -7 -15 -15z"/>
 <path d="M1040 1285 c0 -8 8 -15 19 -15 10 0 40 -11 66 -25 26 -14 50 -23 53 -20 11 11 -32 44 -76 59 -56 20 -62 20 -62 1z"/>
 <path d="M1900 1285 c0 -8 5 -15 10 -15 6 0 10 7 10 15 0 8 -4 15 -10 15 -5 0 -10 -7 -10 -15z"/>
 <path d="M2120 1285 c0 -8 5 -15 10 -15 6 0 10 7 10 15 0 8 -4 15 -10 15 -5 0 -10 -7 -10 -15z"/>
 <path d="M820 1275 c0 -8 5 -15 10 -15 6 0 10 7 10 15 0 8 -4 15 -10 15 -5 0 -10 -7 -10 -15z"/>
 <path d="M2080 1275 c0 -8 5 -15 10 -15 6 0 10 7 10 15 0 8 -4 15 -10 15 -5 0 -10 -7 -10 -15z"/>
 <path d="M698 1246 c-47 -18 -98 -40 -112 -50 -30 -19 -149 -161 -154 -182 -7 -31 16 -10 78 68 57 71 74 85 135 114 39 17 89 38 113 45 23 6 42 18 42 26 0 18 -2 17 -102 -21z"/>
 <path d="M2040 1265 c0 -8 5 -15 10 -15 6 0 10 7 10 15 0 8 -4 15 -10 15 -5 0 -10 -7 -10 -15z"/>
 <path d="M2000 1255 c0 -8 5 -15 10 -15 6 0 10 7 10 15 0 8 -4 15 -10 15 -5 0 -10 -7 -10 -15z"/>
 <path d="M1903 1239 c-35 -11 -63 -24 -63 -29 0 -14 11 -13 80 7 35 9 60 22 60 30 0 16 -1 16 -77 -8z"/>
 <path d="M1220 1230 c0 -11 7 -20 15 -20 8 0 15 9 15 20 0 11 -7 20 -15 20 -8 0 -15 -9 -15 -20z"/>
 <path d="M1170 1180 c0 -5 7 -10 15 -10 8 0 15 5 15 10 0 6 -7 10 -15 10 -8 0 -15 -4 -15 -10z"/>
 <path d="M1770 1170 c0 -5 7 -10 15 -10 8 0 15 5 15 10 0 6 -7 10 -15 10 -8 0 -15 -4 -15 -10z"/>
 <path d="M1835 1148 c9 -28 81 -168 100 -194 7 -10 17 -16 20 -12 11 10 -97 226 -113 227 -9 1 -11 -6 -7 -21z"/>
 <path d="M1180 1144 c0 -16 36 -64 48 -64 8 0 12 3 10 8 -24 50 -33 62 -45 62 -7 0 -13 -3 -13 -6z"/>
 <path d="M1240 1063 c0 -5 45 -51 99 -101 71 -66 104 -104 117 -137 20 -46 51 -65 39 -22 -17 55 -62 113 -146 185 -92 79 -109 90 -109 75z"/>
 <path d="M1322 1059 c2 -7 10 -15 17 -17 8 -3 12 1 9 9 -2 7 -10 15 -17 17 -8 3 -12 -1 -9 -9z"/>
 <path d="M1392 999 c2 -7 10 -15 17 -17 8 -3 12 1 9 9 -2 7 -10 15 -17 17 -8 3 -12 -1 -9 -9z"/>
 <path d="M1860 987 c0 -7 37 -75 56 -103 11 -16 25 -40 32 -54 7 -14 21 -36 32 -50 15 -20 21 -22 33 -12 28 24 29 59 2 102 -30 47 -55 53 -55 13 0 -29 -10 -24 -33 17 -32 59 -53 90 -59 90 -5 0 -8 -1 -8 -3z"/>
 <path d="M1530 760 c0 -5 7 -10 15 -10 8 0 15 5 15 10 0 6 -7 10 -15 10 -8 0 -15 -4 -15 -10z"/>
 <path d="M1439 694 c-48 -36 -173 -98 -241 -120 -32 -10 -58 -24 -58 -31 0 -16 -6 -17 76 11 117 40 274 129 274 156 0 16 -14 12 -51 -16z"/>
 <path d="M2043 707 c3 -7 26 -43 52 -80 36 -51 52 -67 71 -67 38 0 29 21 -44 93 -65 65 -90 81 -79 54z"/>
 <path d="M1448 632 c-28 -17 -36 -32 -18 -32 15 0 60 31 60 41 0 13 -11 11 -42 -9z"/>
 <path d="M790 557 c0 -9 21 -20 58 -31 70 -19 72 -19 72 -3 0 8 -20 18 -47 25 -27 6 -56 14 -65 17 -12 5 -18 2 -18 -8z"/>
 <path d="M1100 535 c0 -8 5 -15 10 -15 6 0 10 7 10 15 0 8 -4 15 -10 15 -5 0 -10 -7 -10 -15z"/>
 <path d="M1050 525 c0 -8 7 -15 15 -15 8 0 15 7 15 15 0 8 -7 15 -15 15 -8 0 -15 -7 -15 -15z"/>
 <path d="M1080 475 c0 -8 5 -15 10 -15 6 0 10 7 10 15 0 8 -4 15 -10 15 -5 0 -10 -7 -10 -15z"/>
 <path d="M1010 465 c0 -8 5 -15 10 -15 6 0 10 7 10 15 0 8 -4 15 -10 15 -5 0 -10 -7 -10 -15z"/>
 </g>
<g id="layer4" fill="#fdfefe" stroke="none">
 <path d="M978 2523 c-10 -2 -18 -9 -18 -14 0 -22 44 -79 129 -168 84 -88 90 -104 94 -246 4 -121 3 -127 -17 -135 -11 -4 -46 -19 -77 -33 -30 -14 -83 -30 -117 -36 -34 -5 -67 -13 -73 -16 -22 -14 -326 -13 -394 1 -77 16 -98 8 -93 -35 3 -24 9 -27 86 -42 137 -27 398 -14 544 27 32 9 61 21 64 25 3 5 13 9 23 9 9 0 44 18 78 40 l61 39 -5 153 -4 152 -42 56 c-23 30 -56 71 -74 90 -95 104 -113 126 -113 132 0 8 -23 9 -52 1z"/>
 <path d="M2055 2418 c5 -83 2 -113 -12 -153 -21 -59 -31 -62 -193 -74 -127 -10 -160 -26 -225 -112 -53 -69 -70 -109 -85 -197 -15 -86 -5 -143 31 -178 l28 -27 93 18 c51 9 109 24 128 32 19 8 49 20 65 27 36 15 93 40 138 60 17 8 49 20 70 26 21 6 79 43 130 82 103 79 157 107 203 108 29 0 64 25 64 46 0 6 -6 18 -13 28 -10 14 -18 16 -33 8 -10 -5 -44 -17 -74 -26 -30 -9 -80 -34 -110 -56 -122 -87 -161 -109 -315 -172 -179 -74 -253 -98 -302 -98 l-33 0 0 58 c0 106 37 198 105 262 21 20 43 25 143 36 195 20 219 33 259 140 15 40 18 65 13 138 -6 78 -9 90 -31 107 -45 35 -49 28 -44 -83z"/>
 <path d="M2600 1740 c0 -5 7 -10 15 -10 8 0 15 5 15 10 0 6 -7 10 -15 10 -8 0 -15 -4 -15 -10z"/>
 <path d="M2265 1387 c-22 -5 -107 -27 -190 -49 -82 -21 -166 -43 -185 -48 -53 -14 -99 -39 -111 -61 -15 -29 5 -112 44 -182 68 -122 118 -197 132 -197 8 0 17 14 20 33 5 27 1 42 -24 79 -42 63 -101 188 -101 215 0 16 8 27 26 33 31 12 283 75 337 84 54 10 154 110 105 105 -7 -1 -31 -6 -53 -12z"/>
 <path d="M845 1344 c-66 -15 -162 -43 -185 -54 -8 -4 -31 -15 -50 -24 -70 -34 -91 -48 -108 -74 -9 -15 -24 -34 -32 -43 -8 -9 -25 -29 -38 -43 -15 -17 -22 -35 -20 -53 6 -50 32 -38 101 45 60 72 72 82 142 112 128 53 223 72 333 68 129 -4 171 -24 188 -88 19 -77 47 -115 151 -203 113 -97 153 -158 153 -233 0 -40 -4 -45 -45 -74 -67 -46 -178 -96 -279 -125 -112 -32 -226 -34 -317 -5 -35 10 -66 17 -69 14 -8 -8 47 -50 113 -85 50 -26 65 -30 115 -25 181 15 324 68 477 177 l87 61 -7 62 c-11 96 -37 143 -126 227 -35 33 -85 80 -112 105 -44 42 -69 92 -79 158 -4 23 -79 78 -128 94 -54 18 -197 21 -265 6z"/>
 </g>
<g id="layer5" fill="#00a651" stroke="none">
 <path d="M863 2458 c-99 -67 -218 -180 -294 -281 -61 -81 -165 -279 -155 -295 3 -5 31 -14 63 -20 220 -41 502 -11 663 71 l65 32 -4 130 c-4 148 3 135 -127 281 -39 44 -79 93 -89 107 -9 15 -23 27 -30 27 -7 0 -49 -24 -92 -52z"/>
 <path d="M2114 2372 c1 -96 -2 -113 -24 -157 -23 -44 -31 -50 -75 -62 -28 -8 -94 -16 -147 -20 -116 -7 -137 -18 -202 -101 -66 -86 -96 -219 -60 -270 25 -36 75 -24 329 80 119 49 193 87 245 124 90 64 172 109 219 118 35 6 71 31 71 48 0 18 -109 153 -172 214 -72 70 -154 134 -172 134 -9 0 -12 -29 -12 -108z"/>
 <path d="M2558 1723 c-17 -18 -28 -45 -33 -77 -10 -75 -122 -247 -189 -291 -12 -8 -116 -39 -232 -69 -240 -62 -262 -70 -270 -91 -8 -19 55 -151 130 -274 52 -86 56 -96 46 -124 -5 -16 -10 -32 -10 -35 0 -13 176 -182 190 -182 38 0 186 149 272 274 86 124 166 332 183 471 4 33 10 65 14 70 9 16 9 185 0 191 -5 3 -9 22 -9 42 0 20 -7 48 -15 62 -8 14 -18 33 -21 43 -9 24 -26 21 -56 -10z"/>
 <path d="M845 1285 c-67 -14 -170 -52 -232 -84 -40 -20 -183 -180 -183 -205 0 -21 81 -170 123 -226 61 -82 147 -169 192 -195 70 -41 190 -68 271 -61 133 11 319 84 433 168 52 39 53 41 47 80 -11 69 -42 113 -155 218 -111 104 -151 160 -151 213 0 18 -11 34 -35 52 -69 53 -184 68 -310 40z"/>
 </g>
<g id="layer6" fill="#0072bc" stroke="none">
 <path d="M1345 2639 c-122 -18 -324 -82 -332 -106 -2 -5 27 -44 64 -87 38 -43 89 -105 114 -138 l47 -60 7 -150 c8 -171 14 -158 -90 -208 -164 -80 -495 -113 -694 -69 -65 14 -73 7 -91 -75 -44 -205 -37 -406 23 -606 18 -64 37 -62 94 10 38 49 62 68 118 95 234 113 466 124 590 29 28 -21 35 -33 35 -61 0 -54 21 -83 139 -193 123 -114 158 -169 168 -263 5 -53 4 -56 -28 -85 -87 -78 -292 -168 -442 -193 -98 -16 -98 -32 -2 -71 341 -140 738 -108 1048 85 108 68 156 126 75 93 l-35 -15 -74 105 c-134 190 -167 240 -218 335 -87 164 -91 215 -20 243 22 9 129 39 237 67 108 28 209 57 223 65 38 19 80 70 149 184 34 55 70 106 80 113 9 6 36 29 60 50 l42 39 -11 44 c-17 66 -87 225 -110 248 -19 19 -21 19 -39 3 -10 -9 -26 -17 -34 -17 -38 0 -108 -35 -199 -100 -53 -39 -126 -82 -161 -96 -35 -15 -110 -46 -168 -71 -116 -49 -233 -83 -290 -83 -33 0 -40 4 -54 34 -37 78 -7 230 63 327 63 86 102 105 226 112 191 11 221 40 219 207 0 52 -6 105 -12 116 -22 42 -246 121 -407 144 -83 11 -226 11 -310 -1z"/>
 <path d="M2640 1485 c0 -24 5 -35 15 -35 10 0 15 11 15 35 0 24 -5 35 -15 35 -10 0 -15 -11 -15 -35z"/>
 <path d="M2630 1335 c0 -8 7 -15 15 -15 8 0 15 7 15 15 0 8 -7 15 -15 15 -8 0 -15 -7 -15 -15z"/>
 <path d="M2417 804 c-25 -33 -11 -46 13 -14 11 14 20 28 20 33 0 14 -15 6 -33 -19z"/>
 <path d="M2305 680 c-32 -33 -56 -62 -52 -66 13 -13 127 94 127 120 0 16 -21 1 -75 -54z"/>
 </g>
<g id="layer7" fill="#fff899" stroke="none">
 <path d="M0 1500 l0 -1500 1500 0 1500 0 0 1500 0 1500 -1500 0 -1500 0 0 -1500z m1655 1120 c100 -15 208 -44 295 -81 41 -17 85 -33 97 -34 41 -6 169 -98 253 -184 459 -467 466 -1196 15 -1646 -335 -335 -866 -430 -1291 -229 -28 13 -59 24 -69 24 -27 0 -123 55 -205 118 -152 118 -293 328 -320 477 -4 22 -17 76 -28 120 -139 522 98 1073 563 1313 208 107 468 153 690 122z"/>
 </g>

</svg>