<!DOCTYPE svg PUBLIC "-//W3C//DTD SVG 20010904//EN" "http://www.w3.org/TR/2001/REC-SVG-20010904/DTD/svg10.dtd">
<svg version="1.0" xmlns="http://www.w3.org/2000/svg" width="300px" height="300px" viewBox="0 0 3000 3000" preserveAspectRatio="xMidYMid meet">
<g id="layer1" fill="#2e3192" stroke="none">
 <path d="M1575 1538 c-3 -7 -4 -60 -2 -118 l2 -105 200 0 200 0 0 115 0 115 -198 3 c-153 2 -199 0 -202 -10z"/>
 </g>
<g id="layer2" fill="#ed1c24" stroke="none">
 <path d="M2317 2072 c-10 -10 -17 -32 -17 -48 0 -16 39 -124 86 -239 47 -116 97 -243 110 -283 33 -101 50 -131 79 -138 27 -7 49 6 66 38 15 28 -15 115 -157 457 -35 84 -64 159 -64 166 0 23 -41 65 -64 65 -13 0 -30 -8 -39 -18z"/>
 <path d="M647 2053 c-16 -18 -73 -175 -108 -297 -11 -37 -30 -94 -43 -125 -28 -65 -76 -220 -76 -242 0 -20 41 -59 62 -59 37 0 60 52 163 370 14 41 40 120 59 175 42 120 45 158 14 179 -29 21 -51 20 -71 -1z"/>
 <path d="M2135 2000 c-11 -12 -15 -28 -12 -42 19 -78 32 -119 53 -168 12 -30 27 -74 33 -96 6 -23 31 -86 55 -140 24 -55 56 -133 70 -174 15 -41 34 -83 43 -92 36 -40 93 -8 93 50 0 18 -25 94 -57 170 -73 177 -131 334 -147 397 -16 63 -31 92 -56 105 -29 15 -55 12 -75 -10z"/>
 <path d="M781 1974 c-11 -14 -27 -51 -36 -82 -36 -128 -118 -385 -146 -458 -35 -90 -34 -109 4 -137 27 -21 27 -21 53 -1 32 23 73 126 144 359 28 94 60 195 71 226 24 69 24 82 1 102 -28 25 -67 21 -91 -9z"/>
 </g>
<g id="layer3" fill="#534741" stroke="none">
 <path d="M1058 2859 c-113 -16 -218 -87 -218 -146 0 -41 66 -97 147 -124 57 -20 88 -24 193 -24 152 0 237 24 301 84 l39 38 15 -23 c25 -39 130 -82 230 -95 175 -23 360 27 409 110 19 34 19 34 0 70 -45 83 -233 135 -412 112 -98 -13 -202 -57 -228 -96 l-16 -24 -24 29 c-66 78 -253 116 -436 89z"/>
 <path d="M1264 897 c-26 -18 -63 -55 -81 -81 -30 -44 -33 -55 -33 -121 0 -66 3 -77 33 -121 18 -26 55 -63 81 -81 l48 -33 208 0 208 0 48 33 c26 18 63 55 81 81 30 44 33 55 33 121 0 66 -3 77 -33 121 -18 26 -55 63 -81 81 l-48 33 -208 0 -208 0 -48 -33z"/>
 </g>
<g id="layer4" fill="#ffffff" stroke="none">
 <path d="M1290 2855 c0 -8 7 -15 15 -15 8 0 15 7 15 15 0 8 -7 15 -15 15 -8 0 -15 -7 -15 -15z"/>
 <path d="M1720 2855 c0 -8 9 -15 20 -15 11 0 20 7 20 15 0 8 -9 15 -20 15 -11 0 -20 -7 -20 -15z"/>
 <path d="M1940 2855 c0 -8 9 -15 20 -15 11 0 20 7 20 15 0 8 -9 15 -20 15 -11 0 -20 -7 -20 -15z"/>
 <path d="M1465 2655 c-16 -14 -59 -35 -95 -47 -55 -19 -85 -23 -195 -22 -138 1 -210 18 -275 64 -17 12 -34 18 -40 15 -6 -4 -10 -125 -10 -334 l0 -328 -57 28 c-32 16 -61 29 -65 29 -5 0 -8 -19 -8 -42 -1 -24 -16 -88 -36 -143 -19 -55 -45 -134 -59 -175 -13 -41 -45 -135 -70 -209 -25 -74 -42 -138 -37 -143 4 -4 21 -10 37 -13 30 -6 30 -5 58 77 35 102 130 403 152 479 19 67 32 87 64 91 41 5 48 -22 24 -94 -12 -35 -45 -139 -73 -233 -29 -93 -68 -210 -87 -259 -19 -49 -32 -94 -29 -101 2 -6 51 -31 108 -55 56 -23 126 -53 155 -65 l51 -23 -44 -89 c-97 -192 -98 -388 -3 -583 59 -120 179 -240 299 -299 193 -94 387 -94 580 0 120 59 240 179 299 299 94 192 94 388 0 578 -22 46 -39 85 -37 87 1 2 72 33 156 70 86 38 152 73 152 81 0 20 -48 148 -96 258 -24 54 -49 117 -55 140 -6 22 -21 66 -33 96 -23 53 -42 116 -53 172 -4 23 -1 29 21 38 l26 10 0 325 c0 258 -3 327 -13 331 -7 2 -42 -11 -78 -29 -142 -74 -350 -73 -505 3 -44 22 -85 40 -90 40 -5 -1 -22 -12 -39 -25z m495 -1165 l0 -40 -185 0 -185 0 0 40 0 40 185 0 185 0 0 -40z m0 -120 l0 -40 -185 0 -185 0 0 40 0 40 185 0 185 0 0 -40z m-190 -489 c23 -16 55 -48 71 -71 25 -37 29 -52 29 -115 0 -63 -4 -78 -29 -115 -16 -23 -48 -55 -71 -71 l-43 -29 -207 0 -207 0 -43 29 c-23 16 -55 48 -71 71 -25 37 -29 52 -29 115 0 63 4 78 29 115 16 23 48 55 71 71 l43 29 207 0 207 0 43 -29z"/>
 <path d="M515 2086 c-79 -25 -154 -67 -190 -107 -45 -50 -88 -143 -104 -227 -14 -72 -3 -121 48 -223 29 -58 121 -142 150 -137 15 3 50 93 122 318 12 36 34 101 50 145 16 44 36 104 45 133 8 29 22 56 30 59 31 12 12 31 -43 42 -66 13 -57 13 -108 -3z"/>
 <path d="M2420 2093 c-14 -3 -28 -8 -32 -11 -9 -9 9 -62 82 -237 85 -204 115 -282 140 -357 12 -37 26 -70 31 -74 14 -8 89 50 111 87 10 17 30 61 44 98 21 54 25 77 21 131 -6 77 -51 183 -103 247 -57 69 -212 130 -294 116z"/>
 <path d="M2253 2039 c-46 -21 -50 -28 -31 -62 6 -12 17 -44 24 -72 16 -63 74 -220 147 -397 32 -76 57 -144 57 -152 0 -25 20 -29 67 -11 37 15 44 21 40 39 -13 50 -71 205 -148 391 -45 110 -85 218 -88 239 -3 22 -10 40 -16 42 -5 1 -29 -7 -52 -17z"/>
 </g>
<g id="layer5" fill="#7bcbc3" stroke="none">
 <path d="M0 1500 l0 -1500 1500 0 1500 0 0 1500 0 1500 -1500 0 -1500 0 0 -1500z m1317 1338 c2 -5 13 -8 24 -8 26 0 123 -46 140 -66 7 -9 16 -37 19 -63 3 -32 10 -46 20 -46 10 0 15 11 15 35 0 19 4 45 8 57 9 25 117 83 153 83 13 0 25 4 28 8 6 11 241 10 252 0 4 -5 17 -8 29 -8 35 0 141 -58 152 -83 7 -14 11 -156 12 -377 1 -199 6 -359 11 -364 13 -13 78 8 125 40 32 21 50 25 119 27 80 1 135 -13 224 -59 60 -31 140 -180 149 -281 8 -82 -33 -199 -88 -252 -83 -81 -110 -101 -131 -101 -13 0 -45 -9 -73 -19 -36 -14 -51 -25 -55 -42 -5 -21 -12 -24 -50 -25 -32 0 -86 -19 -185 -63 -77 -34 -146 -68 -154 -76 -11 -11 -6 -26 28 -96 94 -191 94 -387 0 -579 -103 -209 -331 -350 -569 -350 -238 0 -466 141 -569 350 -95 195 -94 391 3 584 25 49 43 92 41 97 -10 15 -342 149 -357 144 -8 -3 -31 8 -53 25 -32 26 -46 30 -84 28 -41 -3 -47 0 -59 25 -7 15 -17 27 -23 27 -5 0 -32 17 -60 37 -52 39 -80 87 -115 192 -26 79 -7 159 72 303 20 38 67 71 144 104 79 33 161 36 230 7 113 -48 161 -64 170 -58 8 5 11 116 9 381 -1 284 1 377 11 389 20 25 117 65 178 74 67 11 252 9 259 -1z"/>
 <path d="M1510 1726 c0 -9 7 -16 16 -16 17 0 14 22 -4 28 -7 2 -12 -3 -12 -12z"/>
 </g>

</svg>