<!DOCTYPE svg PUBLIC "-//W3C//DTD SVG 20010904//EN" "http://www.w3.org/TR/2001/REC-SVG-20010904/DTD/svg10.dtd">
<svg version="1.0" xmlns="http://www.w3.org/2000/svg" width="300px" height="300px" viewBox="0 0 3000 3000" preserveAspectRatio="xMidYMid meet">
<g id="layer1" fill="#dcd5cb" stroke="none">
 <path d="M1380 1135 c0 -9 9 -15 25 -15 16 0 25 6 25 15 0 9 -9 15 -25 15 -16 0 -25 -6 -25 -15z"/>
 <path d="M1510 1135 c0 -8 7 -15 15 -15 8 0 15 7 15 15 0 8 -7 15 -15 15 -8 0 -15 -7 -15 -15z"/>
 <path d="M1570 1125 c0 -8 5 -15 10 -15 6 0 10 7 10 15 0 8 -4 15 -10 15 -5 0 -10 -7 -10 -15z"/>
 </g>
<g id="layer2" fill="#d47e19" stroke="none">
 <path d="M1238 1216 c-60 -29 -78 -44 -78 -66 0 -19 30 -50 48 -50 18 0 14 21 -5 36 -17 13 -16 15 7 34 14 11 42 25 63 32 20 6 37 17 37 25 0 18 -18 16 -72 -11z"/>
 <path d="M1510 1225 c0 -8 9 -15 20 -15 11 0 20 7 20 15 0 8 -9 15 -20 15 -11 0 -20 -7 -20 -15z"/>
 <path d="M1620 1216 c0 -8 8 -17 18 -20 30 -10 65 -53 58 -72 -6 -16 -25 -15 -70 2 -10 4 -16 1 -16 -10 0 -9 16 -20 40 -27 37 -11 43 -11 62 8 29 29 18 61 -33 101 -47 35 -59 39 -59 18z"/>
 <path d="M1273 1139 c-19 -6 -33 -16 -33 -25 0 -10 6 -14 18 -10 9 3 29 8 45 12 15 3 27 12 27 20 0 16 -11 16 -57 3z"/>
 </g>
<g id="layer3" fill="#020100" stroke="none">
 <path d="M1244 1209 c-59 -29 -81 -54 -64 -74 25 -30 45 -34 86 -20 63 23 267 20 348 -5 71 -22 106 -16 106 18 0 23 -56 77 -93 91 -16 6 -99 11 -185 11 -138 0 -162 -2 -198 -21z"/>
 </g>
<g id="layer4" fill="#eeeeee" stroke="none">
 <path d="M799 1564 c-22 -27 -16 -203 9 -282 30 -94 68 -127 92 -81 17 30 13 185 -5 254 -28 105 -65 147 -96 109z"/>
 <path d="M1354 1141 c-2 -2 -4 -260 -4 -573 l0 -568 130 0 130 0 0 560 0 560 -27 12 c-26 11 -219 19 -229 9z"/>
 </g>
<g id="layer5" fill="#f6941d" stroke="none">
 <path d="M1196 2549 c-150 -23 -263 -66 -320 -123 -20 -20 -58 -90 -100 -182 -132 -291 -174 -458 -183 -724 -6 -202 4 -288 46 -377 35 -73 61 -96 139 -128 128 -52 530 -129 577 -111 12 4 15 28 15 120 0 63 -4 118 -10 121 -5 3 -34 -1 -65 -10 -71 -21 -109 -17 -113 11 -2 17 7 26 43 44 40 19 61 22 183 22 241 0 228 1 267 -33 37 -32 46 -66 20 -75 -13 -5 -35 0 -87 21 -17 7 -18 -2 -18 -104 0 -96 2 -113 17 -118 26 -10 221 15 329 42 140 35 251 92 328 168 56 55 66 71 84 132 52 174 102 509 102 680 0 67 -82 356 -126 446 -27 55 -106 128 -172 161 -47 23 -49 23 -472 25 -234 1 -452 -3 -484 -8z m-351 -1008 c27 -54 46 -144 46 -228 1 -99 -6 -129 -27 -112 -39 32 -79 280 -55 342 13 34 17 34 36 -2z"/>
 </g>
<g id="layer6" fill="#55b948" stroke="none">
 <path d="M0 1500 l0 -1500 685 0 685 0 -2 458 -3 457 -140 18 c-169 21 -389 74 -470 113 -51 25 -64 37 -88 81 -48 90 -60 173 -54 383 6 202 27 322 85 495 43 128 160 380 189 410 33 32 112 70 187 90 126 32 223 37 629 33 392 -3 403 -4 448 -26 67 -32 127 -88 153 -141 44 -90 126 -379 126 -446 0 -100 -31 -371 -56 -490 -45 -215 -59 -252 -120 -312 -102 -99 -296 -171 -527 -194 -62 -6 -118 -13 -124 -15 -10 -3 -13 -103 -13 -459 l0 -455 705 0 705 0 0 1500 0 1500 -1500 0 -1500 0 0 -1500z"/>
 </g>

</svg>