<!DOCTYPE svg PUBLIC "-//W3C//DTD SVG 20010904//EN" "http://www.w3.org/TR/2001/REC-SVG-20010904/DTD/svg10.dtd">
<svg version="1.0" xmlns="http://www.w3.org/2000/svg" width="300px" height="300px" viewBox="0 0 3000 3000" preserveAspectRatio="xMidYMid meet">
<g id="layer1" fill="#814090" stroke="none">
 <path d="M1560 2295 c0 -9 9 -15 25 -15 16 0 25 6 25 15 0 9 -9 15 -25 15 -16 0 -25 -6 -25 -15z"/>
 <path d="M1930 2295 c0 -8 9 -15 20 -15 11 0 20 7 20 15 0 8 -9 15 -20 15 -11 0 -20 -7 -20 -15z"/>
 <path d="M1460 2285 c0 -8 9 -15 20 -15 11 0 20 7 20 15 0 8 -9 15 -20 15 -11 0 -20 -7 -20 -15z"/>
 <path d="M1990 2288 c0 -7 27 -21 60 -31 33 -9 60 -22 60 -27 0 -6 7 -10 15 -10 40 0 -2 43 -64 65 -53 18 -71 19 -71 3z"/>
 <path d="M1380 2275 c0 -8 9 -15 20 -15 11 0 20 7 20 15 0 8 -9 15 -20 15 -11 0 -20 -7 -20 -15z"/>
 <path d="M1300 2265 c0 -8 7 -15 15 -15 8 0 15 7 15 15 0 8 -7 15 -15 15 -8 0 -15 -7 -15 -15z"/>
 <path d="M1220 2255 c0 -8 9 -15 20 -15 11 0 20 7 20 15 0 8 -9 15 -20 15 -11 0 -20 -7 -20 -15z"/>
 <path d="M1150 2245 c0 -8 9 -15 20 -15 11 0 20 7 20 15 0 8 -9 15 -20 15 -11 0 -20 -7 -20 -15z"/>
 <path d="M1080 2235 c0 -8 7 -15 15 -15 8 0 15 7 15 15 0 8 -7 15 -15 15 -8 0 -15 -7 -15 -15z"/>
 <path d="M1000 2225 c0 -8 9 -15 20 -15 11 0 20 7 20 15 0 8 -9 15 -20 15 -11 0 -20 -7 -20 -15z"/>
 <path d="M920 2215 c0 -8 9 -15 20 -15 11 0 20 7 20 15 0 8 -9 15 -20 15 -11 0 -20 -7 -20 -15z"/>
 <path d="M792 2195 c-48 -60 -250 -599 -238 -632 7 -18 46 -17 46 1 0 8 -4 16 -10 18 -15 5 114 374 187 531 30 64 40 77 60 77 14 0 23 6 23 15 0 25 -46 18 -68 -10z"/>
 <path d="M2120 2165 c0 -8 7 -15 15 -15 8 0 15 7 15 15 0 8 -7 15 -15 15 -8 0 -15 -7 -15 -15z"/>
 <path d="M2130 2115 c0 -8 7 -15 15 -15 8 0 15 7 15 15 0 8 -7 15 -15 15 -8 0 -15 -7 -15 -15z"/>
 <path d="M2140 2072 c0 -14 59 -221 86 -304 17 -52 31 -78 41 -78 8 0 13 6 10 13 -16 42 -78 244 -93 305 -11 42 -24 72 -31 72 -7 0 -13 -4 -13 -8z"/>
 </g>
<g id="layer2" fill="#603913" stroke="none">
 <path d="M1159 1411 c-17 -18 -29 -40 -29 -56 0 -16 12 -38 29 -56 18 -17 40 -29 56 -29 35 0 85 50 85 85 0 35 -50 85 -85 85 -16 0 -38 -12 -56 -29z"/>
 <path d="M1759 1331 c-17 -18 -29 -40 -29 -56 0 -35 50 -85 85 -85 35 0 85 50 85 85 0 35 -50 85 -85 85 -16 0 -38 -12 -56 -29z"/>
 <path d="M887 1152 c-36 -38 -36 -80 1 -115 17 -17 39 -27 57 -27 40 0 85 45 85 85 0 21 -9 40 -28 58 -38 36 -80 36 -115 -1z"/>
 <path d="M1439 1071 c-17 -18 -29 -40 -29 -56 0 -35 50 -85 85 -85 35 0 85 50 85 85 0 35 -50 85 -85 85 -16 0 -38 -12 -56 -29z"/>
 <path d="M2029 1071 c-17 -18 -29 -40 -29 -56 0 -35 50 -85 85 -85 35 0 85 50 85 85 0 35 -50 85 -85 85 -16 0 -38 -12 -56 -29z"/>
 </g>
<g id="layer3" fill="#712779" stroke="none">
 <path d="M1500 2359 c-41 -4 -176 -22 -300 -39 -124 -17 -267 -34 -318 -39 -68 -6 -98 -13 -113 -27 -30 -27 -110 -197 -167 -354 -69 -187 -124 -369 -117 -380 18 -29 104 12 92 43 -11 29 139 451 209 588 23 46 27 49 63 49 21 0 155 16 297 34 396 53 465 59 675 54 161 -4 202 -8 243 -24 l49 -19 23 -113 c25 -122 68 -276 106 -382 20 -58 26 -65 52 -68 16 -2 32 0 36 5 5 4 -7 53 -25 108 -46 135 -94 326 -102 400 -8 79 -41 114 -138 146 -62 20 -93 23 -280 25 -115 1 -244 -2 -285 -7z"/>
 <path d="M1120 1555 c0 -8 7 -15 15 -15 8 0 15 7 15 15 0 8 -7 15 -15 15 -8 0 -15 -7 -15 -15z"/>
 </g>
<g id="layer4" fill="#7127a3" stroke="none">
 <path d="M1585 2304 c-16 -2 -73 -9 -125 -15 -89 -10 -477 -59 -600 -76 -53 -8 -56 -10 -82 -58 -59 -108 -225 -565 -213 -585 9 -15 35 -12 95 11 92 35 186 36 320 1 190 -49 200 -49 256 -7 93 71 193 105 315 105 63 0 68 -2 144 -55 l79 -55 84 0 c81 0 83 1 117 34 42 42 116 68 215 75 58 5 75 9 74 21 -1 8 -20 76 -43 150 -23 74 -51 185 -62 245 -29 152 -31 155 -114 184 -63 22 -89 25 -250 27 -99 1 -193 0 -210 -2z"/>
 </g>
<g id="layer5" fill="#fcc588" stroke="none">
 <path d="M1418 1684 c-69 -16 -119 -41 -182 -88 -25 -20 -57 -36 -71 -36 -14 0 -87 16 -163 36 -116 30 -148 35 -212 31 -81 -5 -160 -31 -221 -72 -26 -17 -53 -25 -81 -25 -28 0 -61 -10 -92 -28 -48 -26 -51 -30 -78 -112 -25 -72 -29 -97 -25 -162 12 -232 234 -433 577 -521 224 -58 389 -74 875 -83 310 -5 369 -4 427 10 97 23 148 50 222 117 116 107 200 238 245 383 41 132 19 345 -37 371 -12 5 -22 18 -22 28 0 30 -28 74 -65 102 -57 44 -142 65 -265 65 -132 0 -216 -23 -277 -75 -40 -34 -44 -35 -120 -35 l-79 0 -79 55 c-78 54 -79 55 -149 54 -39 0 -97 -7 -128 -15z m-158 -284 c11 -11 20 -31 20 -45 0 -14 -9 -34 -20 -45 -11 -11 -31 -20 -45 -20 -14 0 -34 9 -45 20 -11 11 -20 31 -20 45 0 14 9 34 20 45 11 11 31 20 45 20 14 0 34 -9 45 -20z m600 -80 c11 -11 20 -31 20 -45 0 -14 -9 -34 -20 -45 -11 -11 -31 -20 -45 -20 -14 0 -34 9 -45 20 -11 11 -20 31 -20 45 0 14 9 34 20 45 11 11 31 20 45 20 14 0 34 -9 45 -20z m-868 -177 c22 -20 23 -70 1 -95 -20 -22 -70 -23 -95 -1 -22 20 -23 70 -1 95 20 22 70 23 95 1z m548 -83 c11 -11 20 -31 20 -45 0 -14 -9 -34 -20 -45 -11 -11 -31 -20 -45 -20 -14 0 -34 9 -45 20 -11 11 -20 31 -20 45 0 14 9 34 20 45 11 11 31 20 45 20 14 0 34 -9 45 -20z m590 0 c11 -11 20 -31 20 -45 0 -14 -9 -34 -20 -45 -11 -11 -31 -20 -45 -20 -14 0 -34 9 -45 20 -11 11 -20 31 -20 45 0 14 9 34 20 45 11 11 31 20 45 20 14 0 34 -9 45 -20z"/>
 </g>
<g id="layer6" fill="#f79779" stroke="none">
 <path d="M0 1500 l0 -1500 1500 0 1500 0 0 1500 0 1500 -1500 0 -1500 0 0 -1500z m2002 835 c92 -19 156 -49 167 -77 5 -13 14 -59 21 -103 13 -88 89 -362 118 -429 18 -38 23 -43 73 -54 113 -26 164 -65 178 -135 4 -19 15 -36 28 -41 53 -24 72 -233 32 -362 -67 -218 -231 -413 -393 -466 -70 -23 -77 -23 -446 -21 -206 1 -431 7 -500 13 -503 43 -810 180 -925 413 -53 108 -58 187 -20 307 28 86 29 88 74 109 25 11 55 21 65 23 15 2 31 42 81 193 76 229 124 354 178 458 43 85 60 97 127 97 22 0 156 16 297 35 373 50 400 52 598 54 122 0 202 -4 247 -14z"/>
 </g>

</svg>