<?xml version="1.0" encoding="utf-8"?>
<!-- Generator: Adobe Illustrator 19.2.0, SVG Export Plug-In . SVG Version: 6.00 Build 0)  -->
<svg version="1.1" id="Layer_1" xmlns="http://www.w3.org/2000/svg" xmlns:xlink="http://www.w3.org/1999/xlink" x="0px" y="0px"
	 viewBox="0 0 188.5 142.6" style="enable-background:new 0 0 188.5 142.6;" xml:space="preserve">
<style type="text/css">
	.st0{fill:#A4002D;}
	.st1{fill:#FFFFF4;}
	.st2{fill:#9DA9AC;}
	.st3{fill:#9DA9AC;stroke:#FFFFF4;stroke-width:3;stroke-miterlimit:10;}
	.st4{fill:#CA002D;}
	.st5{fill:#FFFFFF;}
</style>
<rect x="154.4" y="97.8" class="st0" width="27.6" height="9.2"/>
<rect x="6.9" y="97.8" class="st0" width="28.3" height="9.2"/>
<path class="st1" d="M23,62.6c0,0-28.1-13.4,11.3-29.8S159.1,2.8,159.1,2.8l1.6,8.5c0,0-188.1,23.3-134.4,50.1"/>
<circle class="st2" cx="94.3" cy="71.3" r="71.3"/>
<circle class="st1" cx="102.1" cy="61.4" r="55"/>
<circle class="st3" cx="60.4" cy="29" r="5.1"/>
<circle class="st3" cx="49.2" cy="64.9" r="12.2"/>
<circle class="st3" cx="122.9" cy="63.6" r="14.8"/>
<g>
	<path class="st4" d="M181.9,107C123.3,95.8,65.3,95.8,6.6,107C4.4,96.3,2.2,85.7,0,75c63-12.1,125.6-12.1,188.5,0
		C186.3,85.7,184.1,96.3,181.9,107z"/>
</g>
<g>
	<g>
		<path class="st5" d="M27,78.8c1.3-0.2,2-0.3,3.3-0.4c0.8,5.7,1.2,8.5,1.9,14.2c-1.3,0.2-1.9,0.3-3.2,0.4c-0.3-2.2-0.5-3.4-0.8-5.6
			c-2.3,0.3-3.5,0.5-5.8,0.8c0.3,2.2,0.5,3.3,0.9,5.6c-1.3,0.2-1.9,0.3-3.2,0.5c-0.9-5.7-1.4-8.5-2.3-14.2c1.3-0.2,2-0.3,3.3-0.5
			c0.4,2.4,0.6,3.6,0.9,5.9c2.3-0.3,3.5-0.5,5.8-0.8C27.5,82.4,27.3,81.2,27,78.8z"/>
		<path class="st5" d="M43.1,91.3c-1.3,0.1-1.9,0.2-3.2,0.4c-0.3-2.3-0.4-3.4-0.7-5.6c-2.4-3.2-3.7-4.8-6.2-8
			c1.4-0.2,2.2-0.3,3.6-0.4c1.5,2,2.3,3,3.8,4.9c1-2.3,1.6-3.4,2.6-5.6c1.4-0.1,2.2-0.2,3.6-0.4c-1.7,3.7-2.6,5.5-4.2,9.1
			C42.7,88,42.8,89.1,43.1,91.3z"/>
		<path class="st5" d="M59.8,76.8c1.1,0.8,1.7,2.1,1.8,3.8c0.1,1.8-0.3,3.1-1.3,4c-1,0.9-2.6,1.4-4.7,1.6c-0.8,0.1-1.2,0.1-1.9,0.2
			c0.1,1.6,0.2,2.4,0.3,4c-1.3,0.1-1.9,0.2-3.2,0.3c-0.5-5.7-0.8-8.6-1.4-14.3c2.1-0.2,3.2-0.3,5.3-0.4C57,75.7,58.7,76,59.8,76.8z
			 M57.8,82.6c0.4-0.5,0.5-1.1,0.4-1.9c-0.1-0.8-0.4-1.4-0.9-1.7c-0.5-0.3-1.4-0.4-2.5-0.3c-0.8,0.1-1.1,0.1-1.9,0.2
			c0.2,1.9,0.3,2.9,0.4,4.8c0.9-0.1,1.3-0.1,2.2-0.2C56.7,83.3,57.4,83,57.8,82.6z"/>
		<path class="st5" d="M75.8,74.6c0,1.1,0.1,1.7,0.1,2.8c-3,0.1-4.4,0.2-7.4,0.3c0.1,1.2,0.1,1.8,0.2,3c2.6-0.1,4-0.2,6.6-0.3
			c0,1.1,0.1,1.6,0.1,2.7c-2.6,0.1-3.9,0.2-6.6,0.3c0.1,1.2,0.1,1.8,0.2,3c3-0.2,4.5-0.2,7.5-0.3c0,1.1,0.1,1.7,0.1,2.8
			c-4.3,0.2-6.4,0.3-10.7,0.5c-0.4-5.7-0.5-8.6-0.9-14.3C69.3,74.9,71.5,74.8,75.8,74.6z"/>
		<path class="st5" d="M92.3,79.1c0,2.3-0.9,3.8-2.8,4.5c1.5,2,2.3,3.1,3.7,5.1c-1.6,0-2.4,0-4,0c-1.3-1.8-2-2.7-3.3-4.5
			c-0.9,0-1.4,0-2.3,0c0,1.8,0.1,2.7,0.1,4.6c-1.3,0-1.9,0-3.2,0.1c-0.2-5.7-0.3-8.6-0.4-14.3c2.3-0.1,3.4-0.1,5.7-0.1
			c2.3,0,4,0.3,5,1.1C91.8,76.2,92.3,77.4,92.3,79.1z M88.3,80.8c0.4-0.4,0.6-0.9,0.6-1.7c0-0.8-0.2-1.3-0.7-1.6
			c-0.4-0.3-1.2-0.4-2.2-0.4c-1,0-1.5,0-2.5,0c0,1.7,0.1,2.5,0.1,4.2c1,0,1.4,0,2.4,0C87.1,81.3,87.9,81.2,88.3,80.8z"/>
		<path class="st5" d="M100.3,77.2c-0.3,0.2-0.5,0.6-0.5,1c0,0.4,0.2,0.8,0.6,1c0.4,0.3,1.3,0.6,2.7,0.9c1.4,0.4,2.5,0.9,3.2,1.6
			c0.8,0.7,1.1,1.7,1.1,3c0,1.3-0.6,2.3-1.6,3.1s-2.3,1.2-3.9,1.1c-2.3,0-4.4-0.9-6.2-2.6c0.8-0.9,1.2-1.4,2-2.3
			c1.6,1.4,3,2.1,4.4,2.1c0.6,0,1.1-0.1,1.4-0.4c0.3-0.2,0.5-0.6,0.5-1c0-0.4-0.2-0.8-0.5-1c-0.4-0.3-1.1-0.5-2.2-0.8
			c-1.7-0.4-3-0.9-3.7-1.6c-0.8-0.6-1.2-1.6-1.2-3c0-1.4,0.5-2.4,1.5-3.1c1-0.7,2.3-1.1,3.8-1.1c1,0,2,0.2,3,0.5
			c1,0.3,1.9,0.8,2.6,1.5c-0.7,0.9-1,1.4-1.7,2.3c-1.3-1-2.6-1.5-4-1.5C101,76.8,100.6,76.9,100.3,77.2z"/>
		<path class="st5" d="M121.8,76.3c1,0.9,1.4,2.3,1.3,4c-0.1,1.8-0.7,3-1.8,3.8c-1.1,0.8-2.7,1.1-4.9,1c-0.8,0-1.2-0.1-1.9-0.1
			c-0.1,1.6-0.1,2.4-0.2,4c-1.3-0.1-1.9-0.1-3.2-0.1c0.2-5.7,0.3-8.6,0.5-14.3c2.1,0.1,3.2,0.1,5.3,0.2
			C119.2,74.9,120.8,75.4,121.8,76.3z M119.1,81.8c0.4-0.4,0.6-1,0.7-1.9c0-0.8-0.2-1.4-0.7-1.8c-0.5-0.4-1.3-0.6-2.4-0.6
			c-0.8,0-1.1-0.1-1.9-0.1c-0.1,1.9-0.1,2.9-0.2,4.8c0.9,0,1.3,0.1,2.2,0.1C117.9,82.4,118.7,82.2,119.1,81.8z"/>
		<path class="st5" d="M135.7,90.4c-0.4-1.3-0.6-1.9-1.1-3.2c-2.4-0.2-3.7-0.3-6.1-0.5c-0.6,1.2-0.9,1.8-1.6,3
			c-1.4-0.1-2.1-0.1-3.4-0.2c2.9-5.6,4.3-8.4,7.4-13.9c1.3,0.1,1.9,0.1,3.2,0.2c2.1,5.9,3.1,8.9,5.1,14.8
			C137.8,90.6,137.1,90.5,135.7,90.4z M132.1,80c-0.9,1.6-1.3,2.4-2.2,4c1.5,0.1,2.2,0.2,3.7,0.3C133.1,82.6,132.8,81.7,132.1,80z"
			/>
		<path class="st5" d="M148.9,88.8c1.6,0.2,3-0.3,4.1-1.4c0.7,0.9,1.1,1.4,1.8,2.4c-1.9,1.6-3.9,2.3-6.2,2c-2.2-0.2-4-1.1-5.3-2.7
			c-1.3-1.5-1.9-3.4-1.6-5.5c0.2-2.1,1.1-3.8,2.8-5.1c1.7-1.3,3.6-1.8,5.8-1.5c2.4,0.3,4.4,1.4,5.8,3.4c-0.9,0.8-1.4,1.2-2.3,2
			c-0.9-1.4-2.1-2.2-3.7-2.3c-1.2-0.1-2.4,0.1-3.3,0.8c-1,0.7-1.5,1.7-1.7,3c-0.1,1.3,0.2,2.4,0.9,3.3
			C146.8,88.2,147.7,88.7,148.9,88.8z"/>
		<path class="st5" d="M170.8,80.1c-0.2,1.1-0.3,1.7-0.5,2.8c-2.9-0.5-4.4-0.7-7.3-1.1c-0.2,1.2-0.3,1.8-0.4,2.9
			c2.6,0.4,3.9,0.6,6.6,1c-0.2,1.1-0.3,1.6-0.4,2.7c-2.6-0.4-3.9-0.6-6.5-0.9c-0.2,1.2-0.3,1.8-0.4,2.9c3,0.4,4.5,0.6,7.4,1.1
			c-0.2,1.1-0.3,1.7-0.5,2.8c-4.2-0.7-6.4-1-10.6-1.5c0.8-5.7,1.2-8.5,2-14.2C164.4,79.2,166.6,79.5,170.8,80.1z"/>
	</g>
</g>
<path class="st4" d="M158,5.9c2.7,0.6,4.9,1.8,6.3,3.2c0.3-3.1-2.1-6.2-5.8-7.1c-3.9-0.9-7.7,0.9-8.6,4.2
	C151.9,5.3,154.9,5.1,158,5.9z"/>
<path class="st4" d="M158.2,10.4c2.4-1.2,4.3-2.9,5.4-4.6c1.1,3-0.6,6.6-4,8.3c-3.6,1.8-7.7,0.9-9.3-2.1
	C152.5,12.4,155.4,11.9,158.2,10.4z"/>
<path class="st2" d="M155.1,7.8c3.8,2.9,8.6,4.4,13.7,3.9s9.5-3,12.6-6.6c-3.8-2.9-8.6-4.4-13.7-3.9S158.2,4.1,155.1,7.8z"/>
</svg>
