<!DOCTYPE svg PUBLIC "-//W3C//DTD SVG 20010904//EN" "http://www.w3.org/TR/2001/REC-SVG-20010904/DTD/svg10.dtd">
<svg version="1.0" xmlns="http://www.w3.org/2000/svg" width="300px" height="300px" viewBox="0 0 3000 3000" preserveAspectRatio="xMidYMid meet">
<g id="layer1" fill="#cfb69e" stroke="none">
 <path d="M1777 2343 c-12 -11 -8 -23 8 -23 8 0 15 7 15 15 0 16 -12 20 -23 8z"/>
 <path d="M1770 2270 c0 -5 7 -10 15 -10 8 0 15 5 15 10 0 6 -7 10 -15 10 -8 0 -15 -4 -15 -10z"/>
 </g>
<g id="layer2" fill="#e7ddd5" stroke="none">
 <path d="M1760 2300 c0 -20 5 -30 15 -30 10 0 15 10 15 30 0 20 -5 30 -15 30 -10 0 -15 -10 -15 -30z"/>
 </g>
<g id="layer3" fill="#966c42" stroke="none">
 <path d="M1572 2698 c6 -18 28 -21 28 -4 0 9 -7 16 -16 16 -9 0 -14 -5 -12 -12z"/>
 <path d="M1470 2626 c0 -9 7 -16 16 -16 9 0 14 5 12 12 -6 18 -28 21 -28 4z"/>
 <path d="M1960 2471 c0 -5 10 -11 23 -15 33 -9 37 -8 37 9 0 10 -10 15 -30 15 -16 0 -30 -4 -30 -9z"/>
 <path d="M2080 2195 c0 -16 27 -32 37 -21 7 7 -16 36 -28 36 -5 0 -9 -7 -9 -15z"/>
 <path d="M2160 2007 c0 -15 20 -27 46 -27 8 0 14 7 14 15 0 8 -6 15 -14 15 -8 0 -21 3 -30 6 -10 4 -16 1 -16 -9z"/>
 <path d="M1936 1925 c-23 -17 -15 -31 11 -20 10 5 24 7 31 6 6 -1 12 5 12 14 0 19 -29 19 -54 0z"/>
 <path d="M2060 1930 c0 -5 7 -10 15 -10 8 0 15 5 15 10 0 6 -7 10 -15 10 -8 0 -15 -4 -15 -10z"/>
 <path d="M177 1846 c-4 -10 -5 -21 -2 -24 9 -9 17 6 13 25 -3 17 -4 17 -11 -1z"/>
 <path d="M120 1822 c0 -5 9 -12 21 -15 13 -3 19 -1 16 6 -5 15 -37 22 -37 9z"/>
 <path d="M1640 1745 c0 -8 7 -15 15 -15 8 0 15 7 15 15 0 8 -7 15 -15 15 -8 0 -15 -7 -15 -15z"/>
 <path d="M1616 1596 c-18 -28 -20 -36 -8 -36 10 0 35 50 29 57 -2 2 -12 -8 -21 -21z"/>
 <path d="M2820 1551 c0 -6 4 -12 10 -16 5 -3 7 -12 3 -20 -3 -10 1 -15 12 -15 12 0 15 5 11 16 -3 9 -6 22 -6 30 0 8 -7 14 -15 14 -8 0 -15 -4 -15 -9z"/>
 <path d="M2774 1206 c-9 -15 -14 -29 -11 -32 3 -3 13 6 23 20 9 15 14 29 11 32 -3 3 -13 -6 -23 -20z"/>
 <path d="M606 845 c-11 -8 -17 -17 -14 -20 10 -11 58 7 58 21 0 18 -20 17 -44 -1z"/>
 <path d="M370 620 c0 -5 7 -10 15 -10 8 0 15 5 15 10 0 6 -7 10 -15 10 -8 0 -15 -4 -15 -10z"/>
 <path d="M490 575 c0 -8 5 -15 10 -15 6 0 10 7 10 15 0 8 -4 15 -10 15 -5 0 -10 -7 -10 -15z"/>
 <path d="M780 545 c0 -8 5 -15 10 -15 6 0 10 7 10 15 0 8 -4 15 -10 15 -5 0 -10 -7 -10 -15z"/>
 </g>
<g id="layer4" fill="#a77949" stroke="none">
 <path d="M1770 2840 c19 -13 30 -13 30 0 0 6 -10 10 -22 10 -19 0 -20 -2 -8 -10z"/>
 <path d="M1600 2820 c0 -5 7 -10 15 -10 8 0 15 5 15 10 0 6 -7 10 -15 10 -8 0 -15 -4 -15 -10z"/>
 <path d="M1620 2775 c0 -8 5 -15 10 -15 6 0 10 7 10 15 0 8 -4 15 -10 15 -5 0 -10 -7 -10 -15z"/>
 <path d="M1585 2729 c-4 -6 -4 -13 -1 -16 8 -8 36 5 36 17 0 13 -27 13 -35 -1z"/>
 <path d="M1560 2685 c0 -16 9 -19 34 -9 25 9 19 24 -9 24 -16 0 -25 -6 -25 -15z"/>
 <path d="M1450 2635 c-7 -9 -10 -18 -7 -21 10 -10 47 7 47 22 0 19 -24 18 -40 -1z"/>
 <path d="M1940 2644 c0 -5 7 -19 15 -30 8 -10 15 -14 15 -8 0 5 -7 19 -15 30 -8 10 -15 14 -15 8z"/>
 <path d="M1373 2555 c-3 -9 -3 -18 0 -21 6 -7 47 18 47 28 0 15 -41 8 -47 -7z"/>
 <path d="M1247 2554 c-14 -14 -7 -35 11 -32 9 2 17 10 17 17 0 16 -18 25 -28 15z"/>
 <path d="M1965 2550 c-7 -12 5 -60 15 -60 15 0 21 18 14 45 -6 26 -18 32 -29 15z"/>
 <path d="M1182 2523 c5 -26 38 -29 38 -4 0 15 -6 21 -21 21 -14 0 -19 -5 -17 -17z"/>
 <path d="M1293 2533 c-18 -7 -16 -33 2 -33 8 0 15 9 15 20 0 11 -1 20 -2 19 -2 0 -9 -3 -15 -6z"/>
 <path d="M1027 2460 c-9 -11 -17 -25 -17 -30 0 -6 -4 -10 -10 -10 -5 0 -10 -7 -10 -15 0 -8 5 -15 10 -15 6 0 10 6 10 14 0 8 7 17 16 20 12 4 14 1 9 -14 -11 -35 4 -22 25 22 24 50 24 48 2 48 -10 0 -25 -9 -35 -20z"/>
 <path d="M870 2299 c0 -25 33 -22 38 4 2 12 -3 17 -17 17 -15 0 -21 -6 -21 -21z"/>
 <path d="M1830 2281 c0 -12 39 -25 48 -16 7 7 -17 25 -35 25 -7 0 -13 -4 -13 -9z"/>
 <path d="M693 2240 c-18 -11 -33 -27 -33 -35 0 -18 4 -19 33 -2 32 18 57 39 57 49 0 14 -23 9 -57 -12z"/>
 <path d="M2020 2220 c0 -5 7 -10 15 -10 8 0 15 5 15 10 0 6 -7 10 -15 10 -8 0 -15 -4 -15 -10z"/>
 <path d="M2143 2093 c1 -65 8 -74 33 -49 12 13 11 21 -11 63 l-24 48 2 -62z"/>
 <path d="M440 2080 c-16 -16 -30 -34 -30 -40 0 -5 -4 -10 -9 -10 -8 0 -31 -52 -31 -71 0 -5 11 -9 25 -9 14 0 25 5 25 10 0 6 -6 10 -14 10 -25 0 5 59 36 73 16 6 28 18 28 25 0 8 9 16 20 19 26 7 26 23 0 23 -10 0 -33 -13 -50 -30z"/>
 <path d="M2138 1999 c-28 -16 -21 -27 14 -26 22 1 34 8 36 20 4 19 -22 23 -50 6z"/>
 <path d="M1890 1935 c0 -8 5 -15 10 -15 6 0 10 7 10 15 0 8 -4 15 -10 15 -5 0 -10 -7 -10 -15z"/>
 <path d="M2000 1925 c0 -8 5 -15 10 -15 6 0 10 7 10 15 0 8 -4 15 -10 15 -5 0 -10 -7 -10 -15z"/>
 <path d="M192 1858 c6 -18 28 -21 28 -4 0 9 -7 16 -16 16 -9 0 -14 -5 -12 -12z"/>
 <path d="M160 1834 c0 -17 22 -14 28 4 2 7 -3 12 -12 12 -9 0 -16 -7 -16 -16z"/>
 <path d="M57 1796 c-14 -11 -15 -15 -3 -19 21 -8 56 3 56 19 0 18 -30 18 -53 0z"/>
 <path d="M1590 1661 c0 -12 6 -21 15 -21 8 0 15 3 15 6 0 3 -7 12 -15 20 -13 14 -15 13 -15 -5z"/>
 <path d="M1580 1604 c0 -3 4 -14 10 -24 8 -14 4 -25 -16 -50 -15 -17 -24 -34 -20 -37 13 -13 96 84 96 112 0 3 -9 1 -20 -5 -14 -7 -20 -7 -20 0 0 5 -7 10 -15 10 -8 0 -15 -3 -15 -6z"/>
 <path d="M1490 1460 c0 -5 7 -10 15 -10 8 0 15 5 15 10 0 6 -7 10 -15 10 -8 0 -15 -4 -15 -10z"/>
 <path d="M1220 1385 c0 -8 7 -15 15 -15 8 0 15 7 15 15 0 8 -7 15 -15 15 -8 0 -15 -7 -15 -15z"/>
 <path d="M1180 1360 c0 -5 7 -10 15 -10 8 0 15 5 15 10 0 6 -7 10 -15 10 -8 0 -15 -4 -15 -10z"/>
 <path d="M1210 1320 c0 -5 -7 -10 -15 -10 -20 0 -19 -16 2 -24 17 -7 33 9 33 32 0 6 -4 12 -10 12 -5 0 -10 -4 -10 -10z"/>
 <path d="M1165 1253 c-3 -10 -1 -19 4 -21 19 -6 12 -22 -14 -32 -27 -10 -35 -50 -10 -50 8 0 15 7 15 15 0 8 4 15 8 15 11 0 32 46 32 70 0 25 -25 26 -35 3z"/>
 <path d="M882 987 c0 -30 3 -34 24 -34 14 0 24 5 24 13 0 8 -6 14 -14 14 -8 0 -13 7 -12 16 0 9 -4 19 -10 21 -8 2 -12 -9 -12 -30z"/>
 <path d="M700 911 c0 -5 -3 -16 -6 -25 -5 -13 -2 -13 20 -3 31 14 34 37 6 37 -11 0 -20 -4 -20 -9z"/>
 <path d="M798 913 c-10 -2 -18 -11 -18 -19 0 -17 2 -17 35 -2 42 19 31 34 -17 21z"/>
 <path d="M354 665 c-4 -8 -1 -22 6 -30 14 -17 40 -20 40 -5 0 6 -4 10 -10 10 -5 0 -10 9 -10 20 0 23 -18 27 -26 5z"/>
 <path d="M320 575 c0 -8 5 -15 10 -15 6 0 10 7 10 15 0 8 -4 15 -10 15 -5 0 -10 -7 -10 -15z"/>
 </g>
<g id="layer5" fill="#dba870" stroke="none">
 <path d="M1630 2836 c-6 -8 -18 -12 -26 -9 -27 10 -14 -22 18 -44 36 -26 44 -24 28 6 -9 18 -8 21 10 21 13 0 20 7 20 20 0 24 -31 27 -50 6z"/>
 <path d="M1730 2835 c0 -8 9 -15 20 -15 11 0 20 7 20 15 0 8 -9 15 -20 15 -11 0 -20 -7 -20 -15z"/>
 <path d="M1800 2811 c0 -13 29 -35 37 -28 7 8 -15 37 -28 37 -5 0 -9 -4 -9 -9z"/>
 <path d="M1590 2765 c0 -8 2 -15 4 -15 2 0 11 -3 20 -6 10 -4 16 -1 16 9 0 8 -7 18 -16 21 -22 9 -24 8 -24 -9z"/>
 <path d="M1915 2673 c4 -10 10 -31 12 -48 3 -16 7 -37 10 -45 4 -8 5 -20 4 -27 -1 -6 3 -14 9 -18 5 -3 7 -17 4 -31 -5 -18 -2 -24 10 -24 12 0 15 6 11 23 -3 12 -7 45 -8 72 -2 34 -11 61 -27 83 -26 35 -36 41 -25 15z"/>
 <path d="M1533 2665 c-38 -16 -46 -40 -10 -29 50 15 67 24 67 34 0 14 -18 12 -57 -5z"/>
 <path d="M1450 2611 c0 -5 7 -12 16 -15 22 -9 24 -8 24 9 0 8 -9 15 -20 15 -11 0 -20 -4 -20 -9z"/>
 <path d="M1380 2535 c0 -8 5 -15 10 -15 6 0 10 7 10 15 0 8 -4 15 -10 15 -5 0 -10 -7 -10 -15z"/>
 <path d="M1240 2504 c0 -8 17 -11 53 -9 65 2 67 3 67 15 0 5 -27 8 -60 8 -39 -1 -60 -6 -60 -14z"/>
 <path d="M1876 2411 c-10 -11 -24 -17 -32 -14 -8 3 -18 -5 -25 -21 -12 -26 -5 -50 9 -31 9 13 40 33 75 48 15 6 27 17 27 24 0 20 -35 15 -54 -6z"/>
 <path d="M920 2320 c0 -5 -11 -12 -25 -16 -14 -3 -25 -13 -25 -21 0 -10 6 -13 16 -9 9 3 24 6 35 6 14 0 19 7 19 25 0 14 -4 25 -10 25 -5 0 -10 -4 -10 -10z"/>
 <path d="M830 2285 c0 -8 5 -15 10 -15 6 0 10 7 10 15 0 8 -4 15 -10 15 -5 0 -10 -7 -10 -15z"/>
 <path d="M1837 2264 c-16 -16 -6 -35 16 -32 12 2 22 10 22 18 0 16 -26 25 -38 14z"/>
 <path d="M1890 2241 c0 -10 45 -41 60 -41 20 0 9 20 -20 35 -34 17 -40 18 -40 6z"/>
 <path d="M1990 2195 c0 -8 5 -15 10 -15 6 0 10 7 10 15 0 8 -4 15 -10 15 -5 0 -10 -7 -10 -15z"/>
 <path d="M638 2168 c-38 -13 -38 -43 -1 -33 31 7 53 23 53 36 0 11 -17 10 -52 -3z"/>
 <path d="M2090 2170 c0 -6 5 -20 12 -33 26 -51 28 -58 22 -82 -8 -34 14 -33 27 2 7 18 6 30 -1 37 -5 5 -10 22 -10 36 0 14 -5 31 -12 38 -15 15 -38 16 -38 2z"/>
 <path d="M436 2014 c-23 -48 -14 -54 13 -9 23 40 25 45 13 45 -5 0 -16 -16 -26 -36z"/>
 <path d="M2098 1985 c-47 -42 -48 -55 -3 -55 38 0 59 25 34 40 -11 7 -10 10 4 16 17 6 24 34 10 34 -5 0 -25 -16 -45 -35z"/>
 <path d="M368 1948 c-26 -9 -40 -38 -19 -38 24 0 61 21 61 35 0 17 -4 17 -42 3z"/>
 <path d="M1880 1950 c0 -5 5 -10 10 -10 6 0 10 -6 10 -14 0 -24 19 -29 45 -12 13 9 37 16 52 16 l27 0 -23 17 c-20 13 -27 14 -44 4 -14 -9 -22 -10 -30 -2 -14 14 -47 14 -47 1z"/>
 <path d="M207 1879 c-10 -6 -22 -20 -26 -32 -5 -12 -16 -22 -26 -22 -10 0 -20 -6 -22 -12 -9 -27 44 -11 85 25 23 21 42 41 42 45 0 10 -32 8 -53 -4z"/>
 <path d="M40 1775 c0 -8 5 -15 10 -15 6 0 10 7 10 15 0 8 -4 15 -10 15 -5 0 -10 -7 -10 -15z"/>
 <path d="M1663 1773 c-7 -2 -13 -9 -13 -14 0 -14 30 -11 46 6 14 13 13 15 -3 14 -10 0 -24 -3 -30 -6z"/>
 <path d="M1569 1683 c-8 -22 -6 -30 10 -47 16 -16 23 -18 33 -8 9 9 9 15 0 24 -7 7 -12 22 -12 35 0 31 -18 29 -31 -4z"/>
 <path d="M1580 1591 c0 -4 -16 -23 -35 -42 -38 -37 -43 -54 -19 -63 22 -8 21 -9 27 15 3 11 14 23 24 25 14 4 19 15 20 40 1 19 -3 34 -8 34 -5 0 -9 -4 -9 -9z"/>
 <path d="M1170 1320 c0 -5 7 -10 15 -10 8 0 15 5 15 10 0 6 -7 10 -15 10 -8 0 -15 -4 -15 -10z"/>
 <path d="M1150 1239 c0 -18 2 -19 15 -9 8 7 15 16 15 21 0 5 -7 9 -15 9 -9 0 -15 -9 -15 -21z"/>
 <path d="M1081 1152 c-39 -48 -50 -72 -33 -72 5 0 17 9 27 20 10 11 24 20 30 20 11 0 28 68 20 78 -1 1 -21 -19 -44 -46z"/>
 <path d="M1012 1064 c1 -9 9 -19 16 -22 9 -3 13 2 10 14 -1 9 -9 19 -16 22 -9 3 -13 -2 -10 -14z"/>
 <path d="M980 1035 c0 -8 5 -15 10 -15 6 0 10 7 10 15 0 8 -4 15 -10 15 -5 0 -10 -7 -10 -15z"/>
 <path d="M858 1016 c-21 -15 -24 -36 -5 -36 8 0 7 -3 -3 -10 -20 -13 -6 -23 20 -15 15 5 20 13 17 26 -3 10 -1 19 4 19 5 0 9 7 9 15 0 18 -19 19 -42 1z"/>
 <path d="M707 953 c-12 -11 -8 -21 13 -26 22 -6 23 -5 14 17 -7 17 -16 20 -27 9z"/>
 <path d="M797 921 c-23 -15 -25 -19 -12 -24 19 -8 55 12 55 30 0 18 -10 16 -43 -6z"/>
 <path d="M650 893 c-8 -4 -21 -15 -28 -25 -9 -12 -20 -17 -33 -13 -13 4 -19 2 -19 -9 0 -22 17 -28 42 -15 13 7 34 14 46 15 22 3 51 29 52 47 0 8 -38 8 -60 0z"/>
 <path d="M330 639 c0 -24 23 -21 28 4 2 10 -3 17 -12 17 -10 0 -16 -9 -16 -21z"/>
 <path d="M273 583 c-7 -18 3 -27 19 -17 7 5 18 9 23 10 6 0 16 2 23 2 6 1 12 6 12 12 0 15 -71 9 -77 -7z"/>
 </g>
<g id="layer6" fill="#b78855" stroke="none">
 <path d="M1698 2862 c-34 -20 -35 -28 -7 -43 17 -9 25 -8 37 5 14 14 18 13 46 -2 17 -9 43 -28 58 -41 15 -14 31 -21 35 -17 10 10 -105 116 -125 116 -10 0 -29 -8 -44 -18z"/>
 <path d="M1613 2827 c3 -9 -2 -13 -15 -13 -12 1 -23 -5 -25 -11 -3 -9 7 -13 31 -13 32 0 36 3 36 25 0 16 -6 25 -16 25 -9 0 -14 -6 -11 -13z"/>
 <path d="M1617 2773 c-16 -4 -18 -11 -13 -41 5 -27 4 -33 -4 -22 -9 13 -13 11 -30 -10 -22 -28 -25 -40 -10 -40 6 0 10 4 10 10 0 5 9 9 20 7 20 -2 30 11 62 75 14 30 9 32 -35 21z"/>
 <path d="M1480 2630 c0 -5 7 -10 15 -10 8 0 15 5 15 10 0 6 -7 10 -15 10 -8 0 -15 -4 -15 -10z"/>
 <path d="M1951 2578 c1 -18 4 -44 8 -58 5 -17 3 -31 -7 -42 -10 -12 -12 -26 -7 -45 l8 -28 11 25 c7 17 17 24 30 22 17 -4 18 0 13 42 -13 90 -58 159 -56 84z"/>
 <path d="M1405 2576 c-29 -13 -30 -13 -7 -20 23 -8 52 7 52 25 0 12 -9 11 -45 -5z"/>
 <path d="M1183 2533 c-18 -9 -33 -20 -33 -25 0 -12 34 -9 49 5 11 10 14 10 18 0 6 -16 60 -17 65 -2 2 7 12 7 31 0 20 -8 34 -8 48 -1 26 14 25 33 -2 25 -11 -4 -34 -1 -52 6 -23 10 -32 10 -35 1 -4 -14 -32 -16 -32 -2 0 14 -19 11 -57 -7z"/>
 <path d="M1068 2484 c-37 -16 -82 -72 -93 -117 -5 -19 -15 -27 -43 -32 -49 -9 -132 -45 -132 -57 0 -11 59 -1 76 13 5 5 27 6 47 2 25 -4 37 -2 37 6 0 6 16 21 35 32 34 20 49 47 21 36 -11 -5 -13 0 -6 25 13 42 30 59 51 53 11 -4 19 -2 19 5 0 6 11 16 25 22 26 12 34 28 13 27 -7 0 -29 -7 -50 -15z"/>
 <path d="M1880 2400 c0 -5 7 -10 15 -10 8 0 15 5 15 10 0 6 -7 10 -15 10 -8 0 -15 -4 -15 -10z"/>
 <path d="M1830 2355 c0 -8 5 -15 10 -15 6 0 10 7 10 15 0 8 -4 15 -10 15 -5 0 -10 -7 -10 -15z"/>
 <path d="M1820 2294 c0 -11 -6 -14 -20 -9 -16 5 -20 2 -20 -14 0 -27 36 -47 55 -31 17 14 50 5 92 -26 17 -13 39 -24 47 -24 26 0 18 27 -11 39 -16 6 -50 27 -78 46 -56 39 -65 42 -65 19z"/>
 <path d="M706 2243 c-16 -8 -40 -28 -53 -44 -13 -15 -33 -31 -43 -34 -11 -4 -20 -13 -20 -21 0 -18 1 -18 50 3 30 13 40 23 38 38 -2 14 5 23 27 30 38 13 55 24 55 36 0 13 -21 10 -54 -8z"/>
 <path d="M2010 2225 c0 -8 5 -15 10 -15 6 0 10 -7 10 -15 0 -11 7 -14 26 -9 29 7 66 -24 71 -60 11 -72 9 -112 -6 -129 -11 -13 -12 -23 -5 -34 17 -26 38 -29 32 -5 -3 12 0 26 6 31 15 13 20 131 6 131 -6 0 -10 7 -10 15 0 8 -9 24 -20 35 -11 11 -20 24 -20 29 0 5 -21 16 -47 25 -56 19 -53 19 -53 1z"/>
 <path d="M469 2100 c-39 -21 -99 -106 -99 -140 0 -32 18 -23 25 13 10 44 53 100 72 92 18 -6 53 21 53 42 0 17 -7 16 -51 -7z"/>
 <path d="M1870 1934 c0 -9 5 -14 12 -12 18 6 21 28 4 28 -9 0 -16 -7 -16 -16z"/>
 <path d="M1970 1936 c0 -9 7 -16 16 -16 17 0 14 22 -4 28 -7 2 -12 -3 -12 -12z"/>
 <path d="M2020 1925 c0 -16 17 -19 44 -9 26 10 18 24 -14 24 -20 0 -30 -5 -30 -15z"/>
 <path d="M225 1882 c-11 -2 -22 -7 -25 -11 -9 -12 -77 -51 -90 -51 -19 0 -80 -31 -80 -41 0 -12 111 -1 127 13 7 6 13 16 13 24 0 7 16 18 35 25 19 7 37 19 40 27 7 18 5 19 -20 14z"/>
 <path d="M1741 1831 c-35 -44 -37 -51 -17 -51 16 0 66 60 66 78 0 22 -18 12 -49 -27z"/>
 <path d="M1660 1750 c0 -5 9 -10 20 -10 11 0 20 5 20 10 0 6 -9 10 -20 10 -11 0 -20 -4 -20 -10z"/>
 <path d="M1580 1690 c0 -5 7 -10 15 -10 8 0 15 5 15 10 0 6 -7 10 -15 10 -8 0 -15 -4 -15 -10z"/>
 <path d="M1594 1655 c-10 -24 6 -38 22 -18 7 10 14 21 14 26 0 13 -31 7 -36 -8z"/>
 <path d="M1627 1613 c-4 -3 -7 -15 -7 -25 0 -11 -7 -18 -20 -18 -11 0 -20 -7 -20 -15 0 -26 34 -16 53 16 9 17 17 35 17 40 0 11 -14 12 -23 2z"/>
 <path d="M1280 1415 c0 -10 11 -15 35 -15 24 0 35 5 35 15 0 10 -11 15 -35 15 -24 0 -35 -5 -35 -15z"/>
 <path d="M1210 1361 c0 -46 -30 -121 -60 -151 -24 -24 -54 -89 -46 -98 12 -12 59 46 93 115 41 84 56 173 29 173 -12 0 -16 -10 -16 -39z"/>
 <path d="M900 1015 c0 -8 -7 -15 -15 -15 -8 0 -15 -6 -15 -14 0 -8 -7 -17 -16 -20 -9 -3 -14 -13 -10 -21 3 -8 -2 -19 -12 -24 -14 -8 -13 -10 10 -16 36 -9 51 2 44 31 -7 26 12 64 31 64 7 0 13 7 13 15 0 8 -7 15 -15 15 -8 0 -15 -7 -15 -15z"/>
 <path d="M700 935 c0 -8 4 -15 9 -15 5 0 7 -9 4 -20 -3 -11 0 -20 6 -20 6 0 11 5 11 10 0 6 9 10 20 10 26 0 25 7 -2 31 -28 22 -48 24 -48 4z"/>
 <path d="M627 873 c-12 -11 -8 -23 8 -23 8 0 15 7 15 15 0 16 -12 20 -23 8z"/>
 <path d="M340 651 c0 -11 -6 -21 -12 -24 -10 -3 -10 -10 1 -30 18 -34 35 -35 27 -2 -5 20 -3 25 14 25 11 0 20 5 20 10 0 6 -4 10 -10 10 -5 0 -10 7 -10 15 0 8 -7 15 -15 15 -8 0 -15 -9 -15 -19z"/>
 <path d="M287 583 c-12 -11 -8 -23 8 -23 8 0 15 7 15 15 0 16 -12 20 -23 8z"/>
 </g>
<g id="layer7" fill="#fee8cf" stroke="none">
 <path d="M1520 2366 c0 -8 -7 -16 -15 -20 -8 -3 -15 -16 -14 -28 0 -13 3 -17 6 -11 3 8 14 11 29 7 20 -5 24 -2 24 15 0 14 6 21 20 21 11 0 20 5 20 11 0 6 -9 9 -20 6 -11 -3 -23 -1 -26 4 -8 14 -24 11 -24 -5z"/>
 <path d="M1620 2361 c0 -12 39 -25 48 -16 7 7 -17 25 -35 25 -7 0 -13 -4 -13 -9z"/>
 <path d="M1690 2335 c0 -11 12 -15 45 -15 33 0 45 4 45 15 0 11 -12 15 -45 15 -33 0 -45 -4 -45 -15z"/>
 <path d="M1735 2283 c-37 -10 -67 -36 -62 -54 5 -20 -13 -39 -58 -60 -23 -11 -30 -21 -30 -42 1 -15 -4 -27 -11 -27 -6 0 -24 -18 -39 -40 -21 -30 -31 -37 -40 -30 -10 8 -27 -3 -66 -42 -36 -35 -89 -71 -156 -106 -64 -33 -103 -59 -103 -69 0 -10 6 -14 19 -10 14 3 17 0 14 -14 -9 -33 17 -20 32 15 12 29 32 43 126 92 75 40 114 65 120 81 5 13 14 23 21 23 7 0 19 9 26 20 7 12 17 18 22 15 22 -13 60 8 72 40 9 28 15 32 29 24 30 -16 51 -11 44 10 -3 11 -1 22 5 26 5 3 10 15 10 26 0 10 5 19 11 19 5 0 9 8 7 18 -4 22 19 52 39 52 8 0 13 7 11 17 -3 19 -14 23 -43 16z"/>
 <path d="M1435 2260 c-4 -6 -1 -18 6 -26 10 -12 9 -13 -5 -8 -11 4 -16 1 -16 -10 0 -11 9 -16 30 -16 28 0 30 3 30 35 0 28 -4 35 -19 35 -11 0 -23 -5 -26 -10z"/>
 <path d="M1390 2154 c0 -9 5 -14 12 -12 18 6 21 28 4 28 -9 0 -16 -7 -16 -16z"/>
 <path d="M1263 2148 c-13 -6 -23 -18 -23 -27 0 -9 -9 -31 -21 -50 -13 -22 -17 -37 -11 -43 13 -13 34 0 29 15 -2 7 7 20 20 30 13 10 23 27 23 38 0 10 5 19 10 19 6 0 10 7 10 15 0 17 -6 18 -37 3z"/>
 <path d="M1330 2144 c0 -9 5 -14 12 -12 18 6 21 28 4 28 -9 0 -16 -7 -16 -16z"/>
 <path d="M1540 2140 c0 -5 7 -10 15 -10 8 0 15 5 15 10 0 6 -7 10 -15 10 -8 0 -15 -4 -15 -10z"/>
 <path d="M1710 2120 c0 -5 7 -10 15 -10 8 0 15 5 15 10 0 6 -7 10 -15 10 -8 0 -15 -4 -15 -10z"/>
 <path d="M1168 2016 c-17 -12 -25 -36 -12 -36 16 0 44 23 44 35 0 18 -10 19 -32 1z"/>
 <path d="M1030 1915 c-13 -14 -20 -28 -17 -32 8 -7 57 35 57 49 0 15 -16 8 -40 -17z"/>
 <path d="M948 1852 c-30 -18 -36 -32 -15 -32 17 0 57 29 57 41 0 12 -10 10 -42 -9z"/>
 <path d="M840 1805 c0 -8 5 -15 10 -15 6 0 10 7 10 15 0 8 -4 15 -10 15 -5 0 -10 -7 -10 -15z"/>
 <path d="M770 1795 c-16 -20 -10 -26 18 -18 12 3 22 12 22 19 0 19 -24 18 -40 -1z"/>
 <path d="M1090 1775 c-14 -7 -33 -16 -42 -19 -28 -8 -22 -29 7 -24 14 3 25 1 25 -5 0 -5 15 -7 35 -4 19 3 35 2 35 -4 0 -14 20 -11 37 6 24 24 9 46 -27 39 -23 -5 -30 -3 -30 10 0 19 -7 20 -40 1z"/>
 <path d="M650 1735 c0 -17 2 -18 24 -9 23 9 20 24 -4 24 -11 0 -20 -7 -20 -15z"/>
 <path d="M558 1723 c-10 -2 -18 -11 -18 -20 0 -10 6 -13 16 -9 9 3 20 6 25 6 5 0 9 7 9 15 0 15 -2 16 -32 8z"/>
 <path d="M940 1705 c-19 -14 -39 -25 -44 -25 -14 0 -76 -50 -76 -62 0 -6 9 -8 19 -5 13 3 21 -1 24 -15 7 -25 32 -18 32 9 0 28 33 62 78 80 40 16 46 27 21 37 -19 7 -12 10 -54 -19z"/>
 <path d="M480 1680 c-11 -11 -20 -24 -20 -28 0 -5 -9 -19 -20 -32 -21 -24 -27 -46 -10 -35 6 3 10 -1 10 -9 0 -9 -7 -16 -15 -16 -8 0 -15 -9 -15 -20 0 -25 11 -25 44 1 19 15 26 30 26 55 0 21 8 42 20 54 21 21 27 50 10 50 -5 0 -19 -9 -30 -20z"/>
 <path d="M760 1565 c-7 -8 -21 -15 -31 -15 -11 0 -19 -7 -19 -16 0 -11 6 -15 20 -11 13 3 20 0 20 -9 0 -17 1 -17 34 -4 23 8 26 7 32 -15 6 -23 34 -36 34 -16 0 5 8 7 19 4 19 -5 31 19 31 66 0 18 -4 22 -20 18 -10 -3 -21 0 -24 7 -3 6 -5 0 -4 -14 2 -14 0 -27 -2 -29 -8 -7 -50 23 -50 36 0 18 -25 16 -40 -2z"/>
 <path d="M628 1512 c-1 -4 -24 -25 -50 -47 -46 -37 -65 -74 -34 -62 9 4 17 -2 21 -14 8 -25 30 -19 30 7 1 25 25 58 48 67 21 8 24 57 3 57 -8 0 -16 -4 -18 -8z"/>
 <path d="M370 1495 c0 -8 5 -15 10 -15 6 0 10 7 10 15 0 8 -4 15 -10 15 -5 0 -10 -7 -10 -15z"/>
 <path d="M270 1475 c0 -16 17 -19 44 -9 26 10 18 24 -14 24 -20 0 -30 -5 -30 -15z"/>
 <path d="M203 1419 c-10 -10 -32 -15 -101 -22 -51 -5 -84 -113 -42 -139 11 -7 20 -18 20 -24 0 -18 68 -74 90 -74 30 0 24 16 -10 30 -18 7 -33 22 -36 36 -3 13 -12 24 -18 24 -7 0 -12 15 -12 38 -1 20 -4 47 -9 60 -7 20 -4 22 23 22 17 0 34 5 38 11 3 6 17 8 30 5 17 -5 26 -1 34 15 13 24 9 34 -7 18z"/>
 <path d="M568 1353 c-10 -2 -19 -19 -23 -44 -7 -40 -21 -51 -31 -24 -8 19 -28 19 -43 1 -6 -7 -25 -16 -41 -20 -28 -5 -43 -26 -20 -26 6 0 10 -7 10 -16 0 -9 6 -14 12 -12 7 3 18 -5 23 -16 13 -27 40 -27 40 -1 0 28 13 45 36 45 10 0 19 5 19 10 0 6 11 15 24 20 19 7 24 16 24 49 0 23 -2 40 -6 40 -4 -1 -15 -3 -24 -6z"/>
 <path d="M337 1233 c-13 -12 -7 -23 13 -23 21 0 28 -24 10 -35 -6 -3 -7 -17 -4 -31 7 -28 3 -29 -42 -8 -29 14 -40 15 -61 5 -20 -9 -28 -9 -34 0 -8 14 -39 5 -39 -11 0 -16 47 -30 80 -24 20 4 30 2 30 -5 0 -7 15 -11 38 -10 20 1 44 -1 53 -5 12 -5 18 4 27 43 13 58 8 81 -19 81 -10 0 -19 7 -19 15 0 15 -21 21 -33 8z"/>
 </g>
<g id="layer8" fill="#fedbb2" stroke="none">
 <path d="M1497 2355 c-17 -21 -25 -39 -21 -50 6 -14 3 -16 -14 -11 -17 6 -24 1 -37 -23 -8 -17 -15 -34 -14 -38 4 -28 -16 -50 -57 -61 -29 -8 -44 -17 -44 -28 0 -12 5 -14 18 -9 9 4 31 10 47 13 38 6 55 19 55 43 0 12 5 16 15 13 10 -4 16 3 21 23 4 15 16 34 26 41 13 10 16 20 12 40 -5 22 -4 25 7 15 20 -20 42 -16 36 6 -4 15 2 20 29 26 20 3 34 12 34 20 0 17 -14 19 -40 5 -13 -7 -21 -7 -25 0 -10 15 -18 11 -48 -25z"/>
 <path d="M1630 2363 c0 -11 44 -33 65 -33 8 0 15 7 15 15 0 8 -8 15 -17 15 -10 0 -28 3 -40 6 -13 4 -23 2 -23 -3z"/>
 <path d="M1770 2345 c0 -8 5 -15 10 -15 6 0 10 7 10 15 0 8 -4 15 -10 15 -5 0 -10 -7 -10 -15z"/>
 <path d="M1734 2255 c-4 -10 -13 -13 -25 -10 -20 7 -28 -18 -9 -30 6 -3 6 -13 1 -23 -27 -53 -33 -71 -25 -84 4 -7 -2 -4 -14 6 -12 11 -22 27 -22 38 0 22 -23 24 -40 3 -10 -11 -10 -18 -1 -29 24 -28 -11 -88 -40 -70 -11 6 -39 -13 -39 -27 0 -5 11 -11 25 -15 14 -3 25 -10 25 -15 0 -17 42 -9 46 9 6 19 66 62 88 62 7 0 21 12 31 26 13 21 15 32 7 49 -9 19 -8 25 5 29 8 4 13 13 9 21 -3 9 3 19 14 25 30 16 26 50 -5 50 -14 0 -28 -7 -31 -15z"/>
 <path d="M1238 2149 c-12 -6 -18 -22 -18 -44 0 -25 -6 -39 -24 -50 -24 -16 -41 -44 -32 -53 9 -8 56 28 56 42 0 7 7 19 15 26 8 7 15 23 15 35 0 19 4 22 21 18 17 -5 20 -2 17 13 -4 22 -26 28 -50 13z"/>
 <path d="M1485 1989 c-4 -6 -5 -13 -2 -16 7 -7 27 6 27 18 0 12 -17 12 -25 -2z"/>
 <path d="M1092 1980 c-22 -9 -39 -36 -30 -46 7 -6 77 38 78 49 0 9 -19 8 -48 -3z"/>
 <path d="M1430 1960 c0 -5 -45 -32 -99 -60 -87 -43 -101 -53 -111 -84 -6 -19 -18 -37 -26 -40 -8 -3 -14 -11 -12 -18 3 -16 -6 -20 -27 -12 -8 4 -22 1 -29 -5 -11 -10 -16 -8 -24 5 -8 14 -14 15 -46 4 -20 -6 -36 -18 -36 -25 0 -19 67 -37 90 -25 15 8 17 6 13 -10 -10 -36 21 -22 78 38 33 34 56 66 57 81 0 13 2 24 4 25 2 1 47 26 101 56 88 48 121 80 82 80 -8 0 -15 -4 -15 -10z"/>
 <path d="M928 1847 c-24 -9 -40 -37 -23 -37 14 0 65 32 65 40 0 12 -6 11 -42 -3z"/>
 <path d="M860 1815 c0 -8 5 -15 10 -15 6 0 10 7 10 15 0 8 -4 15 -10 15 -5 0 -10 -7 -10 -15z"/>
 <path d="M820 1805 c0 -8 5 -15 10 -15 6 0 10 7 10 15 0 8 -4 15 -10 15 -5 0 -10 -7 -10 -15z"/>
 <path d="M691 1769 c-27 -22 -20 -39 9 -21 11 7 29 12 40 12 11 0 20 7 20 15 0 21 -40 18 -69 -6z"/>
 <path d="M618 1743 c-10 -2 -18 -11 -18 -20 0 -10 6 -13 16 -9 9 3 20 6 25 6 5 0 9 7 9 15 0 15 -2 16 -32 8z"/>
 <path d="M492 1700 c-18 -11 -36 -28 -39 -38 -4 -9 -11 -20 -17 -24 -8 -5 -7 -11 2 -20 9 -9 16 -8 30 8 10 10 21 27 25 37 4 11 16 21 27 24 11 3 20 12 20 19 0 19 -9 18 -48 -6z"/>
 <path d="M955 1700 c-24 -9 -50 -38 -42 -46 6 -7 87 38 87 49 0 9 -19 8 -45 -3z"/>
 <path d="M875 1630 c-4 -6 -2 -17 4 -24 9 -10 7 -15 -9 -19 -14 -4 -20 -13 -20 -32 0 -23 4 -26 21 -22 13 3 19 1 16 -6 -6 -19 -49 -21 -59 -3 -6 11 -17 14 -34 10 -20 -5 -23 -3 -17 12 5 14 3 16 -13 9 -10 -4 -29 -10 -41 -12 -25 -6 -80 -60 -70 -70 4 -3 16 2 26 11 16 14 23 15 41 6 12 -6 32 -9 45 -6 15 4 25 1 29 -9 7 -19 81 -21 93 -2 17 26 32 103 26 135 -5 31 -25 43 -38 22z"/>
 <path d="M413 1589 c-7 -7 -13 -19 -13 -26 0 -7 -9 -13 -21 -13 -12 0 -23 -8 -26 -20 -3 -10 -14 -22 -24 -25 -29 -10 -22 -25 11 -25 21 0 30 5 30 16 0 10 6 13 18 10 23 -8 45 29 40 68 -2 22 -5 25 -15 15z"/>
 <path d="M203 1471 c-6 -10 -9 -28 -6 -39 4 -18 7 -19 30 -7 49 26 58 65 15 65 -16 0 -32 -8 -39 -19z"/>
 <path d="M610 1461 c0 -12 5 -21 10 -21 6 0 10 6 10 14 0 8 -4 18 -10 21 -5 3 -10 -3 -10 -14z"/>
 <path d="M136 1415 c-15 -11 -23 -12 -33 -3 -15 12 -15 13 -37 -27 l-17 -30 5 33 c6 33 -2 40 -22 20 -26 -26 -2 -139 35 -161 7 -4 13 -17 13 -27 0 -24 18 -36 33 -21 8 8 5 16 -11 31 -14 14 -22 33 -22 55 0 25 -5 35 -15 35 -14 0 -14 3 0 31 11 20 21 29 31 25 9 -3 25 -1 37 6 12 7 29 12 37 13 8 0 15 7 15 15 0 20 -26 23 -49 5z"/>
 <path d="M576 1421 c-4 -5 -4 -16 0 -24 3 -8 -2 -17 -10 -20 -21 -8 -20 -33 1 -41 12 -5 14 -9 6 -14 -7 -4 -16 -20 -22 -35 -6 -15 -17 -27 -25 -27 -7 0 -19 -6 -25 -14 -10 -12 -16 -12 -43 1 -33 17 -52 11 -72 -20 -8 -12 -5 -21 9 -37 18 -20 18 -20 -5 -18 -30 4 -37 -18 -8 -26 22 -6 23 -7 4 -21 -23 -17 -46 -20 -46 -5 0 6 -7 10 -15 10 -8 0 -15 -5 -15 -11 0 -6 -8 -8 -17 -5 -10 2 -37 8 -60 11 -35 6 -43 4 -43 -9 0 -10 13 -17 38 -21 20 -3 48 -9 62 -12 34 -9 92 -12 112 -7 10 3 19 20 23 42 6 38 25 78 25 55 0 -8 15 -13 39 -13 34 0 42 4 55 32 9 17 16 35 16 40 0 5 11 19 24 31 25 23 50 103 38 121 -4 6 -5 19 -4 29 3 18 -32 25 -42 8z"/>
 <path d="M150 1166 c0 -11 9 -16 26 -16 31 0 28 23 -4 28 -15 2 -22 -2 -22 -12z"/>
 </g>
<g id="layer9" fill="#885f33" stroke="none">
 <path d="M1850 2893 c-81 -12 -90 -15 -90 -28 0 -8 4 -15 9 -15 6 0 30 -21 55 -47 24 -26 48 -44 52 -40 4 4 -12 28 -36 52 -43 44 -44 45 -18 45 15 0 29 4 32 9 3 4 17 6 31 3 18 -3 25 0 25 12 0 16 -9 17 -60 9z"/>
 <path d="M2260 2886 c0 -8 19 -18 44 -25 56 -14 56 -14 56 3 0 8 -19 18 -44 25 -56 14 -56 14 -56 -3z"/>
 <path d="M2380 2856 c0 -9 24 -22 66 -36 99 -33 445 -237 533 -314 22 -20 23 -20 20 -1 -2 10 -27 36 -54 57 -78 60 -375 236 -451 267 -100 42 -114 45 -114 27z"/>
 <path d="M1557 2776 c-40 -42 -93 -69 -272 -135 -224 -84 -263 -103 -395 -193 -267 -182 -399 -280 -400 -295 0 -20 9 -16 74 32 166 123 200 148 281 202 179 119 217 141 292 168 219 77 413 161 427 184 13 21 26 11 26 -19 0 -20 5 -30 15 -30 17 0 20 32 5 61 -8 15 -7 19 5 19 18 0 19 12 3 28 -18 18 -26 15 -61 -22z"/>
 <path d="M1553 2689 c-5 -5 -32 -18 -59 -27 -36 -13 -50 -24 -54 -42 -4 -17 -16 -27 -38 -34 -35 -10 -41 -26 -16 -47 14 -11 18 -10 31 6 8 11 21 34 28 50 10 23 24 33 59 44 26 7 51 22 57 33 12 23 8 33 -8 17z"/>
 <path d="M1945 2643 c5 -10 13 -33 19 -50 6 -18 17 -33 23 -33 17 0 17 0 -13 54 -25 45 -44 63 -29 29z"/>
 <path d="M1220 2550 c0 -5 -11 -10 -25 -10 -39 0 -29 -18 14 -25 54 -9 160 4 137 17 -10 5 -37 10 -62 10 -24 0 -44 4 -44 9 0 5 -4 9 -10 9 -5 0 -10 -4 -10 -10z"/>
 <path d="M1980 2530 c0 -5 7 -10 15 -10 8 0 15 5 15 10 0 6 -7 10 -15 10 -8 0 -15 -4 -15 -10z"/>
 <path d="M1088 2504 c-52 -17 -102 -66 -95 -95 3 -10 0 -20 -6 -22 -8 -2 -5 -11 7 -23 11 -10 21 -14 23 -8 2 6 19 36 39 66 26 42 42 58 64 63 17 4 30 13 30 21 0 16 -1 16 -62 -2z"/>
 <path d="M1970 2490 c0 -5 9 -10 20 -10 11 0 20 5 20 10 0 6 -9 10 -20 10 -11 0 -20 -4 -20 -10z"/>
 <path d="M1990 2445 c0 -8 5 -15 10 -15 6 0 10 7 10 15 0 8 -4 15 -10 15 -5 0 -10 -7 -10 -15z"/>
 <path d="M1950 2419 c0 -24 23 -21 28 4 2 10 -3 17 -12 17 -10 0 -16 -9 -16 -21z"/>
 <path d="M1884 2400 c-12 -4 -24 -15 -27 -24 -4 -9 -18 -16 -31 -16 -25 0 -56 -32 -56 -57 0 -22 43 -41 83 -36 20 3 37 8 37 12 0 12 -71 42 -83 35 -7 -4 -9 -4 -5 0 3 4 20 15 36 24 58 33 92 57 92 65 0 9 -19 8 -46 -3z"/>
 <path d="M930 2335 c0 -16 9 -19 34 -9 25 9 19 24 -9 24 -16 0 -25 -6 -25 -15z"/>
 <path d="M875 2320 c-16 -5 -61 -20 -98 -34 -113 -41 -146 -72 -113 -104 16 -16 18 -15 36 8 11 14 20 30 20 36 0 10 39 28 154 70 17 6 32 16 34 23 2 6 2 11 0 10 -1 -1 -16 -5 -33 -9z"/>
 <path d="M1912 2248 c7 -20 78 -54 126 -60 36 -5 42 -4 42 13 0 12 -5 16 -15 13 -8 -4 -15 -1 -15 5 0 6 -7 8 -15 5 -9 -4 -15 0 -15 10 0 19 -11 21 -27 5 -9 -9 -18 -8 -37 5 -30 19 -49 21 -44 4z"/>
 <path d="M2100 2196 c0 -16 28 -42 36 -33 8 7 -14 47 -26 47 -6 0 -10 -6 -10 -14z"/>
 <path d="M593 2163 c-32 -16 -44 -33 -23 -33 16 0 80 33 80 42 0 12 -21 9 -57 -9z"/>
 <path d="M2140 2136 c0 -8 5 -18 11 -21 7 -5 8 -25 4 -55 -6 -40 -4 -50 12 -59 16 -9 15 -10 -9 -11 -18 0 -28 -5 -28 -14 0 -22 15 -27 45 -16 23 9 27 15 23 40 -3 18 0 31 9 34 19 8 16 23 -12 60 -14 18 -25 38 -25 44 0 7 -7 12 -15 12 -8 0 -15 -6 -15 -14z"/>
 <path d="M422 2097 c-36 -39 -83 -67 -167 -101 -84 -35 -121 -56 -197 -114 -92 -69 -69 -80 26 -12 46 33 117 73 157 90 41 16 87 37 102 46 32 18 46 12 27 -11 -10 -12 -10 -18 0 -30 7 -8 18 -15 24 -15 12 0 96 123 96 140 0 4 11 11 25 14 41 10 28 26 -20 24 -36 -2 -51 -9 -73 -31z"/>
 <path d="M2222 1988 c3 -7 53 -29 112 -49 59 -20 112 -41 119 -48 6 -6 17 -11 24 -11 7 0 31 -12 53 -26 40 -27 57 -27 47 -2 -10 28 -287 148 -340 148 -10 0 -17 -5 -15 -12z"/>
 <path d="M340 1940 c0 -5 7 -10 15 -10 8 0 15 5 15 10 0 6 -7 10 -15 10 -8 0 -15 -4 -15 -10z"/>
 <path d="M2080 1940 c-8 -5 -25 -10 -37 -10 -14 0 -23 -6 -23 -16 0 -13 6 -15 28 -9 15 3 42 9 60 12 18 3 32 11 32 19 0 16 -38 18 -60 4z"/>
 <path d="M1857 1933 c-13 -12 -7 -23 11 -23 10 0 23 -5 28 -10 6 -6 18 -8 27 -4 15 5 14 9 -7 25 -25 19 -47 24 -59 12z"/>
 <path d="M2953 1921 c-24 -12 -48 -32 -57 -49 -8 -16 -31 -51 -51 -77 -20 -26 -34 -50 -31 -53 10 -9 76 60 97 100 12 24 32 43 54 52 19 8 35 22 35 30 0 19 4 20 -47 -3z"/>
 <path d="M241 1906 c-32 -11 -55 -36 -34 -36 21 0 103 33 103 41 0 12 -28 10 -69 -5z"/>
 <path d="M1805 1889 c-4 -6 -5 -13 -2 -16 7 -7 27 6 27 18 0 12 -17 12 -25 -2z"/>
 <path d="M138 1842 c-30 -18 -36 -32 -15 -32 17 0 57 29 57 41 0 12 -10 10 -42 -9z"/>
 <path d="M1760 1825 c-7 -14 -16 -25 -20 -25 -8 0 -70 -58 -70 -65 0 -14 31 -2 40 15 6 11 16 20 23 20 10 0 57 61 57 75 0 14 -18 2 -30 -20z"/>
 <path d="M33 1798 c-13 -6 -23 -17 -23 -25 0 -8 3 -13 8 -11 48 24 62 32 62 40 0 11 -20 9 -47 -4z"/>
 <path d="M1607 1722 c-18 -19 -23 -72 -8 -72 4 0 7 -15 4 -34 -2 -19 2 -38 8 -41 7 -5 3 -15 -12 -31 -24 -26 -20 -45 5 -24 22 18 67 101 60 111 -3 5 -12 9 -19 9 -9 0 -12 6 -9 15 4 8 1 22 -6 31 -10 11 -10 18 -2 26 7 7 12 16 12 20 0 14 -16 9 -33 -10z"/>
 <path d="M2735 1709 c-4 -6 2 -20 13 -32 19 -21 75 -132 77 -152 0 -5 5 -32 9 -59 20 -114 -55 -274 -184 -393 -25 -22 -42 -44 -38 -49 20 -19 168 123 168 162 0 8 3 14 8 14 13 0 69 104 78 145 25 123 6 204 -74 323 -36 53 -46 60 -57 41z"/>
 <path d="M2850 1708 c0 -14 23 -58 32 -58 4 0 8 3 8 8 -1 9 -39 59 -40 50z"/>
 <path d="M2933 1440 c0 -61 3 -80 13 -80 11 0 14 19 14 80 0 59 -3 80 -13 80 -9 0 -13 -21 -14 -80z"/>
 <path d="M1517 1475 c-11 -7 -41 -19 -68 -26 -30 -8 -49 -18 -49 -27 0 -10 7 -12 28 -8 41 10 116 49 120 64 5 16 -8 15 -31 -3z"/>
 <path d="M1250 1415 c0 -8 5 -15 10 -15 6 0 10 7 10 15 0 8 -4 15 -10 15 -5 0 -10 -7 -10 -15z"/>
 <path d="M1360 1415 c0 -8 5 -15 10 -15 6 0 10 7 10 15 0 8 -4 15 -10 15 -5 0 -10 -7 -10 -15z"/>
 <path d="M1290 1405 c0 -9 9 -15 25 -15 16 0 25 6 25 15 0 9 -9 15 -25 15 -16 0 -25 -6 -25 -15z"/>
 <path d="M1195 1380 c-3 -5 -4 -14 0 -19 3 -5 0 -13 -6 -16 -5 -4 -8 -13 -5 -21 3 -8 1 -22 -4 -32 -20 -36 -40 -95 -34 -103 16 -27 62 15 50 46 -2 7 2 16 11 19 9 4 13 14 10 26 -3 11 -1 20 5 20 5 0 8 6 5 13 -2 6 3 17 11 23 12 9 12 14 1 32 -15 23 -34 29 -44 12z"/>
 <path d="M2911 1318 c-21 -58 -22 -68 -8 -68 14 0 37 47 37 76 0 22 -20 16 -29 -8z"/>
 <path d="M2860 1210 c0 -5 7 -10 15 -10 8 0 15 5 15 10 0 6 -7 10 -15 10 -8 0 -15 -4 -15 -10z"/>
 <path d="M2812 1139 c-42 -52 -50 -69 -32 -69 12 0 85 108 78 115 -2 3 -23 -18 -46 -46z"/>
 <path d="M1100 1115 c-24 -24 -41 -48 -37 -52 8 -7 97 75 97 89 0 17 -18 6 -60 -37z"/>
 <path d="M2720 1045 c-7 -9 -10 -18 -7 -22 8 -7 37 15 37 28 0 14 -16 11 -30 -6z"/>
 <path d="M970 1025 c0 -16 17 -19 44 -9 26 10 18 24 -14 24 -20 0 -30 -5 -30 -15z"/>
 <path d="M894 1003 c-3 -10 -11 -28 -17 -41 -15 -31 5 -52 28 -28 9 9 23 16 31 16 19 0 17 21 -5 48 -23 27 -30 28 -37 5z"/>
 <path d="M2540 982 c-49 -41 -132 -91 -222 -135 -32 -16 -60 -32 -63 -38 -4 -5 -17 -9 -30 -9 -13 0 -27 -5 -30 -11 -8 -11 -56 -33 -68 -30 -5 1 -23 -5 -40 -13 -68 -30 -309 -102 -367 -110 -14 -2 -63 -11 -110 -19 -211 -40 -187 -36 -355 -53 -33 -3 -134 -7 -225 -9 -91 -2 -180 -4 -197 -4 -18 -1 -33 -5 -33 -10 0 -29 454 -14 685 23 122 19 222 38 235 43 8 3 20 5 27 4 7 -1 29 5 49 14 20 8 44 15 54 15 24 0 262 79 274 91 6 5 17 9 27 9 16 0 102 39 220 100 81 41 169 99 169 110 0 6 6 10 13 10 16 0 47 32 47 48 0 19 -13 14 -60 -26z"/>
 <path d="M2660 995 c-7 -9 -10 -18 -7 -22 8 -7 37 15 37 28 0 14 -16 11 -30 -6z"/>
 <path d="M2600 945 c-7 -9 -10 -18 -7 -22 8 -7 37 15 37 28 0 14 -16 11 -30 -6z"/>
 <path d="M700 903 c0 -10 -5 -24 -12 -31 -6 -6 -8 -15 -4 -19 4 -4 10 -3 14 2 13 18 51 35 67 29 10 -4 15 0 15 10 0 9 -8 16 -17 16 -10 0 -28 3 -40 6 -18 5 -23 2 -23 -13z"/>
 <path d="M850 905 c0 -8 7 -15 15 -15 8 0 15 7 15 15 0 8 -7 15 -15 15 -8 0 -15 -7 -15 -15z"/>
 <path d="M2524 896 c-10 -8 -16 -17 -12 -21 8 -8 48 13 48 25 0 14 -13 12 -36 -4z"/>
 <path d="M535 830 c-10 -11 -16 -22 -13 -25 7 -8 58 19 55 29 -6 18 -24 16 -42 -4z"/>
 <path d="M2400 825 c-14 -8 -35 -19 -47 -24 -13 -6 -23 -15 -23 -21 0 -13 1 -13 41 6 55 25 63 30 67 42 5 16 -7 15 -38 -3z"/>
 <path d="M475 779 c-4 -6 -5 -13 -2 -16 7 -7 27 6 27 18 0 12 -17 12 -25 -2z"/>
 <path d="M2250 744 c0 -17 22 -14 28 4 2 7 -3 12 -12 12 -9 0 -16 -7 -16 -16z"/>
 <path d="M2181 726 c-19 -7 -37 -18 -39 -24 -5 -17 33 -15 48 3 7 8 19 15 26 15 8 0 14 5 14 10 0 12 -6 12 -49 -4z"/>
 <path d="M370 688 c0 -7 -7 -26 -15 -42 -9 -16 -14 -37 -13 -45 1 -9 -1 -22 -5 -28 -5 -7 -5 -17 -2 -23 12 -20 24 -9 31 27 6 29 9 34 18 21 11 -14 96 -41 104 -33 13 13 -11 35 -38 35 -23 0 -30 5 -30 19 0 10 -7 24 -15 31 -9 7 -13 21 -10 31 4 13 1 19 -9 19 -9 0 -16 -6 -16 -12z"/>
 <path d="M1900 625 c0 -8 7 -15 15 -15 8 0 15 7 15 15 0 8 -7 15 -15 15 -8 0 -15 -7 -15 -15z"/>
 <path d="M1740 585 c0 -8 5 -15 10 -15 6 0 10 7 10 15 0 8 -4 15 -10 15 -5 0 -10 -7 -10 -15z"/>
 <path d="M1680 575 c0 -8 7 -15 15 -15 8 0 15 7 15 15 0 8 -7 15 -15 15 -8 0 -15 -7 -15 -15z"/>
 <path d="M512 568 c8 -24 268 -46 268 -24 0 9 -15 14 -42 14 -24 1 -67 6 -97 12 -75 14 -134 13 -129 -2z"/>
 <path d="M390 545 c0 -8 5 -15 10 -15 6 0 10 7 10 15 0 8 -4 15 -10 15 -5 0 -10 -7 -10 -15z"/>
 <path d="M1520 545 c0 -9 11 -13 30 -13 17 1 30 6 30 13 0 7 -13 12 -30 13 -19 0 -30 -4 -30 -13z"/>
 <path d="M440 535 c0 -8 5 -15 10 -15 6 0 10 7 10 15 0 8 -4 15 -10 15 -5 0 -10 -7 -10 -15z"/>
 <path d="M1438 543 c-35 -3 -48 -8 -48 -20 0 -12 8 -14 38 -9 20 3 45 6 55 7 9 0 17 7 17 15 0 8 -3 13 -7 12 -5 -1 -29 -3 -55 -5z"/>
 <path d="M480 525 c0 -8 5 -15 10 -15 6 0 10 7 10 15 0 8 -4 15 -10 15 -5 0 -10 -7 -10 -15z"/>
 <path d="M520 525 c0 -8 5 -15 10 -15 6 0 10 7 10 15 0 8 -4 15 -10 15 -5 0 -10 -7 -10 -15z"/>
 <path d="M570 515 c0 -8 5 -15 10 -15 6 0 10 7 10 15 0 8 -4 15 -10 15 -5 0 -10 -7 -10 -15z"/>
 <path d="M1320 515 c0 -8 5 -15 10 -15 6 0 10 7 10 15 0 8 -4 15 -10 15 -5 0 -10 -7 -10 -15z"/>
 <path d="M650 505 c0 -8 5 -15 10 -15 6 0 10 7 10 15 0 8 -4 15 -10 15 -5 0 -10 -7 -10 -15z"/>
 <path d="M690 505 c0 -8 5 -15 10 -15 6 0 10 7 10 15 0 8 -4 15 -10 15 -5 0 -10 -7 -10 -15z"/>
 <path d="M730 505 c0 -8 5 -15 10 -15 6 0 10 7 10 15 0 8 -4 15 -10 15 -5 0 -10 -7 -10 -15z"/>
 <path d="M1180 505 c0 -7 11 -12 25 -12 14 0 25 5 25 12 0 7 -11 13 -25 13 -14 0 -25 -6 -25 -13z"/>
 <path d="M810 495 c0 -8 5 -15 10 -15 6 0 10 7 10 15 0 8 -4 15 -10 15 -5 0 -10 -7 -10 -15z"/>
 <path d="M850 495 c0 -9 15 -13 45 -12 27 0 45 5 45 12 0 7 -18 12 -45 12 -30 1 -45 -3 -45 -12z"/>
 <path d="M960 495 c0 -9 11 -13 30 -13 17 1 30 6 30 13 0 7 -13 12 -30 13 -19 0 -30 -4 -30 -13z"/>
 <path d="M1040 495 c0 -8 7 -15 15 -15 8 0 15 7 15 15 0 8 -7 15 -15 15 -8 0 -15 -7 -15 -15z"/>
 </g>
<g id="layer10" fill="#fffefc" stroke="none">
 <path d="M1562 2364 c-24 -11 -32 -19 -28 -31 5 -13 4 -14 -8 -4 -20 17 -36 6 -36 -24 0 -12 -7 -25 -15 -29 -9 -3 -15 -18 -15 -35 0 -23 -5 -30 -22 -33 -15 -2 -24 -11 -26 -26 -3 -17 -8 -21 -22 -17 -10 3 -27 2 -37 -4 -10 -5 -40 -13 -68 -18 -35 -6 -51 -13 -53 -25 -2 -12 3 -18 15 -19 16 0 15 -2 -4 -16 -13 -8 -23 -19 -23 -24 0 -16 -39 -48 -76 -64 -19 -8 -66 -42 -102 -76 -80 -73 -95 -81 -190 -104 -40 -10 -75 -22 -78 -26 -3 -5 -16 -9 -30 -9 -14 0 -37 -9 -52 -19 -15 -10 -60 -27 -101 -37 -53 -13 -78 -25 -88 -41 -9 -13 -19 -21 -23 -18 -5 3 -11 -8 -15 -25 -4 -16 -13 -30 -20 -30 -21 0 -39 -38 -26 -54 14 -17 -23 -52 -64 -59 -16 -4 -45 -9 -63 -13 -19 -4 -36 -13 -39 -20 -3 -8 -12 -14 -19 -14 -8 0 -19 -11 -25 -24 -11 -24 -49 -37 -111 -36 -32 0 -45 -29 -28 -61 7 -12 10 -34 7 -48 -5 -22 2 -36 32 -69 21 -23 46 -42 55 -42 9 0 16 -7 16 -15 0 -8 5 -15 11 -15 7 0 18 -8 24 -17 10 -14 30 -18 81 -19 37 -1 77 2 90 6 26 10 39 69 18 86 -11 9 -11 14 1 31 17 25 65 37 65 17 0 -8 7 -14 15 -14 8 0 15 7 15 15 0 11 7 14 24 9 29 -7 35 2 40 58 4 41 9 61 24 99 9 21 127 119 143 119 7 0 22 8 33 18 20 16 20 16 7 -1 -17 -21 -7 -35 13 -18 11 10 18 8 34 -9 14 -16 26 -19 46 -14 28 7 38 44 11 44 -16 0 -20 16 -6 24 4 3 11 23 15 43 5 31 14 43 52 66 25 15 53 27 63 27 10 0 24 7 31 15 7 8 20 15 29 15 9 0 22 5 29 12 8 8 12 8 12 1 0 -6 12 -10 27 -10 15 0 29 -6 31 -12 6 -17 32 -13 32 5 0 9 9 27 20 41 11 15 18 33 15 42 -3 12 13 25 62 51 37 19 87 49 111 67 23 19 47 31 52 28 16 -10 47 13 70 50 15 25 29 35 47 35 18 0 24 4 19 15 -3 9 0 15 9 15 20 0 28 19 15 35 -15 18 -6 45 16 45 28 0 75 40 72 62 -3 21 4 27 55 47 23 9 28 16 25 39 -3 24 -8 28 -53 33 -28 4 -65 14 -82 23 -37 19 -38 19 -81 0z"/>
 </g>
<g id="layer11" fill="#fcc588" stroke="none">
 <path d="M1633 2844 c-3 -8 -2 -30 1 -49 4 -22 3 -35 -4 -35 -5 0 -10 -11 -10 -25 0 -29 -31 -61 -68 -70 -15 -3 -39 -18 -54 -33 -16 -14 -28 -20 -28 -14 0 7 -7 12 -16 12 -10 0 -14 -6 -11 -14 8 -21 -26 -61 -75 -86 -38 -19 -52 -21 -118 -16 -56 5 -84 3 -110 -8 -43 -18 -91 -68 -114 -118 -9 -21 -22 -38 -28 -38 -7 0 -23 -11 -37 -25 -19 -18 -41 -25 -82 -29 -79 -7 -103 -19 -157 -74 -50 -50 -71 -63 -140 -81 -56 -16 -109 -64 -151 -139 -30 -54 -38 -61 -72 -67 -22 -4 -41 -11 -45 -16 -3 -5 -12 -9 -20 -9 -9 0 -42 -23 -74 -51 -52 -45 -69 -53 -137 -68 l-78 -17 -3 -146 -3 -146 27 -21 c24 -19 25 -21 10 -43 -21 -30 -21 -88 -1 -88 11 0 14 7 9 24 -3 13 -1 27 5 30 6 4 11 2 11 -5 0 -9 4 -9 15 1 8 6 19 9 26 5 6 -4 24 2 39 13 24 18 29 19 34 6 8 -22 21 -15 48 26 24 35 28 37 133 57 41 8 65 31 65 63 0 14 11 41 25 60 14 19 25 40 25 47 0 18 30 32 127 58 47 13 93 31 102 39 10 9 29 16 42 16 14 0 29 4 35 9 5 5 42 16 82 26 78 19 175 79 208 130 9 14 23 25 30 25 8 0 14 7 14 16 0 11 -6 13 -19 9 -15 -4 -18 -2 -15 12 3 10 15 18 27 19 12 0 31 5 42 9 18 8 19 7 6 -8 -22 -27 -5 -32 25 -8 37 29 56 57 63 95 6 28 11 32 56 38 113 16 118 19 131 72 14 56 18 60 47 61 17 0 22 6 22 27 0 15 7 35 17 44 21 21 84 26 124 9 90 -37 186 -24 243 31 26 26 37 31 47 23 21 -17 31 -3 38 55 7 52 -8 136 -36 211 -16 40 -58 92 -110 133 -37 29 -49 33 -81 29 -24 -3 -40 -1 -43 6 -6 17 -54 18 -61 1z"/>
 <path d="M1765 2243 c-11 -8 -27 -18 -35 -24 -13 -8 -13 -10 0 -19 13 -8 13 -10 -2 -10 -25 0 -32 -19 -14 -39 14 -15 14 -22 4 -42 -7 -13 -20 -23 -29 -21 -8 1 -24 -6 -34 -18 -10 -11 -24 -20 -31 -20 -7 0 -17 -12 -22 -27 -7 -18 -11 -22 -11 -10 -2 31 -59 22 -95 -15 -17 -17 -80 -59 -141 -93 -94 -52 -110 -65 -113 -89 -2 -16 -23 -48 -52 -79 -39 -41 -48 -47 -43 -28 6 22 4 23 -18 16 -36 -11 -71 -9 -79 6 -6 9 -28 0 -85 -36 -59 -37 -76 -52 -72 -66 3 -10 -1 -23 -9 -30 -19 -15 -18 -29 2 -29 12 0 15 -6 9 -22 -3 -13 -9 -33 -12 -45 -4 -18 -12 -23 -39 -23 -27 0 -34 4 -34 20 0 24 -8 25 -37 5 -18 -13 -22 -13 -33 0 -19 23 -36 18 -93 -26 -39 -32 -52 -48 -53 -70 -1 -16 2 -31 6 -34 12 -7 -10 -88 -28 -102 -8 -7 -23 -30 -33 -53 -20 -44 -47 -52 -83 -25 -32 24 -43 18 -41 -22 0 -21 -4 -48 -10 -60 -9 -19 -16 -22 -55 -18 -25 2 -69 9 -98 15 -49 10 -54 9 -86 -15 -41 -31 -83 -112 -67 -128 16 -16 13 -37 -5 -37 -13 0 -15 -8 -9 -47 4 -34 1 -59 -9 -85 -9 -21 -16 -48 -16 -60 0 -34 94 -135 153 -165 46 -23 52 -24 62 -9 7 9 25 16 40 16 22 0 26 4 22 20 -3 11 -1 23 4 26 5 3 9 13 9 24 0 10 7 20 15 24 8 3 15 16 15 30 0 13 7 26 15 30 8 3 15 12 15 21 0 23 37 55 64 55 13 0 30 7 37 16 10 12 24 15 56 10 37 -5 44 -2 62 21 16 19 21 21 21 9 0 -19 23 -21 39 -3 6 8 14 28 17 46 l7 32 23 -22 c18 -16 30 -20 51 -14 15 4 41 6 57 6 23 0 27 3 23 19 -3 11 0 33 5 48 10 24 19 30 76 40 96 19 145 58 189 152 19 41 38 82 43 90 11 23 25 120 21 157 -3 36 7 37 57 5 17 -11 39 -13 88 -9 87 8 128 23 191 69 42 31 53 45 58 75 4 21 9 45 11 54 2 9 -2 22 -10 28 -10 9 -13 22 -9 42 5 25 2 29 -16 29 -11 0 -21 6 -21 14 0 17 33 31 38 17 5 -15 37 -14 51 3 6 7 21 11 34 9 18 -4 29 4 51 35 15 22 26 46 25 54 -5 26 12 57 34 60 15 2 23 11 25 28 4 30 22 52 22 27 0 -22 26 -22 39 1 6 9 11 11 11 5 0 -7 7 -13 15 -13 8 0 15 -7 15 -15 0 -19 34 -20 49 -1 10 12 16 12 43 -1 25 -13 37 -14 63 -4 17 6 39 11 48 11 19 0 24 30 5 30 -7 1 0 11 16 24 19 16 26 28 20 37 -4 8 -9 21 -9 29 -2 45 -20 91 -46 116 -26 25 -33 27 -57 18 -15 -6 -34 -7 -42 -3 -8 4 -37 20 -64 35 -57 32 -140 40 -171 17z"/>
 <path d="M1637 2103 c-12 -11 -8 -23 8 -23 8 0 15 7 15 15 0 16 -12 20 -23 8z"/>
 <path d="M48 1293 c-10 -2 -18 -9 -18 -15 0 -6 10 -8 23 -4 12 3 25 6 30 6 4 0 7 5 7 10 0 10 -12 11 -42 3z"/>
 <path d="M70 1220 c0 -5 7 -10 15 -10 8 0 15 -7 15 -15 0 -8 5 -15 10 -15 15 0 12 19 -4 36 -17 16 -36 19 -36 4z"/>
 <path d="M490 1214 c0 -17 22 -14 28 4 2 7 -3 12 -12 12 -9 0 -16 -7 -16 -16z"/>
 <path d="M140 1169 c0 -8 32 -29 44 -29 15 0 3 16 -19 27 -14 6 -25 7 -25 2z"/>
 </g>
<g id="layer12" fill="#744b23" stroke="none">
 <path d="M1851 2886 c-35 -6 -66 -16 -68 -23 -2 -6 15 -29 39 -51 46 -43 132 -176 153 -239 7 -21 16 -58 20 -83 7 -40 6 -43 -8 -31 -22 18 -38 5 -31 -25 5 -21 3 -24 -19 -24 -14 0 -39 -12 -56 -26 -17 -14 -43 -29 -58 -33 -24 -6 -28 -13 -28 -41 0 -18 6 -35 13 -37 6 -3 12 3 12 11 0 15 3 15 33 0 17 -9 46 -26 62 -39 39 -29 76 -40 84 -26 10 15 100 -16 123 -43 10 -12 27 -40 38 -63 11 -24 25 -43 30 -43 18 0 10 -18 -10 -23 -26 -7 -26 -33 1 -40 24 -7 16 -27 -10 -27 -10 0 -21 -8 -24 -19 -5 -21 -46 -31 -137 -34 -30 -2 -63 -6 -73 -11 -11 -5 -23 -4 -32 4 -24 20 -61 3 -102 -46 -68 -82 -124 -133 -139 -127 -8 3 -26 -5 -40 -17 -25 -24 -33 -60 -13 -60 6 0 8 -7 5 -16 -17 -44 -18 -64 -3 -64 9 0 19 9 22 21 4 11 9 18 12 16 2 -3 -5 -22 -15 -44 -23 -43 -95 -107 -146 -128 -51 -21 -166 -44 -211 -42 -39 2 -40 1 -46 -38 -3 -22 -7 -34 -8 -27 0 6 -8 12 -16 12 -8 0 -15 -6 -15 -12 0 -7 -3 -23 -6 -35 -5 -17 -2 -23 10 -23 21 0 21 -2 -14 -75 -20 -42 -49 -80 -87 -115 -62 -57 -78 -65 -136 -75 -37 -6 -63 -35 -39 -43 22 -7 12 -22 -14 -22 -20 0 -25 -4 -22 -22 2 -19 -2 -23 -22 -24 -14 0 -33 -4 -43 -8 -9 -5 -29 -6 -43 -3 -30 5 -70 -12 -90 -41 -9 -13 -21 -18 -34 -15 -11 3 -27 0 -35 -7 -8 -7 -26 -10 -39 -6 -15 4 -28 0 -36 -9 -7 -8 -17 -15 -23 -15 -5 0 -19 -9 -31 -20 -12 -11 -42 -40 -69 -65 -48 -45 -59 -71 -32 -81 23 -9 18 -24 -8 -21 -17 2 -22 -3 -22 -23 -1 -18 -6 -24 -18 -22 -10 2 -17 -4 -17 -13 0 -9 6 -15 12 -14 7 1 20 -1 28 -4 25 -9 122 -28 174 -33 27 -3 52 -6 55 -8 22 -14 466 -22 601 -12 108 8 381 44 440 57 25 6 70 15 100 20 30 6 62 13 70 16 8 4 19 5 24 4 4 -1 27 5 50 13 22 7 61 19 86 26 25 7 56 17 70 23 14 6 31 9 37 8 7 -1 45 13 85 32 40 19 89 40 108 47 46 18 238 117 272 141 14 10 29 19 32 19 10 0 236 191 236 199 0 3 13 20 28 36 41 43 78 104 92 150 7 22 17 45 22 52 17 22 13 204 -6 240 -9 18 -16 39 -16 47 0 8 -8 21 -18 28 -9 7 -29 32 -45 55 l-27 43 36 47 c20 27 41 58 47 70 11 24 60 49 76 38 8 -4 11 90 11 311 0 175 -3 315 -6 311 -3 -3 -38 17 -77 46 -111 79 -396 241 -468 266 -153 53 -204 61 -373 60 -89 -1 -190 -7 -225 -13z"/>
 <path d="M1568 2769 c-20 -33 -181 -106 -431 -194 -75 -27 -113 -49 -292 -168 -81 -54 -115 -79 -281 -202 -33 -25 -65 -45 -70 -45 -5 0 -29 -23 -52 -50 -52 -60 -91 -86 -195 -127 -42 -18 -112 -57 -156 -87 -43 -31 -81 -53 -85 -49 -3 3 -6 -15 -6 -41 l0 -46 38 18 c20 11 49 22 63 25 14 4 45 22 70 40 24 19 69 42 99 52 67 22 110 51 110 74 0 48 87 141 132 141 7 0 41 13 76 30 42 19 65 37 72 54 12 34 27 41 245 120 80 29 82 30 89 70 9 49 41 84 89 97 23 6 66 22 95 36 44 20 62 24 95 18 83 -14 102 -12 105 13 2 15 10 22 26 22 26 0 46 18 46 42 0 12 13 21 42 29 52 14 111 74 105 107 -3 16 0 22 14 22 11 0 19 5 19 10 0 19 -50 10 -62 -11z"/>
 <path d="M1008 2395 c-6 -14 -8 -28 -4 -33 9 -8 36 26 36 45 0 22 -20 14 -32 -12z"/>
 <path d="M400 1991 c-13 -26 -13 -31 4 -31 13 0 26 20 26 41 0 16 -19 10 -30 -10z"/>
 </g>
<g id="layer13" fill="#fdc05a" stroke="none">
 <path d="M0 2415 c0 -322 3 -585 8 -585 4 0 30 17 57 38 74 55 96 68 166 97 111 46 142 65 204 124 79 76 190 159 453 338 134 91 173 110 397 194 77 28 165 64 196 80 52 26 109 78 109 100 0 18 79 46 187 66 15 3 132 7 260 10 228 5 233 4 324 -22 51 -14 120 -39 155 -55 72 -33 346 -196 421 -252 29 -21 55 -38 58 -38 3 0 5 110 5 245 l0 245 -1500 0 -1500 0 0 -585z"/>
 <path d="M1993 2203 c-41 -8 -19 -33 29 -33 13 0 18 6 16 17 -3 19 -13 22 -45 16z"/>
 <path d="M1136 2043 c-4 -4 -21 -7 -38 -8 -26 0 -33 -5 -39 -29 -11 -39 -3 -48 34 -41 35 8 87 51 87 72 0 14 -32 18 -44 6z"/>
 <path d="M1866 1995 c-6 -24 -26 -36 -26 -15 0 21 -26 9 -43 -20 -10 -16 -24 -30 -30 -30 -10 0 -47 -72 -47 -93 0 -18 34 -4 87 37 82 62 92 75 86 114 -6 38 -18 42 -27 7z"/>
 <path d="M1650 1990 c0 -5 7 -10 15 -10 8 0 15 5 15 10 0 6 -7 10 -15 10 -8 0 -15 -4 -15 -10z"/>
 <path d="M2947 1908 c-18 -6 -36 -26 -51 -56 -13 -26 -36 -58 -50 -71 -14 -14 -26 -30 -26 -37 0 -7 18 -35 41 -63 74 -95 102 -246 64 -356 -19 -55 -60 -126 -110 -192 -40 -52 -229 -211 -287 -242 -24 -12 -56 -31 -73 -41 -31 -19 -118 -63 -190 -95 -22 -9 -53 -24 -70 -32 -28 -13 -190 -64 -315 -99 -159 -45 -403 -90 -545 -100 -44 -4 -111 -10 -150 -14 -62 -8 -433 -5 -510 4 -16 2 -64 6 -105 11 -41 4 -124 18 -184 31 -61 12 -113 21 -118 18 -15 -10 -106 46 -133 82 -23 30 -28 46 -26 80 1 23 -2 45 -8 49 -8 4 -8 12 0 27 6 11 9 33 7 49 -3 20 0 29 9 29 15 0 18 70 4 85 -14 15 26 90 54 103 38 17 32 53 -12 88 -21 17 -46 33 -55 37 -10 3 -18 15 -18 26 0 11 -8 25 -19 30 -23 13 -32 65 -15 83 7 7 16 26 20 42 6 27 5 29 -15 23 -21 -5 -22 -4 -7 12 21 24 21 25 -19 55 l-35 27 0 -750 0 -751 1500 0 1500 0 0 960 c0 762 -3 960 -12 959 -7 0 -26 -5 -41 -11z"/>
 <path d="M1657 1779 c-31 -26 -40 -29 -52 -19 -12 10 -21 10 -45 0 -24 -10 -30 -19 -30 -42 0 -29 1 -30 37 -23 47 9 175 116 136 115 -5 -1 -25 -15 -46 -31z"/>
 <path d="M1189 1459 c-11 -21 -4 -89 9 -89 4 0 20 10 36 23 24 20 27 28 21 55 -5 25 -12 32 -30 32 -14 0 -29 -9 -36 -21z"/>
 <path d="M560 1240 c0 -11 7 -20 15 -20 8 0 15 9 15 20 0 11 -7 20 -15 20 -8 0 -15 -9 -15 -20z"/>
 <path d="M534 1189 c-10 -17 13 -36 27 -22 12 12 4 33 -11 33 -5 0 -12 -5 -16 -11z"/>
 <path d="M552 1128 c-14 -14 -16 -35 -2 -43 8 -5 20 0 59 22 7 5 -21 33 -33 33 -7 0 -17 -5 -24 -12z"/>
 <path d="M506 841 c-10 -11 -24 -17 -31 -15 -7 3 -22 1 -33 -5 -24 -13 -82 -96 -82 -117 0 -7 -7 -14 -15 -14 -8 0 -15 -7 -15 -15 0 -8 7 -15 15 -15 8 0 15 7 15 15 0 8 7 15 16 15 20 0 184 138 184 156 0 20 -34 17 -54 -5z"/>
 </g>

</svg>