<!DOCTYPE svg PUBLIC "-//W3C//DTD SVG 20010904//EN" "http://www.w3.org/TR/2001/REC-SVG-20010904/DTD/svg10.dtd">
<svg version="1.0" xmlns="http://www.w3.org/2000/svg" width="300px" height="300px" viewBox="0 0 3000 3000" preserveAspectRatio="xMidYMid meet">
<g id="layer1" fill="#357abd" stroke="none">
 <path d="M560 1810 c0 -5 7 -10 15 -10 8 0 15 5 15 10 0 6 -7 10 -15 10 -8 0 -15 -4 -15 -10z"/>
 <path d="M488 1782 c-24 -14 -39 -42 -24 -42 12 0 76 43 76 51 0 14 -22 10 -52 -9z"/>
 <path d="M423 1733 c-14 -5 -18 -33 -5 -33 10 0 32 22 32 32 0 9 -8 9 -27 1z"/>
 <path d="M345 1649 c-4 -6 -5 -13 -2 -16 7 -7 27 6 27 18 0 12 -17 12 -25 -2z"/>
 <path d="M370 862 c0 -14 39 -46 47 -39 3 4 -2 16 -12 27 -19 21 -35 26 -35 12z"/>
 </g>
<g id="layer2" fill="#c44e5b" stroke="none">
 <path d="M2082 2043 c6 -32 138 -29 138 2 0 12 -16 15 -71 15 -62 0 -70 -2 -67 -17z"/>
 </g>
<g id="layer3" fill="#3da8cf" stroke="none">
 <path d="M590 1840 c0 -5 7 -10 15 -10 8 0 15 5 15 10 0 6 -7 10 -15 10 -8 0 -15 -4 -15 -10z"/>
 <path d="M490 1790 c0 -5 7 -10 15 -10 8 0 15 5 15 10 0 6 -7 10 -15 10 -8 0 -15 -4 -15 -10z"/>
 <path d="M302 1598 c-16 -16 -15 -28 3 -28 8 0 15 9 15 20 0 23 -2 24 -18 8z"/>
 <path d="M250 1056 c0 -13 51 -116 61 -121 15 -10 10 32 -6 45 -8 7 -15 20 -15 30 0 9 -9 25 -20 35 -11 10 -20 15 -20 11z"/>
 <path d="M490 750 c0 -5 7 -10 15 -10 8 0 15 5 15 10 0 6 -7 10 -15 10 -8 0 -15 -4 -15 -10z"/>
 <path d="M1140 750 c0 -5 7 -10 15 -10 8 0 15 5 15 10 0 6 -7 10 -15 10 -8 0 -15 -4 -15 -10z"/>
 <path d="M590 700 c0 -5 7 -10 15 -10 8 0 15 5 15 10 0 6 -7 10 -15 10 -8 0 -15 -4 -15 -10z"/>
 </g>
<g id="layer4" fill="#38939f" stroke="none">
 <path d="M680 1845 c0 -8 5 -15 10 -15 6 0 10 7 10 15 0 8 -4 15 -10 15 -5 0 -10 -7 -10 -15z"/>
 <path d="M595 1828 c-27 -12 -74 -38 -104 -57 -30 -20 -65 -42 -78 -49 -12 -7 -28 -23 -34 -35 -6 -12 -21 -32 -32 -44 -11 -13 -18 -25 -15 -29 3 -3 36 24 72 60 62 61 203 146 242 146 8 0 14 7 14 15 0 19 -5 19 -65 -7z"/>
 <path d="M310 945 c0 -8 39 -55 88 -103 67 -68 104 -96 162 -124 99 -48 120 -54 120 -34 0 9 -6 16 -14 16 -7 0 -50 18 -95 41 -86 43 -200 139 -227 191 -16 30 -34 37 -34 13z"/>
 <path d="M700 675 c0 -8 7 -15 15 -15 8 0 15 7 15 15 0 8 -7 15 -15 15 -8 0 -15 -7 -15 -15z"/>
 <path d="M750 665 c0 -9 9 -15 25 -15 16 0 25 6 25 15 0 9 -9 15 -25 15 -16 0 -25 -6 -25 -15z"/>
 </g>
<g id="layer5" fill="#3191cd" stroke="none">
 <path d="M740 1875 c0 -8 7 -15 15 -15 8 0 15 7 15 15 0 8 -7 15 -15 15 -8 0 -15 -7 -15 -15z"/>
 <path d="M890 1875 c0 -8 7 -15 15 -15 8 0 15 7 15 15 0 8 -7 15 -15 15 -8 0 -15 -7 -15 -15z"/>
 <path d="M690 1865 c0 -8 5 -15 10 -15 6 0 10 7 10 15 0 8 -4 15 -10 15 -5 0 -10 -7 -10 -15z"/>
 <path d="M950 1865 c0 -8 5 -15 10 -15 6 0 10 7 10 15 0 8 -4 15 -10 15 -5 0 -10 -7 -10 -15z"/>
 <path d="M540 1820 c-8 -5 -12 -12 -8 -15 9 -9 48 4 48 16 0 12 -21 11 -40 -1z"/>
 <path d="M475 1779 c-4 -6 -5 -12 -2 -15 7 -7 37 7 37 17 0 13 -27 11 -35 -2z"/>
 <path d="M430 1745 c-7 -9 -11 -18 -8 -20 9 -10 38 7 38 21 0 18 -14 18 -30 -1z"/>
 <path d="M360 1675 c-7 -9 -10 -18 -7 -22 8 -7 37 15 37 28 0 14 -16 11 -30 -6z"/>
 <path d="M313 1615 c-3 -9 -3 -18 0 -21 9 -9 27 6 27 22 0 19 -19 18 -27 -1z"/>
 <path d="M280 1550 c-6 -12 -9 -24 -7 -27 3 -2 11 5 17 17 6 12 9 24 7 27 -3 2 -11 -5 -17 -17z"/>
 <path d="M240 1471 c0 -5 -3 -16 -6 -25 -4 -11 -1 -16 10 -16 9 0 16 4 16 9 0 5 3 16 6 25 4 11 1 16 -10 16 -9 0 -16 -4 -16 -9z"/>
 <path d="M220 1400 c0 -5 7 -10 15 -10 8 0 15 5 15 10 0 6 -7 10 -15 10 -8 0 -15 -4 -15 -10z"/>
 <path d="M210 1345 c0 -8 7 -15 15 -15 8 0 15 7 15 15 0 8 -7 15 -15 15 -8 0 -15 -7 -15 -15z"/>
 <path d="M210 1195 c0 -8 7 -15 15 -15 8 0 15 7 15 15 0 8 -7 15 -15 15 -8 0 -15 -7 -15 -15z"/>
 <path d="M220 1140 c0 -5 7 -10 15 -10 8 0 15 5 15 10 0 6 -7 10 -15 10 -8 0 -15 -4 -15 -10z"/>
 <path d="M234 1094 c3 -9 6 -20 6 -25 0 -5 7 -9 16 -9 11 0 14 5 10 16 -3 9 -6 20 -6 25 0 5 -7 9 -16 9 -11 0 -14 -5 -10 -16z"/>
 <path d="M1350 970 c0 -5 -21 -35 -46 -65 -25 -31 -43 -59 -40 -62 9 -9 33 15 71 72 38 57 41 65 25 65 -5 0 -10 -4 -10 -10z"/>
 <path d="M310 945 c0 -18 19 -40 26 -32 4 4 0 15 -9 24 -9 10 -17 13 -17 8z"/>
 <path d="M1192 795 c-24 -19 -61 -42 -82 -52 -22 -10 -40 -24 -40 -30 0 -18 7 -16 59 14 59 33 121 82 121 94 0 15 -13 9 -58 -26z"/>
 <path d="M422 809 c2 -7 10 -15 17 -17 8 -3 12 1 9 9 -2 7 -10 15 -17 17 -8 3 -12 -1 -9 -9z"/>
 <path d="M470 770 c0 -13 28 -25 38 -16 3 4 0 11 -8 16 -20 13 -30 12 -30 0z"/>
 <path d="M530 731 c0 -12 39 -25 48 -16 7 7 -17 25 -35 25 -7 0 -13 -4 -13 -9z"/>
 </g>
<g id="layer6" fill="#feffff" stroke="none">
 <path d="M1155 2988 c-2 -7 -45 -263 -95 -568 -90 -547 -91 -555 -71 -568 18 -13 19 -21 14 -115 -4 -71 1 -164 16 -302 11 -110 22 -218 23 -240 3 -34 7 -40 28 -43 66 -9 107 -28 200 -97 55 -41 104 -75 109 -75 13 0 43 49 37 59 -14 23 -209 160 -248 175 l-44 17 -20 172 c-24 215 -25 401 -2 419 11 10 39 158 107 578 51 311 93 572 94 580 3 20 -141 28 -148 8z"/>
 <path d="M2000 2983 c1 -68 78 -922 84 -931 11 -18 145 -16 152 2 5 13 -60 842 -72 914 l-5 32 -79 0 c-70 0 -80 -2 -80 -17z"/>
 <path d="M720 1861 c-22 -6 -27 -17 -41 -81 -25 -123 -37 -150 -73 -165 -50 -21 -136 -27 -211 -15 -63 10 -71 9 -83 -7 -7 -10 -11 -27 -10 -38 4 -28 91 -47 193 -41 154 9 209 46 244 162 23 75 32 185 16 189 -5 2 -21 0 -35 -4z"/>
 <path d="M381 1164 c-34 -36 -73 -83 -87 -104 -24 -37 -25 -39 -9 -69 8 -17 19 -31 24 -31 5 0 28 26 51 58 24 31 59 74 78 95 l36 37 118 0 118 0 41 -37 c47 -43 71 -87 110 -202 34 -99 65 -154 112 -200 31 -29 40 -33 71 -27 20 4 36 13 36 19 0 7 -18 31 -41 52 -47 46 -67 83 -99 180 -34 104 -73 175 -122 221 -78 74 -77 74 -234 74 l-142 0 -61 -66z"/>
 </g>
<g id="layer7" fill="#55bb6f" stroke="none">
 <path d="M608 1826 c-91 -38 -147 -75 -214 -142 -68 -68 -77 -89 -41 -97 100 -24 229 -14 277 21 29 21 66 122 72 192 3 39 0 45 -17 47 -11 2 -45 -8 -77 -21z"/>
 <path d="M1073 1828 c-14 -22 -5 -295 14 -457 l19 -153 53 -20 c29 -11 94 -51 144 -89 50 -38 97 -69 104 -69 30 0 73 145 73 250 0 220 -158 441 -392 548 -3 2 -10 -3 -15 -10z"/>
 <path d="M419 1112 c-30 -32 -67 -77 -83 -101 l-30 -42 19 -35 c34 -63 156 -169 247 -213 123 -62 273 -85 388 -60 56 12 62 25 24 60 -38 36 -71 96 -103 191 -45 133 -71 176 -137 229 -36 28 -39 29 -154 29 l-118 0 -53 -58z"/>
 </g>
<g id="layer8" fill="#0e52ce" stroke="none">
 <path d="M705 1874 c-73 -15 -195 -68 -195 -85 0 -13 6 -12 78 17 35 14 87 29 114 33 l50 8 -7 -55 c-11 -85 -44 -182 -70 -206 -52 -49 -204 -69 -315 -42 -63 15 -66 15 -82 -5 -37 -43 -73 -216 -64 -307 6 -69 33 -179 49 -199 15 -20 22 -16 49 25 14 20 49 63 78 95 l52 57 142 0 c115 0 146 -3 166 -17 80 -53 126 -123 170 -258 12 -38 29 -83 37 -100 20 -40 103 -125 123 -125 24 0 134 76 185 127 51 52 105 129 105 150 0 7 -45 47 -100 88 -92 68 -146 95 -192 95 -14 0 -18 9 -18 38 0 21 -9 122 -21 223 -15 132 -19 217 -15 301 6 136 10 129 -95 147 -84 14 -137 13 -224 -5z"/>
 </g>
<g id="layer9" fill="#9f3650" stroke="none">
 <path d="M2040 2053 c-219 -37 -423 -218 -493 -438 -31 -99 -31 -262 0 -360 62 -195 224 -356 418 -418 99 -31 262 -31 360 0 193 61 356 223 416 413 102 320 -88 680 -411 781 -54 17 -80 19 -151 13 -60 -4 -89 -3 -93 5 -4 6 -10 10 -14 10 -4 -1 -18 -4 -32 -6z"/>
 </g>
<g id="layer10" fill="#4bc3cf" stroke="none">
 <path d="M0 1500 l0 -1500 1500 0 1500 0 0 1500 0 1500 -424 0 c-234 0 -427 -3 -429 -7 -3 -6 58 -764 75 -927 3 -26 8 -30 74 -46 283 -72 468 -327 451 -620 -15 -255 -179 -466 -422 -543 -98 -31 -261 -31 -360 0 -190 60 -338 208 -398 398 -31 98 -31 261 0 360 70 221 255 381 485 420 21 3 39 9 41 13 3 4 -13 212 -34 462 -21 250 -39 463 -39 473 0 16 -24 17 -365 17 l-365 0 -5 -22 c-11 -50 -185 -1122 -185 -1144 0 -18 13 -30 62 -56 171 -90 298 -298 298 -488 0 -96 -48 -265 -80 -285 -6 -4 -20 -25 -32 -48 -30 -59 -152 -178 -223 -216 -236 -127 -534 -85 -721 103 -78 78 -142 193 -163 294 -27 130 -4 315 50 394 16 24 29 50 29 59 0 10 31 51 70 92 127 136 275 193 478 184 62 -2 115 0 118 5 6 10 184 1083 184 1110 0 17 -32 18 -585 18 l-585 0 0 -1500z"/>
 </g>

</svg>