<!DOCTYPE svg PUBLIC "-//W3C//DTD SVG 20010904//EN" "http://www.w3.org/TR/2001/REC-SVG-20010904/DTD/svg10.dtd">
<svg version="1.0" xmlns="http://www.w3.org/2000/svg" width="300px" height="300px" viewBox="0 0 3000 3000" preserveAspectRatio="xMidYMid meet">
<g id="layer1" fill="#710219" stroke="none">
 <path d="M927 2584 c-4 -4 -7 -85 -7 -180 l0 -173 -72 -3 -73 -3 -3 -87 -3 -88 -39 0 c-39 0 -40 1 -40 34 0 28 4 35 23 38 21 3 22 7 22 98 l0 95 -100 0 -100 0 -3 -42 c-3 -34 -7 -42 -25 -45 -21 -3 -22 -6 -22 -143 l0 -140 28 -3 c24 -3 27 -8 27 -38 0 -33 -1 -34 -40 -34 l-39 0 -3 88 -3 87 -100 0 -100 0 0 -95 0 -95 67 -3 67 -3 3 -87 c3 -82 4 -87 26 -90 21 -3 22 -8 22 -82 l0 -79 -87 -3 -88 -3 0 -95 0 -95 138 -3 c155 -3 186 -20 45 -24 -87 -3 -93 -4 -96 -25 -3 -18 -11 -22 -45 -25 l-42 -3 0 -95 0 -95 93 -3 92 -3 0 -60 c0 -52 3 -62 20 -66 17 -5 20 -15 22 -92 l3 -86 87 -3 87 -3 3 -87 3 -87 100 0 100 0 3 62 c2 46 7 63 17 63 10 0 15 -17 17 -62 l3 -63 100 0 100 0 3 62 3 63 34 0 34 0 3 -87 3 -88 100 0 c95 0 100 1 103 22 3 20 10 22 65 25 l62 3 3 43 3 42 54 0 54 0 3 -42 3 -43 100 0 100 0 3 62 3 62 92 3 92 3 3 68 3 67 64 0 c50 0 65 -3 65 -14 0 -11 -15 -16 -52 -18 l-53 -3 0 -95 0 -95 100 0 100 0 3 87 3 87 52 3 52 3 3 157 c1 87 7 158 12 158 5 0 10 -19 12 -43 l3 -42 100 0 100 0 0 95 0 95 -72 3 -72 3 -3 42 -3 42 -92 3 c-51 1 -93 7 -93 12 0 6 40 10 93 11 50 0 139 1 197 2 l105 2 0 95 0 95 -52 3 -53 3 0 79 0 79 43 3 42 3 0 95 0 95 -62 3 -62 3 -3 87 -3 87 -47 3 c-47 3 -48 4 -48 37 l0 34 73 3 72 3 0 95 0 95 -100 0 -100 0 -3 -42 -3 -43 -140 0 -139 0 0 35 0 34 98 3 97 3 0 95 0 95 -100 0 -100 0 -3 -42 -3 -43 -44 0 -44 0 -3 88 -3 87 -100 0 -100 0 0 -95 0 -95 48 -3 c46 -3 47 -4 47 -37 l0 -34 -67 -3 -68 -3 -5 -45 c-3 -26 -7 11 -10 90 l-5 135 -100 0 -100 0 -3 -85 c-2 -61 -7 -87 -17 -93 -11 -6 -15 -29 -15 -92 0 -78 -2 -85 -20 -85 -16 0 -20 7 -20 33 0 18 5 38 10 43 7 7 10 47 8 100 -3 88 -3 89 -30 92 -24 3 -27 8 -30 45 l-3 42 -100 0 -100 0 -3 -93 c-3 -87 -1 -94 18 -99 15 -4 20 -14 20 -39 l0 -34 -50 0 -50 0 -2 178 -3 177 -95 3 c-53 1 -99 0 -103 -4z m173 -94 l0 -70 -75 0 -75 0 0 70 0 70 75 0 75 0 0 -70z m850 0 l0 -70 -75 0 -75 0 0 70 0 70 75 0 75 0 0 -70z m-580 -50 c0 -28 -1 -29 -57 -32 l-58 -3 -3 -37 c-2 -25 -8 -38 -18 -38 -11 0 -14 16 -14 70 l0 70 75 0 75 0 0 -30z m320 0 l0 -30 -75 0 -75 0 0 30 0 30 75 0 75 0 0 -30z m560 -40 l0 -70 -75 0 -75 0 0 70 0 70 75 0 75 0 0 -70z m-1150 -40 l0 -30 -75 0 -75 0 0 30 0 30 75 0 75 0 0 -30z m330 -50 l0 -70 -75 0 -75 0 0 70 0 70 75 0 75 0 0 -70z m260 0 l0 -70 -75 0 -75 0 0 70 0 70 75 0 75 0 0 -70z m360 0 l0 -70 -55 0 -55 0 0 36 c0 27 -5 37 -20 41 -14 4 -20 14 -20 34 l0 29 75 0 75 0 0 -70z m-1340 -90 c0 -73 -17 -98 -22 -32 l-3 37 -62 3 c-62 3 -63 3 -63 32 l0 30 75 0 75 0 0 -70z m390 41 c0 -25 -4 -30 -27 -33 -24 -3 -28 -8 -31 -40 -3 -35 -6 -38 -33 -38 -27 0 -29 3 -29 35 0 22 -6 38 -15 41 -9 4 -15 19 -15 35 l0 29 75 0 75 0 0 -29z m810 -1 l0 -30 -75 0 -75 0 0 30 0 30 75 0 75 0 0 -30z m630 -40 l0 -70 -75 0 -75 0 0 70 0 70 75 0 75 0 0 -70z m-960 -41 c0 -26 -3 -29 -35 -29 -33 0 -35 2 -35 33 0 32 1 33 35 29 31 -4 35 -8 35 -33z m-170 1 l0 -30 -75 0 -75 0 0 30 0 30 75 0 75 0 0 -30z m610 -4 c0 -28 -4 -35 -22 -38 -19 -2 -24 -10 -26 -45 -2 -29 -8 -43 -18 -43 -11 0 -14 17 -14 80 l0 80 40 0 c39 0 40 -1 40 -34z m-1360 -46 l0 -70 -75 0 -75 0 0 70 0 70 75 0 75 0 0 -70z m290 0 l0 -70 -75 0 -75 0 0 70 0 70 75 0 75 0 0 -70z m270 0 l0 -70 -75 0 -75 0 0 70 0 70 75 0 75 0 0 -70z m540 0 l0 -70 -75 0 -75 0 0 70 0 70 75 0 75 0 0 -70z m150 0 l0 -70 -60 0 -60 0 0 70 0 70 60 0 60 0 0 -70z m290 0 c0 -73 -17 -98 -22 -32 l-3 37 -62 3 c-62 3 -63 3 -63 32 l0 30 75 0 75 0 0 -70z m160 35 c0 -22 6 -38 15 -41 9 -4 15 -19 15 -35 l0 -29 -75 0 -75 0 0 70 0 70 60 0 60 0 0 -35z m-1320 -80 c0 -32 -2 -35 -30 -35 -28 0 -30 3 -30 35 0 32 2 35 30 35 28 0 30 -3 30 -35z m300 0 c0 -35 0 -35 -45 -35 -45 0 -45 0 -45 35 0 35 0 35 45 35 45 0 45 0 45 -35z m240 0 c0 -24 -5 -35 -15 -35 -10 0 -15 11 -15 35 0 24 5 35 15 35 10 0 15 -11 15 -35z m-60 -5 l0 -30 -75 0 -75 0 0 30 0 30 75 0 75 0 0 -30z m630 -40 c0 -73 -17 -98 -22 -32 l-3 37 -62 3 c-62 3 -63 3 -63 32 l0 30 75 0 75 0 0 -70z m-1490 -40 l0 -30 -75 0 -75 0 0 30 0 30 75 0 75 0 0 -30z m490 -5 c0 -34 -1 -35 -40 -35 -39 0 -40 1 -40 35 0 34 1 35 40 35 39 0 40 -1 40 -35z m580 0 l0 -35 -60 0 -60 0 0 35 0 35 60 0 60 0 0 -35z m180 5 l0 -30 -75 0 -75 0 0 30 0 30 75 0 75 0 0 -30z m400 -5 l0 -35 -65 0 -65 0 0 35 0 35 65 0 65 0 0 -35z m-1880 -45 l0 -70 -75 0 -75 0 0 70 0 70 75 0 75 0 0 -70z m430 0 c0 -73 -17 -98 -22 -32 l-3 37 -62 3 c-62 3 -63 3 -63 32 l0 30 75 0 75 0 0 -70z m180 41 c0 -16 -6 -31 -15 -35 -9 -3 -15 -19 -15 -41 l0 -35 -60 0 -60 0 0 70 0 70 75 0 75 0 0 -29z m290 -41 l0 -70 -55 0 -55 0 0 36 c0 27 -5 37 -20 41 -14 4 -20 14 -20 34 l0 29 75 0 75 0 0 -70z m70 0 c0 -63 -2 -70 -20 -70 -18 0 -20 7 -20 70 0 63 2 70 20 70 18 0 20 -7 20 -70z m180 0 l0 -70 -75 0 -75 0 0 70 0 70 75 0 75 0 0 -70z m520 41 c0 -20 -6 -30 -20 -34 -15 -4 -20 -14 -20 -41 l0 -36 -55 0 -55 0 0 70 0 70 75 0 75 0 0 -29z m390 -41 l0 -70 -60 0 -60 0 0 35 c0 22 -6 38 -15 41 -9 4 -15 19 -15 35 l0 29 75 0 75 0 0 -70z m-568 -52 l3 -43 68 -3 67 -3 0 -34 0 -35 -85 0 -85 0 0 80 c0 63 3 80 14 80 10 0 16 -14 18 -42z m-1202 -38 l0 -70 -75 0 -75 0 0 70 0 70 75 0 75 0 0 -70z m90 0 l0 -70 -30 0 -30 0 0 70 0 70 30 0 30 0 0 -70z m380 0 l0 -70 -75 0 -75 0 0 70 0 70 75 0 75 0 0 -70z m490 0 l0 -70 -41 0 -42 0 7 53 c3 28 6 60 6 70 0 13 8 17 35 17 l35 0 0 -70z m180 0 l0 -70 -75 0 -75 0 0 70 0 70 75 0 75 0 0 -70z m348 63 c-21 -2 -57 -2 -80 0 -24 2 -7 4 37 4 44 0 63 -2 43 -4z m132 -63 l0 -70 -35 0 -35 0 0 70 0 70 35 0 35 0 0 -70z m-100 -40 l0 -70 -75 0 -75 0 0 70 0 70 75 0 75 0 0 -70z m-1230 -5 l0 -35 -85 0 -85 0 0 35 0 35 85 0 85 0 0 -35z m380 0 c0 -24 -5 -35 -15 -35 -10 0 -15 11 -15 35 0 24 5 35 15 35 10 0 15 -11 15 -35z m1050 0 c0 -33 -2 -35 -35 -35 -33 0 -35 2 -35 35 0 33 2 35 35 35 33 0 35 -2 35 -35z m-1900 -4 c0 -28 -2 -30 -47 -33 -48 -3 -48 -3 -51 -40 -5 -66 -22 -41 -22 32 l0 70 60 0 c60 0 60 0 60 -29z m790 -41 c0 -55 -3 -70 -15 -70 -10 0 -15 16 -17 63 l-3 62 -40 6 c-37 6 -36 6 18 8 l57 1 0 -70z m240 0 l0 -70 -75 0 -75 0 0 70 0 70 75 0 75 0 0 -70z m1050 0 l0 -70 -75 0 -75 0 0 70 0 70 75 0 75 0 0 -70z m-1350 -40 l0 -70 -75 0 -75 0 0 50 0 50 46 0 c37 0 47 4 51 20 3 13 14 20 29 20 23 0 24 -3 24 -70z m-540 -50 l0 -80 -40 0 -40 0 0 80 0 80 40 0 40 0 0 -80z m970 25 l0 -54 -72 -3 -73 -3 0 -95 0 -95 49 -3 c48 -3 48 -3 42 -34 -3 -17 -6 -43 -6 -59 l0 -28 -100 -3 -100 -3 0 37 c0 35 2 37 38 40 l37 3 0 95 0 95 -27 3 c-24 3 -28 8 -28 37 l0 34 68 3 67 3 3 43 3 42 50 0 49 0 0 -55z m-1080 -5 l0 -50 -75 0 -75 0 0 50 0 50 75 0 75 0 0 -50z m250 -20 l0 -70 -55 0 -55 0 0 70 0 70 55 0 55 0 0 -70z m180 0 l0 -70 -75 0 -75 0 0 70 0 70 75 0 75 0 0 -70z m340 34 c0 -27 5 -37 20 -41 14 -4 20 -14 20 -34 l0 -29 -76 0 c-57 0 -74 3 -70 13 3 6 9 20 12 29 3 9 18 18 33 20 22 3 26 8 29 41 4 50 32 52 32 1z m490 -34 l0 -70 -75 0 -75 0 0 70 0 70 75 0 75 0 0 -70z m170 0 l0 -70 -70 0 -70 0 0 70 0 70 70 0 70 0 0 -70z m380 0 l0 -70 -49 0 c-40 0 -50 3 -54 20 -3 12 -14 20 -26 20 -19 0 -21 6 -21 50 l0 50 75 0 75 0 0 -70z m-190 5 l0 -35 -56 0 c-47 0 -57 -3 -61 -20 -3 -11 -12 -20 -19 -20 -10 0 -14 15 -14 55 l0 55 75 0 75 0 0 -35z m-1107 -53 c34 -3 37 -6 37 -33 l0 -29 -77 1 c-50 1 -67 4 -48 8 29 6 30 8 34 71 4 59 5 61 10 25 6 -38 8 -40 44 -43z m1397 -42 l0 -70 -75 0 -75 0 0 29 c0 27 3 30 38 33 35 3 37 5 40 41 3 35 5 37 38 37 l34 0 0 -70z m-1278 18 c2 -17 11 -24 31 -26 49 -6 28 -22 -28 -22 l-55 0 0 35 c0 30 3 35 24 35 18 0 25 -6 28 -22z m-632 -58 l0 -70 -75 0 -75 0 0 70 0 70 75 0 75 0 0 -70z m1080 55 c0 -9 7 -18 15 -21 22 -9 19 -60 -5 -84 -15 -15 -33 -20 -75 -20 l-55 0 0 70 0 70 60 0 c47 0 60 -3 60 -15z m600 -55 l0 -70 -75 0 -75 0 0 70 0 70 75 0 75 0 0 -70z m-1430 -5 c0 -19 -4 -35 -10 -35 -5 0 -10 16 -10 35 0 19 5 35 10 35 6 0 10 -16 10 -35z m123 15 c3 -14 14 -20 31 -20 14 0 26 -4 26 -10 0 -6 -32 -10 -75 -10 l-75 0 0 30 c0 29 2 30 44 30 35 0 45 -4 49 -20z m977 -60 l0 -80 -29 0 c-28 0 -30 3 -33 43 -2 34 -7 43 -25 45 -14 2 -23 11 -25 25 -3 19 -10 22 -50 25 -91 6 -48 22 57 22 l105 0 0 -80z m380 45 c0 -19 -4 -35 -10 -35 -5 0 -10 16 -10 35 0 19 5 35 10 35 6 0 10 -16 10 -35z m-1530 -45 l0 -70 -75 0 -75 0 0 70 0 70 75 0 75 0 0 -70z m670 0 l0 -70 -75 0 -75 0 0 70 0 70 75 0 75 0 0 -70z m630 15 c0 -40 4 -57 15 -61 35 -14 10 -24 -60 -24 l-75 0 0 70 0 70 60 0 60 0 0 -55z m-1010 -10 l0 -34 -97 -3 -98 -3 -3 -67 c-4 -95 -22 -85 -22 12 l0 79 93 3 c87 3 92 4 95 26 6 37 32 27 32 -13z m180 -45 l0 -70 -75 0 -75 0 0 70 0 70 75 0 75 0 0 -70z m540 60 c0 -5 -16 -10 -35 -10 -19 0 -35 5 -35 10 0 6 16 10 35 10 19 0 35 -4 35 -10z m-1390 -110 l0 -70 -75 0 -75 0 0 70 0 70 75 0 75 0 0 -70z m420 0 l0 -70 -75 0 -75 0 0 30 c0 29 0 29 68 32 l67 3 3 38 c5 61 12 42 12 -33z m1020 0 l0 -70 -75 0 -75 0 0 70 0 70 75 0 75 0 0 -70z m550 0 l0 -70 -75 0 -75 0 0 55 c0 49 2 55 20 55 11 0 23 7 26 15 4 11 21 15 55 15 l49 0 0 -70z m210 0 l0 -70 -75 0 -75 0 0 70 0 70 75 0 75 0 0 -70z m-2020 -15 l0 -55 -75 0 -75 0 0 55 0 55 75 0 75 0 0 -55z m1080 40 c0 -8 -4 -15 -10 -15 -5 0 -10 7 -10 15 0 8 5 15 10 15 6 0 10 -7 10 -15z m-610 -65 l0 -70 -54 0 c-39 0 -55 4 -60 15 -3 8 -12 15 -21 15 -12 0 -15 12 -15 55 l0 55 75 0 75 0 0 -70z m1150 0 l0 -70 -35 0 -35 0 0 48 c0 75 8 92 41 92 l29 0 0 -70z m-1560 -5 c0 -24 -5 -35 -15 -35 -10 0 -15 11 -15 35 0 24 5 35 15 35 10 0 15 -11 15 -35z m730 -45 l0 -70 -75 0 -75 0 0 55 c0 52 1 55 25 55 14 0 28 7 31 15 4 10 20 15 50 15 l44 0 0 -70z m292 33 l3 -38 58 -3 c56 -3 57 -4 57 -32 l0 -30 -75 0 -75 0 0 70 c0 54 3 70 14 70 10 0 16 -13 18 -37z m258 -33 l0 -70 -31 0 -32 0 7 53 c3 28 6 60 6 70 0 11 8 17 25 17 24 0 25 -2 25 -70z m180 0 l0 -70 -75 0 -75 0 0 70 0 70 75 0 75 0 0 -70z m-910 25 c0 -12 -13 -15 -55 -15 -42 0 -55 3 -55 15 0 12 13 15 55 15 42 0 55 -3 55 -15z m-460 -70 c0 -19 -4 -35 -10 -35 -5 0 -10 16 -10 35 0 19 5 35 10 35 6 0 10 -16 10 -35z m1100 -45 l0 -80 -39 0 c-33 0 -40 4 -43 23 -3 20 -9 22 -70 25 -102 4 -82 21 30 24 l97 3 3 43 c5 74 22 45 22 -38z m-1150 0 l0 -70 -75 0 -75 0 0 70 0 70 75 0 75 0 0 -70z m230 0 l0 -70 -75 0 -75 0 0 70 0 70 75 0 75 0 0 -70z m284 18 c11 -94 15 -88 -69 -88 l-75 0 0 50 c0 68 19 88 86 89 l51 1 7 -52z m386 -18 l0 -70 -75 0 -75 0 0 70 0 70 75 0 75 0 0 -70z m-560 5 c0 -34 -1 -35 -40 -35 -39 0 -40 1 -40 35 0 34 1 35 40 35 39 0 40 -1 40 -35z m-530 -45 l0 -70 -75 0 -75 0 0 70 0 70 75 0 75 0 0 -70z m1710 0 l0 -70 -34 0 c-21 0 -36 6 -40 15 -3 9 -19 15 -41 15 -33 0 -35 2 -35 35 0 34 2 35 36 35 27 0 37 5 41 20 4 15 14 20 39 20 l34 0 0 -70z m190 41 c0 -16 -6 -31 -15 -35 -9 -3 -15 -19 -15 -41 l0 -35 -60 0 -60 0 0 70 0 70 75 0 75 0 0 -29z m-990 -16 c0 -12 -16 -15 -85 -15 -109 0 -111 18 -2 23 45 1 83 4 85 5 1 1 2 -5 2 -13z m610 -45 l0 -50 -75 0 -75 0 0 50 0 50 75 0 75 0 0 -50z m-1698 -17 l3 -58 43 -3 c71 -5 47 -22 -33 -22 l-75 0 0 70 0 70 30 0 c28 0 29 -1 32 -57z m420 20 c3 -37 4 -38 46 -41 40 -3 42 -5 41 -35 0 -29 -1 -30 -9 -9 -8 20 -16 22 -75 22 -63 0 -86 12 -45 23 15 4 20 14 20 41 0 48 18 46 22 -1z m291 -23 c4 -15 14 -20 36 -20 41 0 40 -18 -1 -22 -30 -3 -33 -6 -36 -40 -3 -37 -4 -38 -43 -38 l-39 0 0 70 0 70 39 0 c30 0 40 -4 44 -20z m367 -30 c0 -69 -22 -90 -95 -90 l-55 0 0 70 0 70 75 0 75 0 0 -50z m330 20 c0 -29 -1 -29 -62 -32 l-63 -3 -3 -37 c-5 -55 -22 -46 -22 11 0 40 3 50 20 54 11 3 20 12 20 21 0 13 11 16 55 16 54 0 55 0 55 -30z m820 -40 l0 -70 -75 0 -75 0 0 70 0 70 75 0 75 0 0 -70z m-1900 20 c0 -6 -27 -10 -60 -10 -33 0 -60 4 -60 10 0 6 27 10 60 10 33 0 60 -4 60 -10z m270 -45 l0 -55 -50 0 c-50 0 -67 13 -30 23 16 4 20 14 20 46 0 39 2 41 30 41 30 0 30 -1 30 -55z m300 45 c0 -5 -20 -10 -45 -10 -25 0 -45 5 -45 10 0 6 20 10 45 10 25 0 45 -4 45 -10z m330 -25 l0 -35 -60 0 -60 0 0 35 0 35 60 0 60 0 0 -35z m294 10 c3 -9 19 -15 41 -15 l35 0 0 -55 0 -55 -55 0 -55 0 0 60 c0 54 -3 62 -22 70 -20 8 -18 9 13 9 24 1 39 -4 43 -14z m266 -55 l0 -70 -75 0 -75 0 0 55 0 55 40 0 c27 0 43 5 46 15 4 9 19 15 35 15 l29 0 0 -70z m210 -15 l0 -55 -60 0 c-47 0 -60 3 -60 15 0 9 -7 18 -15 21 -9 4 -15 19 -15 40 l0 34 75 0 75 0 0 -55z m-1720 -25 l0 -70 -75 0 -75 0 0 70 0 70 75 0 75 0 0 -70z m190 0 l0 -70 -75 0 -75 0 0 70 0 70 75 0 75 0 0 -70z m420 0 l0 -70 -55 0 -55 0 0 36 c0 27 -5 37 -20 41 -14 4 -20 14 -20 34 l0 29 75 0 75 0 0 -70z m570 0 l0 -70 -75 0 -75 0 0 70 0 70 75 0 75 0 0 -70z m-230 -50 l0 -70 -75 0 -75 0 0 70 0 70 75 0 75 0 0 -70z m-210 -15 l0 -55 -75 0 c-41 0 -75 4 -75 9 0 5 10 11 23 13 18 2 23 10 25 46 l3 42 50 0 49 0 0 -55z m260 40 c0 -8 -4 -15 -10 -15 -5 0 -10 7 -10 15 0 8 5 15 10 15 6 0 10 -7 10 -15z m-710 -65 l0 -70 -60 0 c-60 0 -60 0 -60 29 0 23 5 30 23 33 18 2 23 10 25 41 3 35 5 37 38 37 l34 0 0 -70z m180 0 l0 -70 -75 0 -75 0 0 70 0 70 75 0 75 0 0 -70z m1100 0 l0 -70 -75 0 -75 0 0 50 0 50 56 0 c47 0 57 3 61 20 3 11 12 20 19 20 11 0 14 -17 14 -70z m-180 -5 c0 -24 -5 -35 -15 -35 -10 0 -15 11 -15 35 0 24 5 35 15 35 10 0 15 -11 15 -35z m-386 10 c3 -10 19 -15 46 -15 l40 0 0 -55 0 -55 -75 0 -75 0 0 29 c0 20 6 30 20 34 15 4 20 14 20 41 0 37 13 48 24 21z m326 -55 l0 -70 -75 0 -75 0 0 50 c0 70 19 88 93 89 l57 1 0 -70z m390 0 l0 -70 -75 0 c-70 0 -95 10 -60 24 11 4 15 21 15 61 l0 55 60 0 60 0 0 -70z m-1580 -1 c0 -32 4 -42 20 -46 15 -4 20 -14 20 -39 l0 -34 -55 0 -55 0 0 80 0 80 35 0 c34 0 35 -1 35 -41z m420 26 c0 -10 -10 -15 -30 -15 -20 0 -30 5 -30 15 0 10 10 15 30 15 20 0 30 -5 30 -15z m592 -52 c3 -62 5 -68 26 -71 46 -7 20 -22 -38 -22 -58 0 -80 12 -40 23 17 4 20 14 20 71 0 51 3 66 15 66 11 0 15 -16 17 -67z m-1112 -13 l0 -70 -75 0 -75 0 0 70 0 70 75 0 75 0 0 -70z m870 21 c0 -5 -9 -11 -20 -14 -16 -4 -20 -14 -20 -46 0 -34 -3 -41 -20 -41 -18 0 -20 7 -20 55 l0 55 40 0 c22 0 40 -4 40 -9z m-300 -71 l0 -70 -75 0 -75 0 0 55 c0 43 3 55 15 55 9 0 18 7 21 15 5 11 21 15 60 15 l54 0 0 -70z m190 0 l0 -70 -75 0 -75 0 0 70 0 70 75 0 75 0 0 -70z m580 0 l0 -70 -75 0 -75 0 0 30 c0 29 1 29 63 32 l62 3 3 38 c5 65 22 40 22 -33z m-1020 -15 l0 -55 -75 0 -75 0 0 55 0 55 75 0 75 0 0 -55z m70 20 c0 -28 -4 -35 -20 -35 -16 0 -20 7 -20 35 0 28 4 35 20 35 16 0 20 -7 20 -35z m555 -15 l65 0 0 -50 0 -50 -75 0 -75 0 1 73 c0 53 3 66 9 50 8 -21 16 -23 75 -23z m625 -80 l0 -70 -75 0 -75 0 0 70 0 70 75 0 75 0 0 -70z m-1427 10 c3 -11 12 -20 21 -20 13 0 16 -11 16 -50 l0 -50 -75 0 -75 0 0 70 0 70 54 0 c45 0 54 -3 59 -20z m247 5 c0 -9 7 -18 15 -21 11 -4 15 -21 15 -55 l0 -49 -75 0 -75 0 0 50 0 50 36 0 c27 0 37 5 41 20 6 23 43 27 43 5z m440 -55 l0 -70 -50 0 -50 0 0 50 c0 47 1 50 26 50 17 0 28 6 31 20 3 11 14 20 24 20 17 0 19 -8 19 -70z m320 0 l0 -70 -75 0 -75 0 0 29 c0 20 6 30 20 34 15 4 20 14 20 41 l0 36 55 0 55 0 0 -70z m-450 -50 l0 -70 -75 0 -75 0 0 70 0 70 75 0 75 0 0 -70z"/>
 </g>
<g id="layer2" fill="#e60535" stroke="none">
 <path d="M935 2570 c-3 -5 -5 -67 -5 -137 1 -71 1 -147 1 -170 l-1 -42 -72 -3 -73 -3 0 -85 0 -85 -45 -5 c-45 -5 -45 -5 -48 -47 -4 -62 -17 -53 -15 9 1 29 2 70 2 90 1 30 5 37 24 40 21 3 22 7 22 88 l0 85 -90 0 -90 0 -3 -42 c-3 -34 -7 -42 -25 -45 -21 -3 -22 -7 -22 -133 l0 -130 30 -3 c29 -3 30 -4 27 -47 l-4 -45 -52 0 -51 0 0 87 0 88 -90 0 -90 0 0 -85 0 -85 70 -5 70 -5 0 -85 c0 -80 1 -85 22 -88 26 -4 29 -21 25 -114 l-4 -67 -86 -3 -87 -3 0 -85 0 -85 90 -2 c50 -1 113 -2 141 -2 48 -1 51 -3 47 -23 -4 -22 -9 -23 -96 -23 -87 0 -92 -1 -95 -22 -3 -18 -11 -22 -45 -25 l-42 -3 0 -85 0 -85 90 0 90 0 5 -65 c4 -53 8 -65 25 -70 18 -4 20 -13 20 -90 l0 -85 90 0 90 0 0 88 0 87 48 0 47 0 0 -41 c0 -32 4 -42 20 -46 16 -4 20 -14 20 -49 l0 -43 -67 -3 -68 -3 0 -85 0 -85 90 0 90 0 3 62 c3 59 4 63 27 63 23 0 24 -4 27 -63 l3 -62 90 0 90 0 3 62 3 63 47 0 47 0 0 -87 0 -88 90 0 c85 0 90 1 93 22 3 20 10 22 65 25 l62 3 3 43 3 42 64 0 64 0 3 -42 3 -43 90 0 90 0 5 65 5 65 90 0 90 0 3 70 3 70 73 -3 c69 -3 74 -5 79 -27 4 -23 1 -24 -52 -27 l-56 -3 0 -85 0 -85 90 0 90 0 0 85 0 85 55 5 55 5 2 90 c1 50 2 120 2 158 1 59 3 67 20 67 16 0 20 -8 23 -42 l3 -43 90 0 90 0 0 85 0 85 -72 3 -72 3 -3 42 -3 42 -98 0 c-77 0 -96 3 -92 13 3 8 5 19 5 25 0 8 29 12 92 12 l93 0 0 88 c0 71 3 87 15 87 12 0 15 -16 15 -87 l0 -88 90 0 90 0 0 85 0 85 -55 5 -55 5 0 85 0 85 45 5 45 5 0 85 0 85 -65 5 -65 5 0 85 0 85 -50 3 -50 3 3 44 4 44 71 3 72 3 0 85 0 85 -90 0 -90 0 -3 -42 -3 -41 -76 -4 c-41 -2 -110 -1 -152 2 l-76 5 0 85 0 85 -50 5 -50 5 0 85 0 85 -90 0 -90 0 0 -85 0 -85 50 -3 50 -3 -3 -44 -4 -44 -66 -3 -67 -3 -3 -42 c-2 -33 -7 -43 -20 -43 -15 0 -17 15 -17 132 l0 133 -90 0 -90 0 -2 -84 c-2 -63 -6 -86 -19 -95 -13 -10 -15 -28 -12 -94 l3 -82 -35 0 c-35 0 -36 1 -32 38 2 20 8 46 13 57 6 11 9 54 7 95 -3 73 -4 75 -30 78 -24 3 -27 8 -30 45 l-3 42 -90 0 -90 0 0 -85 c0 -77 2 -85 20 -88 17 -2 20 -9 17 -50 l-4 -47 -59 3 -59 4 -1 41 c0 23 -1 103 -2 177 l-2 135 -87 3 c-51 2 -89 -1 -93 -8z m1097 -394 c-3 -37 -8 -45 -25 -48 -18 -2 -23 -11 -25 -45 -3 -35 -7 -43 -23 -43 -30 0 -31 1 -32 93 l-2 87 55 0 55 0 -3 -44z m-680 -94 l-4 -47 -56 3 -57 4 3 46 4 47 56 -3 57 -4 -3 -46z m-300 6 l3 -43 55 -3 55 -3 -3 -44 -4 -45 -48 0 -49 0 -3 43 -3 42 -45 3 -45 3 3 44 c4 45 4 45 42 45 38 0 39 0 42 -42z m540 0 l3 -43 72 -3 71 -3 4 -44 c3 -41 1 -44 -22 -47 -14 -2 -46 -1 -72 0 l-47 4 -3 41 c-3 37 -6 42 -30 45 -23 3 -26 8 -30 48 -3 42 -2 44 24 44 24 0 27 -4 30 -42z m691 -48 l42 0 -3 -44 c-4 -42 -6 -45 -35 -48 -18 -2 -52 -2 -77 0 l-45 4 3 43 c3 36 8 45 25 48 12 2 28 3 35 1 8 -2 32 -4 55 -4z m-280 -178 l67 -3 0 -47 0 -47 -92 2 c-51 1 -95 2 -98 3 -3 0 -5 39 -5 87 0 86 1 88 25 93 23 5 25 2 30 -40 l5 -45 68 -3z m-981 -47 l3 -44 -70 -3 c-38 -2 -84 -2 -100 0 -29 3 -30 4 -27 47 4 51 7 52 119 47 l71 -4 4 -43z m388 41 c-6 -6 -10 -27 -10 -48 0 -34 -3 -38 -25 -38 -22 0 -25 4 -25 34 0 19 -2 40 -5 48 -4 9 6 13 34 13 25 0 37 -3 31 -9z m1042 -43 l-4 -48 -46 3 -47 4 3 44 4 44 47 0 46 0 -3 -47z m-1709 -132 l2 -90 -45 -3 -45 -3 -3 -83 c-3 -76 -1 -84 17 -89 14 -4 20 -15 23 -49 3 -43 2 -44 -27 -44 l-30 0 0 222 0 223 50 5 c28 3 51 4 53 3 2 -1 4 -42 5 -92z m969 24 l-4 -64 -71 -3 -72 -3 0 -85 0 -85 46 -3 47 -3 -2 -112 -1 -112 90 0 90 0 3 43 c3 33 7 42 22 42 15 0 19 -9 22 -42 2 -24 1 -64 0 -90 l-4 -46 -48 -4 c-46 -3 -49 -1 -52 22 -3 24 -7 25 -70 28 l-67 3 -3 62 -3 62 -90 0 -90 0 -5 -65 -5 -65 -93 0 c-88 0 -92 1 -92 22 0 21 5 22 83 25 l82 3 0 85 0 85 40 5 40 5 0 85 0 85 -30 3 c-29 3 -30 4 -27 47 l4 44 66 3 67 3 3 42 3 42 52 3 c29 2 57 2 62 0 6 -1 9 -29 7 -67z m-612 45 c0 -11 -6 -20 -14 -20 -7 0 -16 9 -19 20 -4 15 0 20 14 20 12 0 19 -7 19 -20z m162 -132 c2 -17 11 -24 33 -28 l30 -5 0 -88 c0 -102 -13 -117 -17 -19 l-3 67 -60 3 -60 3 3 44 c4 44 5 45 37 45 27 0 34 -4 37 -22z m-377 -65 l0 -48 90 0 c86 0 90 1 93 23 3 16 10 22 30 22 l27 0 0 -87 0 -88 58 -3 c53 -3 57 -5 57 -27 0 -24 -3 -25 -65 -25 l-64 0 -3 68 -3 67 -90 0 -90 0 -3 -67 c-3 -63 -5 -68 -25 -68 -21 0 -22 3 -19 86 3 78 2 86 -16 91 -15 4 -21 15 -24 48 -3 41 -1 44 22 48 14 2 25 5 25 6 0 0 0 -20 0 -46z m1098 -51 c-1 -48 -4 -88 -7 -89 -3 -2 -21 -3 -40 -3 -34 0 -35 1 -38 43 -2 34 -7 43 -25 45 -14 2 -23 11 -25 25 -3 19 -10 22 -50 25 -39 3 -48 7 -48 22 0 17 9 19 73 22 39 2 92 2 117 0 l45 -4 -2 -86z m379 43 c3 -41 1 -45 -19 -45 -21 0 -23 5 -23 45 0 38 3 45 19 45 15 0 20 -9 23 -45z m-1580 -270 c-3 -35 -8 -45 -22 -45 -14 0 -19 10 -22 45 -3 42 -2 45 22 45 24 0 25 -3 22 -45z m288 -40 l0 -45 -50 0 -50 0 0 45 0 45 50 0 50 0 0 -45z m-380 -115 c0 -22 -19 -27 -91 -22 -51 3 -56 6 -52 25 4 20 9 22 74 19 59 -3 69 -6 69 -22z m570 3 c0 -28 -1 -28 -55 -25 -46 3 -55 7 -55 22 0 16 9 20 53 23 28 2 53 4 55 5 1 1 2 -10 2 -25z m330 -29 l0 -44 -70 0 -70 0 0 48 0 47 70 -3 70 -4 0 -44z m-628 -19 c3 -73 4 -72 -73 -67 -39 3 -49 8 -49 22 0 10 9 20 20 23 16 4 20 14 20 46 l0 41 39 0 39 0 4 -65z m1218 -20 c0 -25 -4 -45 -10 -45 -5 0 -10 20 -10 45 0 25 5 45 10 45 6 0 10 -20 10 -45z m-768 -115 c2 -57 0 -70 -12 -70 -12 0 -14 13 -12 70 2 38 7 70 12 70 5 0 10 -32 12 -70z m228 45 c0 -18 -5 -25 -20 -25 -15 0 -20 7 -20 25 0 18 5 25 20 25 15 0 20 -7 20 -25z m371 -25 c16 0 19 -7 19 -49 0 -46 -1 -48 -25 -43 -21 4 -25 10 -25 41 0 20 -6 43 -12 50 -11 11 -10 13 5 7 10 -3 27 -6 38 -6z m-809 -65 c5 -24 3 -25 -38 -25 -40 0 -44 2 -44 25 0 22 4 25 39 25 33 0 39 -3 43 -25z m590 -42 c3 -62 5 -68 26 -71 15 -2 22 -10 22 -25 0 -21 -4 -22 -70 -19 -60 3 -70 6 -70 22 0 10 9 20 20 23 17 4 20 14 20 71 0 63 1 66 25 66 23 0 24 -3 27 -67z m-242 -2 c0 -10 -9 -21 -20 -24 -16 -4 -20 -14 -20 -46 0 -39 -2 -41 -29 -41 -29 0 -29 1 -33 65 l-3 65 53 0 c44 0 52 -3 52 -19z m-480 -66 c0 -43 -1 -45 -30 -45 -29 0 -30 2 -30 45 0 43 1 45 30 45 29 0 30 -2 30 -45z"/>
 <path d="M2084 2477 c-3 -8 -4 -47 -2 -88 l3 -74 90 0 90 0 0 85 0 85 -88 3 c-67 2 -89 0 -93 -11z"/>
 </g>
<g id="layer3" fill="#ffdebe" stroke="none">
 <path d="M0 1500 l0 -1500 1500 0 1500 0 0 1500 0 1500 -1500 0 -1500 0 0 -1500z m1112 893 l3 -178 65 0 65 0 3 48 c3 42 0 49 -17 54 -19 5 -21 13 -21 84 l0 79 84 0 85 0 3 -42 c3 -39 6 -43 31 -46 27 -3 27 -4 27 -81 0 -42 -5 -82 -11 -88 -5 -5 -9 -30 -7 -54 3 -43 4 -44 38 -44 l35 0 3 85 c2 61 7 87 17 93 11 6 15 29 15 92 l0 85 85 0 84 0 3 -132 c3 -125 4 -133 23 -133 16 0 21 8 23 42 l3 42 67 3 67 3 0 50 0 50 -47 3 -48 3 0 80 0 79 85 0 84 0 3 -87 3 -88 47 -3 47 -3 3 -87 3 -87 155 0 155 0 3 43 3 42 85 0 84 0 0 -80 0 -79 -72 -3 -73 -3 0 -50 0 -50 47 -3 47 -3 3 -87 3 -87 63 -3 62 -3 0 -79 0 -79 -42 -3 -43 -3 0 -95 0 -95 53 -3 52 -3 0 -80 0 -79 -85 0 -84 0 -3 88 c-2 69 -6 87 -18 87 -12 0 -16 -18 -18 -87 l-3 -87 -92 -3 c-91 -3 -92 -3 -92 -28 0 -25 1 -25 92 -28 l92 -3 3 -42 3 -42 73 -3 72 -3 0 -79 0 -80 -84 0 -85 0 -3 43 c-3 37 -6 42 -28 42 l-25 0 -3 -157 -3 -157 -52 -3 -52 -3 -3 -87 -3 -88 -84 0 -85 0 0 79 0 80 53 3 c50 3 52 4 52 33 l0 30 -80 0 -80 0 -3 -67 -3 -67 -92 -3 -92 -3 -3 -63 -3 -62 -84 0 -84 0 -3 43 -3 42 -70 0 -70 0 -3 -42 -3 -42 -62 -3 c-56 -3 -62 -5 -65 -26 -3 -21 -8 -22 -87 -22 l-84 0 -3 88 -3 87 -50 0 -50 0 -3 -63 -3 -62 -84 0 -84 0 -3 63 c-3 62 -3 62 -33 62 -30 0 -30 0 -33 -63 l-3 -62 -84 0 -85 0 0 80 0 79 68 3 67 3 3 48 c3 42 0 49 -17 54 -15 4 -21 15 -23 47 l-3 41 -50 0 -50 0 -3 -87 -3 -88 -84 0 -85 0 0 86 c0 77 -2 86 -20 91 -16 4 -20 15 -22 67 l-3 61 -92 3 -93 3 0 79 0 79 43 3 c35 2 43 7 45 25 3 21 9 22 95 25 91 3 92 3 92 28 l0 25 -137 3 -138 3 0 79 0 79 88 3 87 3 0 95 c0 90 -1 95 -22 98 -21 3 -22 9 -25 90 l-3 87 -67 3 -68 3 0 79 0 80 85 0 84 0 3 -87 3 -88 55 0 55 0 0 50 c0 47 -2 50 -27 53 l-28 3 0 124 c0 121 1 124 23 127 18 2 23 10 25 46 l3 42 85 0 84 0 0 -79 c0 -75 -1 -80 -22 -83 -22 -3 -23 -8 -26 -95 -2 -78 0 -93 13 -93 11 0 15 11 15 39 0 40 0 40 43 43 l42 3 3 87 3 87 72 3 72 3 3 178 2 177 85 0 85 0 2 -177z m1148 7 l0 -80 -85 0 -85 0 0 80 0 80 85 0 85 0 0 -80z"/>
 <path d="M1924 2217 c-2 -7 -4 -52 -2 -98 l3 -84 30 0 c28 0 30 3 33 42 3 34 7 42 25 45 19 3 22 9 22 53 l0 50 -53 3 c-37 2 -54 -1 -58 -11z"/>
 <path d="M964 2127 c-3 -8 -4 -32 -2 -53 3 -38 4 -39 45 -42 42 -3 42 -3 45 -45 l3 -42 55 0 55 0 0 50 0 50 -52 3 -52 3 -3 42 c-3 42 -3 42 -46 45 -30 2 -44 -1 -48 -11z"/>
 <path d="M1234 2127 c-3 -8 -4 -32 -2 -53 l3 -39 60 0 60 0 0 50 0 50 -58 3 c-43 2 -59 -1 -63 -11z"/>
 <path d="M1534 2127 c-3 -8 -4 -32 -2 -53 3 -34 7 -39 30 -42 24 -3 27 -8 30 -45 l3 -42 75 0 75 0 0 50 0 50 -72 3 -72 3 -3 42 c-3 38 -6 42 -31 45 -17 2 -29 -2 -33 -11z"/>
 <path d="M2164 2036 c-3 -7 -4 -31 -2 -52 l3 -39 80 0 80 0 0 50 0 50 -78 3 c-60 2 -79 0 -83 -12z"/>
 <path d="M1875 1947 c-3 -7 -5 -52 -3 -98 l3 -84 100 0 100 0 0 50 0 50 -67 3 -67 3 -3 42 c-3 38 -6 42 -31 45 -16 2 -29 -2 -32 -11z"/>
 <path d="M824 1856 c-3 -7 -4 -31 -2 -52 l3 -39 100 0 100 0 0 50 0 50 -98 3 c-77 2 -98 0 -103 -12z"/>
 <path d="M1344 1857 c-3 -8 -4 -32 -2 -53 3 -36 5 -39 33 -39 29 0 30 1 30 50 0 47 -2 50 -28 53 -17 2 -29 -2 -33 -11z"/>
 <path d="M2354 1857 c-3 -8 -4 -32 -2 -53 l3 -39 50 0 50 0 0 50 0 50 -48 3 c-34 2 -49 -1 -53 -11z"/>
 <path d="M635 1768 c-3 -8 -4 -112 -3 -233 l3 -220 30 0 c29 0 30 2 33 48 3 42 0 49 -17 54 -19 5 -21 13 -21 84 l0 78 43 3 42 3 0 95 0 95 -53 3 c-36 2 -54 -1 -57 -10z"/>
 <path d="M1064 1766 c-9 -24 4 -48 23 -44 12 2 18 12 18 28 0 29 -32 41 -41 16z"/>
 <path d="M1587 1774 c-4 -4 -7 -24 -7 -45 l0 -38 -67 -3 -68 -3 0 -50 c0 -47 2 -50 28 -53 27 -3 27 -4 27 -82 l0 -79 -37 -3 -38 -3 -3 -87 -3 -87 -82 -3 c-80 -3 -82 -4 -82 -28 l0 -25 100 0 100 0 3 63 3 62 84 0 84 0 3 -62 3 -63 67 -3 c60 -3 67 -5 70 -25 3 -20 9 -22 58 -22 l55 0 0 95 c0 95 0 95 -25 95 -22 0 -25 -5 -28 -42 l-3 -43 -86 0 -85 0 3 113 4 112 -47 3 -48 3 0 79 0 79 73 3 72 3 0 70 0 70 -60 3 c-34 2 -64 0 -68 -4z"/>
 <path d="M1184 1637 c-3 -8 -4 -32 -2 -53 l3 -39 58 -3 57 -3 0 -64 c0 -52 3 -65 15 -65 13 0 15 15 13 93 -3 92 -3 92 -30 95 -19 2 -28 10 -30 25 -2 18 -11 23 -41 25 -25 2 -39 -1 -43 -11z"/>
 <path d="M837 1594 c-4 -4 -7 -27 -7 -52 0 -35 4 -45 20 -49 17 -5 20 -15 22 -92 3 -84 3 -86 28 -86 24 0 25 3 28 68 l3 67 84 0 84 0 3 -67 3 -68 70 0 70 0 0 30 c0 29 -1 30 -57 33 l-57 3 -3 87 -3 87 -30 0 c-23 0 -31 -5 -33 -22 -3 -22 -8 -23 -87 -23 l-84 0 -3 43 c-2 33 -7 43 -23 45 -12 2 -24 0 -28 -4z"/>
 <path d="M1744 1585 c-12 -31 4 -45 50 -45 39 0 45 -3 48 -22 2 -15 11 -24 25 -26 18 -3 22 -11 25 -45 l3 -42 45 0 45 0 0 95 0 95 -118 3 c-98 2 -118 0 -123 -13z"/>
 <path d="M2314 1587 c-3 -8 -4 -32 -2 -53 3 -34 6 -39 28 -39 23 0 25 3 25 50 0 44 -3 50 -23 53 -13 2 -24 -3 -28 -11z"/>
 <path d="M734 1317 c-3 -8 -4 -32 -2 -53 3 -34 6 -39 28 -39 23 0 25 3 25 50 0 44 -3 50 -23 53 -13 2 -24 -3 -28 -11z"/>
 <path d="M964 1277 c-3 -8 -4 -32 -2 -53 l3 -39 55 0 55 0 0 50 0 50 -53 3 c-38 2 -54 -1 -58 -11z"/>
 <path d="M544 1135 c-14 -37 3 -46 78 -43 70 3 73 4 73 28 0 24 -3 25 -73 28 -58 2 -73 0 -78 -13z"/>
 <path d="M877 1144 c-4 -4 -7 -24 -7 -45 0 -29 -4 -38 -21 -42 -15 -4 -20 -12 -17 -29 3 -21 8 -23 68 -23 l65 0 0 70 0 70 -40 3 c-23 2 -44 0 -48 -4z"/>
 <path d="M1144 1136 c-14 -36 3 -47 63 -44 54 3 58 5 58 28 0 23 -4 25 -58 28 -44 2 -59 0 -63 -12z"/>
 <path d="M1444 1136 c-3 -7 -4 -31 -2 -52 l3 -39 75 0 75 0 0 50 0 50 -73 3 c-56 2 -74 0 -78 -12z"/>
 <path d="M2154 1097 c-11 -29 0 -92 16 -92 11 0 15 12 15 49 0 49 -19 74 -31 43z"/>
 <path d="M1384 1007 c-3 -8 -4 -43 -2 -78 2 -49 7 -64 18 -64 12 0 15 15 15 74 0 51 -4 76 -12 78 -7 3 -15 -2 -19 -10z"/>
 <path d="M1594 1006 c-11 -29 0 -51 26 -51 21 0 25 5 25 30 0 24 -5 31 -23 33 -13 2 -24 -3 -28 -12z"/>
 <path d="M1974 957 c-3 -8 -4 -32 -2 -53 3 -36 5 -39 33 -39 29 0 30 1 30 50 0 47 -2 50 -28 53 -17 2 -29 -2 -33 -11z"/>
 <path d="M1114 916 c-14 -36 0 -51 46 -51 43 0 45 1 45 30 0 28 -3 30 -43 33 -30 2 -44 -1 -48 -12z"/>
 <path d="M1737 924 c-4 -4 -7 -35 -7 -70 0 -54 -3 -62 -21 -67 -15 -4 -20 -12 -17 -29 3 -22 7 -23 78 -23 73 0 75 1 75 25 0 18 -6 26 -22 28 -20 3 -22 10 -25 70 -3 63 -4 67 -28 70 -14 2 -29 0 -33 -4z"/>
 <path d="M1444 867 c-3 -8 -4 -41 -2 -73 l3 -59 35 0 c34 0 35 1 38 41 2 32 8 43 23 47 15 4 20 12 17 29 -3 20 -9 23 -56 26 -38 2 -54 -1 -58 -11z"/>
 <path d="M1004 827 c-3 -8 -4 -32 -2 -53 3 -37 5 -39 38 -39 l35 0 0 50 c0 49 -1 50 -33 53 -21 2 -34 -2 -38 -11z"/>
 </g>

</svg>