<!DOCTYPE svg PUBLIC "-//W3C//DTD SVG 20010904//EN" "http://www.w3.org/TR/2001/REC-SVG-20010904/DTD/svg10.dtd">
<svg version="1.0" xmlns="http://www.w3.org/2000/svg" width="300px" height="300px" viewBox="0 0 3000 3000" preserveAspectRatio="xMidYMid meet">
<g id="layer1" fill="#d43127" stroke="none">
 <path d="M1655 1605 c-14 -13 -25 -33 -25 -45 0 -11 11 -32 25 -45 13 -14 34 -25 45 -25 12 0 32 11 45 25 14 13 25 34 25 45 0 12 -11 32 -25 45 -13 14 -33 25 -45 25 -11 0 -32 -11 -45 -25z"/>
 <path d="M1455 1545 c-14 -13 -25 -33 -25 -45 0 -11 11 -32 25 -45 13 -14 34 -25 45 -25 12 0 32 11 45 25 14 13 25 34 25 45 0 12 -11 32 -25 45 -13 14 -33 25 -45 25 -11 0 -32 -11 -45 -25z"/>
 <path d="M1305 1535 c-14 -13 -25 -33 -25 -45 0 -11 11 -32 25 -45 13 -14 34 -25 45 -25 12 0 32 11 45 25 14 13 25 34 25 45 0 12 -11 32 -25 45 -13 14 -33 25 -45 25 -11 0 -32 -11 -45 -25z"/>
 <path d="M1445 1385 c-14 -13 -25 -33 -25 -45 0 -11 11 -32 25 -45 l24 -25 -24 -25 c-14 -13 -25 -33 -25 -45 0 -27 43 -70 70 -70 12 0 32 11 45 25 14 13 25 34 25 45 0 12 -11 32 -25 45 l-24 25 24 25 c14 13 25 34 25 45 0 12 -11 32 -25 45 -13 14 -33 25 -45 25 -11 0 -32 -11 -45 -25z"/>
 <path d="M1655 1385 c-14 -13 -25 -33 -25 -45 0 -11 11 -32 25 -45 13 -14 34 -25 45 -25 12 0 32 11 45 25 14 13 25 34 25 45 0 12 -11 32 -25 45 -13 14 -33 25 -45 25 -11 0 -32 -11 -45 -25z"/>
 <path d="M1232 1337 c-28 -30 -28 -68 1 -95 30 -28 68 -28 95 1 28 30 28 68 -1 95 -30 28 -68 28 -95 -1z"/>
 </g>
<g id="layer2" fill="#faae5c" stroke="none">
 <path d="M1325 2708 c-104 -161 -190 -295 -191 -297 -2 -2 -157 36 -344 84 -187 48 -343 86 -345 83 -3 -3 28 -160 69 -349 41 -189 74 -344 73 -345 -1 -1 -132 -78 -292 -172 -247 -144 -290 -173 -290 -193 0 -19 45 -52 270 -197 149 -95 276 -177 284 -182 12 -6 0 -66 -74 -349 -48 -188 -86 -344 -83 -346 3 -3 160 28 349 69 189 41 344 74 345 73 1 -1 78 -132 172 -292 144 -247 173 -290 193 -290 19 0 52 45 197 270 95 149 177 276 182 284 6 12 66 0 349 -74 188 -48 344 -86 346 -83 3 3 -28 160 -69 349 -41 189 -74 344 -73 345 1 1 138 81 305 179 166 97 302 181 302 185 0 4 -132 92 -292 195 -161 104 -295 190 -297 191 -2 2 36 157 84 344 48 187 86 343 83 345 -3 3 -160 -28 -349 -69 -189 -41 -344 -74 -345 -73 -1 1 -81 138 -179 305 -97 166 -181 302 -185 302 -4 0 -92 -132 -195 -292z m350 -124 c82 -141 154 -263 160 -271 9 -12 55 -4 318 53 169 36 310 64 313 62 2 -3 -30 -136 -72 -297 -41 -160 -74 -300 -72 -311 2 -13 88 -74 257 -183 140 -89 256 -167 258 -172 1 -6 -113 -77 -253 -160 -141 -82 -263 -154 -271 -160 -12 -9 -4 -55 53 -318 36 -169 64 -310 62 -313 -3 -2 -136 30 -297 71 -161 42 -301 75 -311 73 -13 -2 -75 -90 -183 -257 -89 -140 -167 -256 -172 -258 -6 -1 -77 113 -160 253 -82 141 -154 263 -160 271 -9 12 -55 4 -318 -53 -169 -36 -310 -64 -313 -62 -2 3 30 136 72 297 41 160 74 300 72 311 -2 13 -88 74 -257 183 -140 89 -256 167 -258 172 -1 6 113 77 253 160 141 82 263 154 271 160 13 9 5 53 -53 318 -36 169 -64 310 -62 313 3 2 135 -29 294 -71 159 -41 298 -75 309 -75 16 0 46 39 125 163 202 315 230 357 238 357 4 0 74 -116 157 -256z"/>
 </g>
<g id="layer3" fill="#fee7af" stroke="none">
 <path d="M1447 2743 c-34 -54 -110 -171 -167 -260 -79 -124 -109 -163 -125 -163 -11 0 -150 34 -309 75 -159 42 -291 73 -294 71 -2 -3 26 -144 62 -313 58 -265 66 -309 53 -318 -8 -6 -130 -78 -271 -160 -140 -83 -254 -154 -253 -160 2 -5 118 -83 258 -172 169 -109 255 -170 257 -183 2 -11 -31 -151 -72 -311 -42 -161 -74 -294 -72 -297 3 -2 144 26 313 62 263 57 309 65 318 53 6 -8 78 -130 160 -271 83 -140 154 -254 160 -253 5 2 83 118 172 258 108 167 170 255 183 257 10 2 150 -31 311 -73 161 -41 294 -73 297 -71 2 3 -26 144 -62 313 -57 263 -65 309 -53 318 8 6 130 78 271 160 140 83 254 154 253 160 -2 5 -118 83 -258 172 -169 109 -255 170 -257 183 -2 11 31 151 72 311 42 161 74 294 72 297 -3 2 -144 -26 -313 -62 -263 -57 -309 -65 -318 -53 -6 8 -78 130 -160 271 -83 140 -153 256 -157 256 -4 0 -36 -44 -71 -97z m298 -1138 c14 -13 25 -33 25 -45 0 -11 -11 -32 -25 -45 -13 -14 -33 -25 -45 -25 -11 0 -32 11 -45 25 -14 13 -25 34 -25 45 0 12 11 32 25 45 13 14 34 25 45 25 12 0 32 -11 45 -25z m-200 -60 c14 -13 25 -33 25 -45 0 -11 -11 -32 -25 -45 -13 -14 -33 -25 -45 -25 -11 0 -32 11 -45 25 -14 13 -25 34 -25 45 0 12 11 32 25 45 13 14 34 25 45 25 12 0 32 -11 45 -25z m-150 -10 c14 -13 25 -33 25 -45 0 -11 -11 -32 -25 -45 -13 -14 -33 -25 -45 -25 -11 0 -32 11 -45 25 -14 13 -25 34 -25 45 0 12 11 32 25 45 13 14 34 25 45 25 12 0 32 -11 45 -25z m140 -150 c14 -13 25 -33 25 -45 0 -11 -11 -32 -25 -45 l-24 -25 24 -25 c14 -13 25 -33 25 -45 0 -27 -43 -70 -70 -70 -27 0 -70 43 -70 70 0 12 11 32 25 45 l24 25 -24 25 c-14 13 -25 34 -25 45 0 12 11 32 25 45 13 14 34 25 45 25 12 0 32 -11 45 -25z m210 0 c14 -13 25 -33 25 -45 0 -11 -11 -32 -25 -45 -13 -14 -33 -25 -45 -25 -11 0 -32 11 -45 25 -14 13 -25 34 -25 45 0 12 11 32 25 45 13 14 34 25 45 25 12 0 32 -11 45 -25z m-418 -47 c29 -27 29 -65 1 -95 -27 -29 -65 -29 -95 -1 -29 27 -29 65 -1 95 27 29 65 29 95 1z"/>
 </g>
<g id="layer4" fill="#f6861f" stroke="none">
 <path d="M0 2269 l0 -731 33 20 c17 11 149 88 292 172 143 84 261 153 262 154 1 1 -32 156 -73 345 -41 189 -72 346 -69 349 2 3 158 -35 345 -83 187 -48 342 -86 344 -84 1 2 81 126 176 274 95 149 180 280 188 293 l14 22 -756 0 -756 0 0 -731z"/>
 <path d="M1533 2993 c7 -13 349 -598 351 -600 1 -1 156 32 345 73 189 41 346 72 349 69 3 -2 -35 -158 -83 -345 -48 -187 -86 -342 -84 -344 2 -1 126 -81 274 -176 149 -95 280 -180 293 -188 l22 -14 0 766 0 766 -736 0 c-404 0 -733 -3 -731 -7z"/>
 <path d="M0 751 l0 -751 721 0 721 0 -20 33 c-11 17 -88 149 -172 292 -84 143 -153 261 -154 262 -1 1 -156 -32 -345 -73 -189 -41 -346 -72 -349 -69 -3 2 35 158 83 345 48 187 86 342 84 344 -2 1 -119 76 -259 166 -140 90 -267 172 -282 182 l-28 19 0 -750z"/>
 <path d="M2695 1274 c-165 -97 -301 -177 -302 -178 -1 -1 32 -156 73 -345 41 -189 72 -346 69 -349 -2 -3 -158 35 -346 83 -283 74 -343 86 -349 74 -5 -8 -87 -135 -182 -284 l-174 -270 755 -3 c415 -1 756 -1 758 1 2 2 2 328 1 725 l-3 721 -300 -175z"/>
 </g>

</svg>