<!DOCTYPE svg PUBLIC "-//W3C//DTD SVG 20010904//EN" "http://www.w3.org/TR/2001/REC-SVG-20010904/DTD/svg10.dtd">
<svg version="1.0" xmlns="http://www.w3.org/2000/svg" width="300px" height="300px" viewBox="0 0 3000 3000" preserveAspectRatio="xMidYMid meet">
<g id="layer1" fill="#5bb748" stroke="none">
 <path d="M1370 2165 c0 -11 11 -15 40 -15 29 0 40 4 40 15 0 11 -11 15 -40 15 -29 0 -40 -4 -40 -15z"/>
 <path d="M1620 2165 c0 -11 11 -15 40 -15 29 0 40 4 40 15 0 11 -11 15 -40 15 -29 0 -40 -4 -40 -15z"/>
 <path d="M1280 2155 c0 -8 9 -15 20 -15 11 0 20 7 20 15 0 8 -9 15 -20 15 -11 0 -20 -7 -20 -15z"/>
 <path d="M1750 2155 c0 -8 9 -15 20 -15 11 0 20 7 20 15 0 8 -9 15 -20 15 -11 0 -20 -7 -20 -15z"/>
 <path d="M1220 2145 c0 -8 5 -15 10 -15 6 0 10 7 10 15 0 8 -4 15 -10 15 -5 0 -10 -7 -10 -15z"/>
 <path d="M1830 2145 c0 -8 5 -15 10 -15 6 0 10 7 10 15 0 8 -4 15 -10 15 -5 0 -10 -7 -10 -15z"/>
 <path d="M1170 2135 c0 -8 5 -15 10 -15 6 0 10 7 10 15 0 8 -4 15 -10 15 -5 0 -10 -7 -10 -15z"/>
 <path d="M1880 2135 c0 -8 5 -15 10 -15 6 0 10 7 10 15 0 8 -4 15 -10 15 -5 0 -10 -7 -10 -15z"/>
 <path d="M1010 2090 c0 -5 7 -10 15 -10 8 0 15 5 15 10 0 6 -7 10 -15 10 -8 0 -15 -4 -15 -10z"/>
 <path d="M2030 2091 c0 -8 52 -31 71 -31 18 0 8 17 -16 28 -31 14 -55 15 -55 3z"/>
 <path d="M960 2070 c0 -5 7 -10 15 -10 8 0 15 5 15 10 0 6 -7 10 -15 10 -8 0 -15 -4 -15 -10z"/>
 <path d="M960 1910 c0 -5 7 -10 15 -10 8 0 15 5 15 10 0 6 -7 10 -15 10 -8 0 -15 -4 -15 -10z"/>
 <path d="M2058 1908 c-30 -10 -38 -28 -13 -28 20 0 65 22 65 32 0 10 -17 9 -52 -4z"/>
 <path d="M1010 1890 c0 -5 7 -10 15 -10 8 0 15 5 15 10 0 6 -7 10 -15 10 -8 0 -15 -4 -15 -10z"/>
 <path d="M1170 1845 c0 -8 5 -15 10 -15 6 0 10 7 10 15 0 8 -4 15 -10 15 -5 0 -10 -7 -10 -15z"/>
 <path d="M1880 1845 c0 -8 5 -15 10 -15 6 0 10 7 10 15 0 8 -4 15 -10 15 -5 0 -10 -7 -10 -15z"/>
 <path d="M1220 1835 c0 -8 5 -15 10 -15 6 0 10 7 10 15 0 8 -4 15 -10 15 -5 0 -10 -7 -10 -15z"/>
 <path d="M1830 1835 c0 -8 5 -15 10 -15 6 0 10 7 10 15 0 8 -4 15 -10 15 -5 0 -10 -7 -10 -15z"/>
 <path d="M1280 1825 c0 -8 9 -15 20 -15 11 0 20 7 20 15 0 8 -9 15 -20 15 -11 0 -20 -7 -20 -15z"/>
 <path d="M1750 1825 c0 -8 9 -15 20 -15 11 0 20 7 20 15 0 8 -9 15 -20 15 -11 0 -20 -7 -20 -15z"/>
 <path d="M1380 1815 c0 -10 11 -15 35 -15 24 0 35 5 35 15 0 10 -11 15 -35 15 -24 0 -35 -5 -35 -15z"/>
 <path d="M1620 1815 c0 -10 11 -15 35 -15 24 0 35 5 35 15 0 10 -11 15 -35 15 -24 0 -35 -5 -35 -15z"/>
 </g>
<g id="layer2" fill="#2ae660" stroke="none">
 <path d="M1400 2285 c0 -13 22 -15 135 -15 113 0 135 2 135 15 0 13 -22 15 -135 15 -113 0 -135 -2 -135 -15z"/>
 <path d="M1310 2275 c0 -10 10 -15 30 -15 20 0 30 5 30 15 0 10 -10 15 -30 15 -20 0 -30 -5 -30 -15z"/>
 <path d="M1700 2275 c0 -10 10 -15 30 -15 20 0 30 5 30 15 0 10 -10 15 -30 15 -20 0 -30 -5 -30 -15z"/>
 <path d="M1250 2265 c0 -8 9 -15 20 -15 11 0 20 7 20 15 0 8 -9 15 -20 15 -11 0 -20 -7 -20 -15z"/>
 <path d="M1780 2265 c0 -8 9 -15 20 -15 11 0 20 7 20 15 0 8 -9 15 -20 15 -11 0 -20 -7 -20 -15z"/>
 <path d="M1200 2255 c0 -8 7 -15 15 -15 8 0 15 7 15 15 0 8 -7 15 -15 15 -8 0 -15 -7 -15 -15z"/>
 <path d="M1840 2255 c0 -8 7 -15 15 -15 8 0 15 7 15 15 0 8 -7 15 -15 15 -8 0 -15 -7 -15 -15z"/>
 <path d="M1138 2253 c-10 -2 -18 -11 -18 -20 0 -10 6 -13 16 -9 9 3 22 6 30 6 8 0 14 7 14 15 0 15 -9 17 -42 8z"/>
 <path d="M1890 2245 c0 -8 6 -15 14 -15 8 0 21 -3 30 -6 10 -4 16 -1 16 9 0 8 -10 17 -22 21 -34 9 -38 8 -38 -9z"/>
 <path d="M1010 2211 c-152 -57 -284 -139 -379 -235 -75 -76 -56 -84 21 -10 35 33 85 75 112 93 65 45 208 115 279 137 31 10 57 24 57 31 0 17 -2 17 -90 -16z"/>
 <path d="M1970 2227 c0 -7 26 -21 58 -31 53 -17 199 -85 249 -116 28 -18 43 -5 17 15 -36 28 -169 93 -242 119 -85 30 -82 30 -82 13z"/>
 <path d="M580 1302 c0 -20 133 -133 233 -200 60 -40 111 -72 113 -72 2 0 4 6 4 13 -1 13 -27 32 -129 93 -35 22 -97 69 -137 107 -71 66 -84 75 -84 59z"/>
 <path d="M2275 1141 c-18 -18 -189 -99 -247 -117 -34 -10 -58 -23 -58 -32 0 -15 10 -13 118 28 80 31 222 109 222 122 0 11 -24 10 -35 -1z"/>
 <path d="M960 1025 c0 -8 5 -15 10 -15 6 0 10 7 10 15 0 8 -4 15 -10 15 -5 0 -10 -7 -10 -15z"/>
 <path d="M1000 1015 c0 -8 5 -15 10 -15 6 0 10 7 10 15 0 8 -4 15 -10 15 -5 0 -10 -7 -10 -15z"/>
 <path d="M1040 1005 c0 -8 5 -15 10 -15 6 0 10 7 10 15 0 8 -4 15 -10 15 -5 0 -10 -7 -10 -15z"/>
 <path d="M1080 996 c0 -7 12 -16 28 -20 15 -3 37 -8 50 -12 16 -5 22 -2 22 10 0 9 -7 16 -15 16 -8 0 -15 5 -15 10 0 6 -16 10 -35 10 -23 0 -35 -5 -35 -14z"/>
 <path d="M1913 993 c-13 -2 -23 -11 -23 -20 0 -11 6 -14 23 -9 12 3 25 6 30 6 4 0 7 7 7 15 0 8 -3 14 -7 14 -5 -1 -18 -4 -30 -6z"/>
 <path d="M1200 965 c0 -8 7 -15 15 -15 8 0 15 7 15 15 0 8 -7 15 -15 15 -8 0 -15 -7 -15 -15z"/>
 <path d="M1840 965 c0 -8 7 -15 15 -15 8 0 15 7 15 15 0 8 -7 15 -15 15 -8 0 -15 -7 -15 -15z"/>
 <path d="M1250 955 c0 -8 9 -15 20 -15 11 0 20 7 20 15 0 8 -9 15 -20 15 -11 0 -20 -7 -20 -15z"/>
 <path d="M1780 955 c0 -8 9 -15 20 -15 11 0 20 7 20 15 0 8 -9 15 -20 15 -11 0 -20 -7 -20 -15z"/>
 <path d="M1310 945 c0 -10 10 -15 30 -15 20 0 30 5 30 15 0 10 -10 15 -30 15 -20 0 -30 -5 -30 -15z"/>
 <path d="M1700 945 c0 -10 10 -15 30 -15 20 0 30 5 30 15 0 10 -10 15 -30 15 -20 0 -30 -5 -30 -15z"/>
 <path d="M1400 935 c0 -13 22 -15 135 -15 113 0 135 2 135 15 0 13 -22 15 -135 15 -113 0 -135 -2 -135 -15z"/>
 </g>
<g id="layer3" fill="#000000" stroke="none">
 <path d="M2035 1710 c-9 -18 -15 -56 -15 -100 0 -86 19 -130 55 -130 36 0 55 44 55 130 0 86 -19 130 -55 130 -17 0 -29 -9 -40 -30z"/>
 <path d="M2265 1710 c-9 -18 -15 -56 -15 -100 0 -86 19 -130 55 -130 36 0 55 44 55 130 0 86 -19 130 -55 130 -17 0 -29 -9 -40 -30z"/>
 </g>
<g id="layer4" fill="#ffffff" stroke="none">
 <path d="M1075 1205 c-98 -16 -140 -30 -183 -62 -161 -120 365 -219 663 -126 62 19 115 58 115 83 0 25 -53 64 -115 83 -117 37 -328 47 -480 22z"/>
 </g>
<g id="layer5" fill="#37a72b" stroke="none">
 <path d="M1247 2224 c-262 -40 -427 -131 -427 -234 0 -78 108 -158 275 -203 233 -64 647 -64 880 0 167 45 275 125 275 203 0 105 -166 194 -435 235 -126 19 -445 18 -568 -1z"/>
 </g>
<g id="layer6" fill="#2bd430" stroke="none">
 <path d="M1275 2346 c-429 -71 -755 -291 -852 -575 -17 -50 -22 -89 -22 -161 0 -162 55 -284 190 -419 141 -139 337 -239 584 -297 114 -27 132 -29 360 -29 228 0 246 2 360 29 247 58 443 158 584 297 135 135 190 257 190 419 0 162 -55 284 -190 419 -141 140 -339 241 -584 297 -107 24 -143 28 -330 30 -140 2 -237 -1 -290 -10z m540 -141 c127 -19 203 -40 290 -80 170 -77 170 -193 0 -270 -149 -68 -313 -95 -570 -95 -257 0 -421 27 -570 95 -170 77 -170 193 0 270 149 68 297 93 560 94 123 1 225 -4 290 -14z m285 -504 c5 -11 10 -52 10 -91 0 -75 -11 -110 -35 -110 -24 0 -35 35 -35 110 0 75 11 110 35 110 8 0 19 -9 25 -19z m230 0 c5 -11 10 -52 10 -91 0 -75 -11 -110 -35 -110 -24 0 -35 35 -35 110 0 75 11 110 35 110 8 0 19 -9 25 -19z m-903 -511 c132 -18 223 -55 223 -90 0 -55 -176 -98 -415 -101 -153 -2 -239 15 -335 67 -29 15 -28 41 3 66 70 54 332 83 524 58z"/>
 </g>
<g id="layer7" fill="#d43b41" stroke="none">
 <path d="M0 1500 l0 -1500 1500 0 1500 0 0 1500 0 1500 -1500 0 -1500 0 0 -1500z m1895 806 c380 -87 646 -282 732 -535 17 -50 22 -89 22 -161 0 -72 -5 -111 -22 -161 -86 -253 -349 -446 -732 -535 -114 -27 -132 -29 -360 -29 -228 0 -246 2 -360 29 -383 89 -646 282 -732 535 -31 92 -31 230 0 322 94 276 407 485 832 555 53 9 150 12 290 10 187 -2 223 -6 330 -30z"/>
 </g>

</svg>