<!DOCTYPE svg PUBLIC "-//W3C//DTD SVG 20010904//EN" "http://www.w3.org/TR/2001/REC-SVG-20010904/DTD/svg10.dtd">
<svg version="1.0" xmlns="http://www.w3.org/2000/svg" width="300px" height="300px" viewBox="0 0 3000 3000" preserveAspectRatio="xMidYMid meet">
<g id="layer1" fill="#603913" stroke="none">
 <path d="M1473 2459 c-43 -12 -43 -37 -1 -85 61 -70 146 -91 223 -55 75 35 106 92 58 107 -10 3 -26 9 -35 14 -22 12 -134 30 -178 29 -19 0 -50 -5 -67 -10z"/>
 <path d="M903 2195 c-18 -8 -33 -19 -33 -24 0 -6 -15 -17 -33 -25 -57 -23 -146 -152 -147 -211 0 -59 58 -81 127 -48 86 40 193 182 193 256 0 31 -31 67 -57 67 -10 -1 -33 -7 -50 -15z"/>
 <path d="M1814 2050 c-89 -28 -181 -123 -205 -213 -35 -129 33 -270 164 -339 60 -32 184 -32 244 0 63 33 106 74 139 134 25 46 29 63 29 133 0 70 -4 87 -29 133 -55 98 -140 153 -246 158 -36 2 -79 -1 -96 -6z"/>
 <path d="M1165 1906 c-53 -23 -80 -62 -80 -113 0 -39 5 -49 37 -78 64 -59 152 -59 216 0 32 29 37 39 37 78 0 34 -6 52 -25 72 -47 52 -123 68 -185 41z"/>
 <path d="M497 1568 c-49 -38 4 -488 71 -598 33 -54 74 -80 99 -64 39 24 55 254 28 410 -33 186 -126 305 -198 252z"/>
 <path d="M1025 1351 c-208 -96 -139 -411 90 -411 233 0 298 325 83 414 -50 21 -124 20 -173 -3z"/>
 <path d="M1912 1155 c-82 -25 -142 -90 -142 -152 0 -67 75 -135 173 -155 103 -22 222 20 267 95 80 131 -115 269 -298 212z"/>
 <path d="M1383 820 c-34 -21 -63 -66 -63 -100 0 -34 29 -79 63 -100 62 -38 148 -15 182 49 20 40 19 69 -5 108 -37 61 -116 81 -177 43z"/>
 </g>
<g id="layer2" fill="#754c24" stroke="none">
 <path d="M1310 2458 c-147 -21 -314 -93 -446 -194 -62 -47 -75 -53 -105 -48 -55 9 -124 -45 -171 -132 -33 -61 -37 -78 -38 -140 0 -45 -8 -93 -21 -130 -34 -101 -49 -175 -55 -291 -6 -103 -5 -113 10 -113 15 0 17 9 14 70 -3 68 -2 71 21 77 40 10 74 -17 108 -87 56 -112 77 -305 52 -475 -10 -63 -14 -75 -31 -75 -19 0 -68 45 -68 61 0 5 -7 9 -16 9 -13 0 -14 -9 -9 -58 8 -71 30 -93 111 -111 49 -11 69 -23 122 -71 35 -32 89 -75 120 -96 31 -21 78 -58 104 -81 26 -24 57 -43 68 -43 12 0 30 -5 41 -11 11 -5 84 -17 162 -25 241 -27 400 -7 584 72 76 33 91 36 146 31 34 -3 69 -1 79 4 10 5 23 30 29 54 6 24 22 59 35 76 13 18 24 37 24 41 0 4 29 45 65 91 36 45 88 128 116 184 27 55 56 107 64 113 8 7 15 28 15 46 0 19 4 34 10 34 13 0 54 66 68 110 6 19 14 63 18 96 l6 62 -42 42 c-37 37 -45 52 -60 124 -19 86 -54 185 -89 254 l-21 42 22 31 c21 28 21 32 8 57 -19 32 -66 61 -109 65 -66 8 -185 160 -165 212 3 8 -6 26 -20 40 -22 22 -34 25 -94 25 -37 0 -73 -5 -78 -10 -8 -8 -27 -5 -63 10 -64 25 -71 25 -71 2 0 -24 -25 -47 -73 -67 -48 -20 -93 -19 -143 4 -65 30 -110 101 -64 101 11 0 20 7 20 15 0 17 -81 19 -190 3z m-332 -280 c47 -47 -57 -222 -162 -272 -18 -9 -48 -16 -65 -16 -24 0 -32 5 -37 25 -13 52 68 195 118 210 13 4 34 17 48 30 39 35 77 44 98 23z m1054 -175 c130 -73 175 -242 101 -376 -73 -129 -242 -174 -376 -100 -129 73 -174 242 -100 376 31 54 98 108 157 127 59 18 159 6 218 -27z m-714 -130 c59 -44 50 -131 -18 -166 -44 -23 -121 -18 -158 10 -59 44 -50 131 18 166 44 23 121 18 158 -10z m-121 -538 c50 -21 72 -42 94 -90 34 -74 16 -190 -37 -237 -71 -62 -207 -62 -278 0 -69 61 -73 212 -8 286 46 51 157 71 229 41z m928 -215 c113 -55 112 -175 -2 -231 -68 -34 -178 -34 -246 0 -78 38 -106 105 -73 170 44 84 209 115 321 61z m-616 -314 c66 -35 66 -137 0 -172 -100 -51 -207 42 -155 135 27 48 99 65 155 37z"/>
 <path d="M1600 2455 c0 -8 5 -15 10 -15 6 0 10 7 10 15 0 8 -4 15 -10 15 -5 0 -10 -7 -10 -15z"/>
 <path d="M1720 2425 c0 -8 5 -15 10 -15 6 0 10 7 10 15 0 8 -4 15 -10 15 -5 0 -10 -7 -10 -15z"/>
 <path d="M480 1315 c0 -8 7 -15 15 -15 8 0 15 7 15 15 0 8 -7 15 -15 15 -8 0 -15 -7 -15 -15z"/>
 <path d="M490 1230 c0 -5 7 -10 15 -10 8 0 15 5 15 10 0 6 -7 10 -15 10 -8 0 -15 -4 -15 -10z"/>
 <path d="M500 1170 c0 -5 7 -10 15 -10 8 0 15 5 15 10 0 6 -7 10 -15 10 -8 0 -15 -4 -15 -10z"/>
 <path d="M510 1120 c0 -5 7 -10 15 -10 8 0 15 5 15 10 0 6 -7 10 -15 10 -8 0 -15 -4 -15 -10z"/>
 <path d="M520 1080 c0 -5 7 -10 15 -10 8 0 15 5 15 10 0 6 -7 10 -15 10 -8 0 -15 -4 -15 -10z"/>
 </g>
<g id="layer3" fill="#6e77b9" stroke="none">
 <path d="M0 1500 l0 -1500 1500 0 1500 0 0 1500 0 1500 -1500 0 -1500 0 0 -1500z m1669 935 c31 -8 92 -28 135 -45 55 -21 82 -28 90 -20 5 5 40 10 77 10 70 0 106 -17 95 -46 -20 -51 111 -216 183 -229 87 -16 118 -57 82 -105 l-20 -28 33 -74 c37 -78 68 -178 86 -271 9 -46 17 -60 39 -71 45 -24 55 -54 43 -136 -11 -76 -42 -146 -73 -168 -12 -8 -19 -25 -19 -47 0 -20 -6 -38 -16 -43 -8 -5 -30 -42 -48 -83 -39 -90 -72 -143 -142 -231 -30 -37 -54 -71 -54 -76 0 -4 -11 -23 -24 -41 -14 -19 -28 -48 -32 -65 -11 -51 -19 -56 -89 -49 -57 5 -71 2 -148 -31 -184 -79 -343 -99 -584 -72 -78 8 -151 20 -162 25 -11 6 -29 11 -41 11 -11 0 -42 19 -68 43 -26 23 -73 60 -104 81 -31 21 -85 64 -120 95 -50 46 -74 61 -118 71 -85 20 -87 22 -95 96 -4 37 -13 85 -21 108 -22 60 -52 248 -60 367 -8 128 7 251 47 374 20 64 29 112 29 159 0 130 102 266 189 252 30 -5 43 1 105 48 132 101 299 173 446 194 106 15 295 14 359 -3z"/>
 </g>

</svg>